<?xml version="1.0" standalone="no"?>
<!DOCTYPE svg PUBLIC "-//W3C//DTD SVG 1.1//EN" "http://www.w3.org/Graphics/SVG/1.1/DTD/svg11.dtd" >
<svg xmlns="http://www.w3.org/2000/svg" xmlns:xlink="http://www.w3.org/1999/xlink" version="1.1">
<metadata>
Created by FontForge 20200427 at Sat Mar 11 00:45:43 2017
 By www
Copyright 2016 Yassin Baggar, Fatype. All rights reserved.
</metadata>
<defs>
<font id="BeausiteClassic-Regular" horiz-adv-x="242" >
  <font-face 
    font-family="Beausite Classic Regular"
    font-weight="400"
    font-stretch="normal"
    units-per-em="1000"
    panose-1="2 11 6 3 6 5 2 6 2 3"
    ascent="760"
    descent="-240"
    x-height="518"
    cap-height="700"
    bbox="-214 -239 1199 1041"
    underline-thickness="0"
    underline-position="0"
    unicode-range="U+000D-FB02"
  />
<missing-glyph horiz-adv-x="550" 
d="M50 0v700h450v-700h-450zM100 50h350v600h-350v-600z" />
    <glyph glyph-name="ff" unicode="ff" horiz-adv-x="662" 
d="M645 442h-134v-442h-92v442h-95v76h95v61q0 84 39.5 113.5t113.5 29.5q20 0 37.5 -0.5t35.5 -1.5v-77q-13 1 -28.5 1.5t-30.5 0.5q-37 0 -56 -13.5t-19 -56.5v-57h134v-76zM335 442h-134v-442h-92v442h-95v76h95v61q0 84 39.5 113.5t113.5 29.5q20 0 37.5 -0.5t35.5 -1.5
v-77q-13 1 -28.5 1.5t-30.5 0.5q-37 0 -56 -13.5t-19 -56.5v-57h134v-76z" />
    <glyph glyph-name="fi" unicode="fi" horiz-adv-x="589" 
d="M418 611v109h96v-109h-96zM419 0v518h94v-518h-94zM335 442h-134v-442h-92v442h-95v76h95v61q0 84 39.5 113.5t113.5 29.5q20 0 37.5 -0.5t35.5 -1.5v-77q-13 1 -28.5 1.5t-30.5 0.5q-37 0 -56 -13.5t-19 -56.5v-57h134v-76z" />
    <glyph glyph-name="fl" unicode="fl" horiz-adv-x="589" 
d="M419 0v720h94v-720h-94zM335 442h-134v-442h-92v442h-95v76h95v61q0 84 39.5 113.5t113.5 29.5q20 0 37.5 -0.5t35.5 -1.5v-77q-13 1 -28.5 1.5t-30.5 0.5q-37 0 -56 -13.5t-19 -56.5v-57h134v-76z" />
    <glyph glyph-name="f_f_i" unicode="ffi" horiz-adv-x="902" 
d="M731 611v109h96v-109h-96zM732 0v518h94v-518h-94zM645 442h-134v-442h-92v442h-95v76h95v61q0 84 39.5 113.5t113.5 29.5q20 0 37.5 -0.5t35.5 -1.5v-77q-13 1 -28.5 1.5t-30.5 0.5q-37 0 -56 -13.5t-19 -56.5v-57h134v-76zM335 442h-134v-442h-92v442h-95v76h95v61
q0 84 39.5 113.5t113.5 29.5q20 0 37.5 -0.5t35.5 -1.5v-77q-13 1 -28.5 1.5t-30.5 0.5q-37 0 -56 -13.5t-19 -56.5v-57h134v-76z" />
    <glyph glyph-name="f_j" unicode="fj" horiz-adv-x="589" 
d="M418 611v109h96v-109h-96zM419 518h94v-573q0 -78 -34 -106.5t-93 -28.5q-21 0 -37 0.5t-40 1.5v77q14 0 27.5 -0.5t25.5 -0.5q33 0 45 13.5t12 52.5v564zM335 442h-134v-442h-92v442h-95v76h95v61q0 84 39.5 113.5t113.5 29.5q20 0 37.5 -0.5t35.5 -1.5v-77
q-13 1 -28.5 1.5t-30.5 0.5q-37 0 -56 -13.5t-19 -56.5v-57h134v-76z" />
    <glyph glyph-name="f_b" unicode="fb" horiz-adv-x="967" 
d="M923 263q0 -66 -18.5 -117.5t-50.5 -86t-75.5 -52.5t-92.5 -18q-62 0 -107 27t-66 67v-83h-94v720h94v-279q21 37 65.5 63t108.5 26q49 0 92 -17.5t75 -51t50.5 -83.5t18.5 -115zM669 69q66 0 111.5 51.5t45.5 142.5q0 90 -45.5 138.5t-111.5 48.5t-112 -48.5t-46 -138.5
q0 -46 13 -82t35 -61t50.5 -38t59.5 -13zM335 442h-134v-442h-92v442h-95v76h95v61q0 84 39.5 113.5t113.5 29.5q20 0 37.5 -0.5t35.5 -1.5v-77q-13 1 -28.5 1.5t-30.5 0.5q-37 0 -56 -13.5t-19 -56.5v-57h134v-76z" />
    <glyph glyph-name="f_f_l" unicode="ffl" horiz-adv-x="899" 
d="M729 0v720h94v-720h-94zM645 442h-134v-442h-92v442h-95v76h95v61q0 84 39.5 113.5t113.5 29.5q20 0 37.5 -0.5t35.5 -1.5v-77q-13 1 -28.5 1.5t-30.5 0.5q-37 0 -56 -13.5t-19 -56.5v-57h134v-76zM335 442h-134v-442h-92v442h-95v76h95v61q0 84 39.5 113.5t113.5 29.5
q20 0 37.5 -0.5t35.5 -1.5v-77q-13 1 -28.5 1.5t-30.5 0.5q-37 0 -56 -13.5t-19 -56.5v-57h134v-76z" />
    <glyph glyph-name=".notdef" horiz-adv-x="550" 
d="M50 0v700h450v-700h-450zM100 50h350v600h-350v-600z" />
    <glyph glyph-name=".null" horiz-adv-x="500" 
 />
    <glyph glyph-name=".null" horiz-adv-x="500" 
 />
    <glyph glyph-name="nonmarkingreturn" horiz-adv-x="333" 
 />
    <glyph glyph-name="CR" unicode="&#xd;" horiz-adv-x="500" 
 />
    <glyph glyph-name="space" unicode=" " horiz-adv-x="264" 
 />
    <glyph glyph-name="exclam" unicode="!" horiz-adv-x="272" 
d="M108 224v10l-22 267v199h100v-199l-21 -267v-10h-57zM82 0v124h109v-124h-109z" />
    <glyph glyph-name="quotedbl" unicode="&#x22;" horiz-adv-x="365" 
d="M229 466l-15 234h103l-14 -234h-74zM63 466l-15 234h103l-14 -234h-74z" />
    <glyph glyph-name="numbersign" unicode="#" horiz-adv-x="835" 
d="M376 0l74 188h-192l-74 -188h-89l74 188h-139v82h171l65 163h-167v82h199l73 185h90l-73 -185h192l73 185h89l-73 -185h137v-82h-169l-65 -163h163v-82h-195l-74 -188h-90zM291 270h192l64 163h-192z" />
    <glyph glyph-name="dollar" unicode="$" horiz-adv-x="627" 
d="M584 197q0 -47 -19 -83.5t-50 -62t-72.5 -40.5t-85.5 -19v-82h-69v81q-102 7 -171.5 64t-77.5 164h97q7 -64 49 -100t103 -43v241l-27 6q-98 23 -146.5 67.5t-48.5 119.5q0 42 17.5 77.5t47 62t70.5 43.5t87 21v76h69v-77q92 -9 151.5 -62.5t66.5 -144.5h-96
q-6 49 -38.5 80.5t-83.5 40.5v-228l16 -4q95 -23 153 -68.5t58 -129.5zM287 415h1v213q-51 -7 -87 -37.5t-36 -72.5t30.5 -65t91.5 -38zM482 187q0 46 -33 71.5t-92 41.5v-222q52 8 88.5 36.5t36.5 72.5z" />
    <glyph glyph-name="percent" unicode="%" horiz-adv-x="861" 
d="M136 0l491 700h95l-491 -700h-95zM212 364q-33 0 -63 12t-52.5 34t-36 55t-13.5 74t13.5 73t36 53.5t52.5 33t63 11.5t63.5 -11t53 -32.5t36 -54t13.5 -73.5t-13.5 -74t-36 -55t-53 -34t-63.5 -12zM212 432q42 0 63 30.5t21 76.5q0 45 -21 74.5t-63 29.5
q-40 0 -61.5 -29.5t-21.5 -74.5q0 -46 21.5 -76.5t61.5 -30.5zM648 -9q-33 0 -63 12t-52.5 34t-36 55t-13.5 74t13.5 73t36 53.5t52.5 33t63 11.5t63.5 -11t53 -32.5t36 -54t13.5 -73.5t-13.5 -74t-36 -55t-53 -34t-63.5 -12zM648 59q42 0 63 30.5t21 76.5q0 45 -21 74.5
t-63 29.5q-40 0 -61.5 -29.5t-21.5 -74.5q0 -46 21.5 -76.5t61.5 -30.5z" />
    <glyph glyph-name="ampersand" unicode="&#x26;" horiz-adv-x="706" 
d="M542 0l-62 67q-42 -37 -90.5 -58t-111.5 -21q-47 0 -90 14t-74.5 40t-50.5 63t-19 83q0 70 38.5 117.5t102.5 80.5q-31 36 -49.5 72.5t-18.5 82.5q0 38 15 70t40.5 54.5t60 35.5t73.5 13t73 -12t59 -34t39.5 -53.5t14.5 -71.5q0 -64 -40 -106t-118 -75l147 -158
q20 35 31.5 76t15.5 88h96q-4 -66 -23.5 -125.5t-55.5 -107.5l125 -134v-1h-128zM207 541q0 -32 19.5 -60t50.5 -59q63 22 94.5 52t31.5 69q0 41 -28.5 65t-68.5 24q-45 0 -72 -26t-27 -65zM141 193q0 -56 42 -88.5t96 -32.5q40 0 76 14.5t67 42.5l-181 196
q-50 -23 -75 -56.5t-25 -75.5z" />
    <glyph glyph-name="quotesingle" unicode="'" horiz-adv-x="199" 
d="M63 466l-15 234h103l-14 -234h-74z" />
    <glyph glyph-name="parenleft" unicode="(" horiz-adv-x="325" 
d="M54 303q0 74 17 137.5t44 116t61.5 93.5t68.5 70h99q-38 -36 -73.5 -81t-62 -97t-42 -112t-15.5 -127q0 -66 15.5 -127t42 -114t61.5 -98.5t74 -81.5h-99q-34 29 -68.5 70.5t-61.5 94t-44 117t-17 139.5z" />
    <glyph glyph-name="parenright" unicode=")" horiz-adv-x="325" 
d="M278 299q0 -74 -17 -137.5t-44 -116t-61.5 -93.5t-68.5 -70h-99q38 36 73.5 81t62 97t42 112t15.5 127q0 66 -15.5 127t-42 114t-61.5 98.5t-74 81.5h99q34 -29 68.5 -70.5t61.5 -94t44 -117t17 -139.5z" />
    <glyph glyph-name="asterisk" unicode="*" horiz-adv-x="400" 
d="M324 420l-54 -38l-70 96l-70 -96l-54 38l70 97l-113 37l20 64l114 -38v120h66v-120l115 38l20 -64l-114 -37z" />
    <glyph glyph-name="plus" unicode="+" horiz-adv-x="591" 
d="M541 305h-203v-211h-86v211h-202v76h202v206h86v-206h203v-76z" />
    <glyph glyph-name="comma" unicode="," horiz-adv-x="250" 
d="M71 0v124h109v-117q0 -64 -31 -100t-84 -49l-1 55q25 8 42 28t17 45q0 7 -3 10.5t-12 3.5h-37z" />
    <glyph glyph-name="hyphen" unicode="-" horiz-adv-x="443" 
d="M55 235v86h334v-86h-334z" />
    <glyph glyph-name="period" unicode="." horiz-adv-x="250" 
d="M71 0v124h109v-124h-109z" />
    <glyph glyph-name="slash" unicode="/" horiz-adv-x="471" 
d="M-9 -66l388 775h92l-388 -775h-92z" />
    <glyph glyph-name="zero" unicode="0" horiz-adv-x="670" 
d="M335 -10q-65 0 -117 25.5t-88.5 72.5t-56.5 114.5t-20 151.5q0 168 76.5 264t205.5 96q128 0 205.5 -96t77.5 -264q0 -84 -20 -151.5t-56.5 -114.5t-89 -72.5t-117.5 -25.5zM335 77q45 0 79 20.5t56.5 57.5t34 88t11.5 111q0 61 -11.5 111.5t-34 86t-56.5 55.5t-79 20
q-44 0 -78 -20t-56.5 -55.5t-34 -86t-11.5 -111.5q0 -60 11 -111t33.5 -88t56.5 -57.5t79 -20.5z" />
    <glyph glyph-name="one" unicode="1" horiz-adv-x="407" 
d="M310 700v-700h-97v582l-178 -122v98l198 142h77z" />
    <glyph glyph-name="two" unicode="2" horiz-adv-x="589" 
d="M537 84v-84h-500l7 42q13 68 61 128t154 126q88 54 130 97.5t42 103.5q0 52 -35.5 91t-99.5 39q-63 0 -101.5 -37.5t-42.5 -94.5h-99q2 49 21.5 89.5t51.5 69t76 44.5t95 16t94 -16t74.5 -44.5t49 -69t17.5 -89.5q0 -80 -52 -140t-168 -128q-70 -41 -106.5 -74.5
t-47.5 -68.5h379z" />
    <glyph glyph-name="three" unicode="3" horiz-adv-x="597" 
d="M284 -10q-107 0 -177 56.5t-80 154.5h99q7 -54 46.5 -92t111.5 -38t114.5 34.5t42.5 91.5q0 61 -46 93t-118 32q-17 0 -35 -0.5t-36 -1.5v86q14 -1 34 -1.5t37 -0.5q62 0 108 29t46 88q0 51 -40 82t-104 31q-68 0 -107 -35t-45 -84h-97q10 90 77.5 144.5t171.5 54.5
q51 0 96 -12.5t78 -37t52.5 -60.5t19.5 -82q0 -68 -42.5 -107t-99.5 -49v-2q63 -8 107.5 -51.5t44.5 -118.5q0 -49 -20.5 -87t-56 -64t-82.5 -39.5t-100 -13.5z" />
    <glyph glyph-name="four" unicode="4" horiz-adv-x="586" 
d="M562 180h-105v-180h-93v180h-345v74l320 446h118v-440h105v-80zM122 260h242v337z" />
    <glyph glyph-name="five" unicode="5" horiz-adv-x="593" 
d="M545 233q0 -53 -19.5 -98t-54 -77t-81.5 -50t-102 -18q-48 0 -91.5 14t-76.5 40t-53.5 63t-24.5 83h99q6 -48 45.5 -81.5t101.5 -33.5q35 0 63.5 12.5t49 34t31.5 49.5t11 59q0 65 -44 109.5t-111 44.5q-54 0 -90 -22t-52 -45h-77l30 383h417v-84h-341l-16 -195
q25 21 62 34.5t81 13.5q50 0 94.5 -16.5t77.5 -47.5t52 -74.5t19 -97.5z" />
    <glyph glyph-name="six" unicode="6" horiz-adv-x="611" 
d="M561 222q0 -51 -19 -93.5t-52.5 -73.5t-80 -48t-100.5 -17t-100.5 18.5t-81 57.5t-54 99.5t-19.5 144.5q0 112 21 189.5t57.5 125t87 68.5t108.5 21q45 0 85 -11t70.5 -33t50.5 -55.5t24 -77.5h-99q-7 45 -42 71t-90 26q-72 0 -121 -65t-53 -222q21 46 65.5 77t107.5 31
q46 0 89 -15t75 -44.5t51.5 -73.5t19.5 -100zM165 218q0 -29 10.5 -56t29.5 -47t46 -32t60 -12q67 0 107.5 42t40.5 105q0 73 -44.5 114.5t-105.5 41.5q-60 0 -102 -42.5t-42 -113.5z" />
    <glyph glyph-name="seven" unicode="7" horiz-adv-x="519" 
d="M492 610q-111 -137 -170 -290.5t-65 -319.5h-103q11 190 78.5 342t163.5 274h-375v84h487v-71z" />
    <glyph glyph-name="eight" unicode="8" horiz-adv-x="613" 
d="M307 -12q-56 0 -103 14.5t-80.5 40.5t-52.5 63t-19 82q0 35 12.5 65t33 52.5t47.5 37t55 18.5v2q-24 6 -47.5 19t-42 33.5t-30 48.5t-11.5 63q0 44 19.5 79t52 59t76 36.5t90.5 12.5t90 -12.5t75.5 -36t52 -58.5t19.5 -80q0 -34 -11 -62t-29.5 -48.5t-42 -34t-47.5 -19.5
v-2q28 -4 55 -18t47 -36.5t32.5 -52.5t12.5 -66q0 -45 -19.5 -82t-53 -63t-80.5 -40.5t-101 -14.5zM307 634q-57 0 -98.5 -30t-41.5 -84q0 -51 40 -85t100 -34t99.5 33t39.5 86t-41 83.5t-98 30.5zM307 69q69 0 111 35t42 90q0 53 -43 89.5t-110 36.5q-68 0 -111 -36
t-43 -90t42.5 -89.5t111.5 -35.5z" />
    <glyph glyph-name="nine" unicode="9" horiz-adv-x="610" 
d="M556 387q0 -110 -20.5 -186.5t-57 -123t-86.5 -67t-108 -20.5q-44 0 -84 10.5t-71 32t-51.5 55t-25.5 77.5h99q9 -45 44.5 -69.5t89.5 -24.5q74 0 122 64.5t50 227.5q-19 -47 -64.5 -80t-110.5 -33q-45 0 -87 15t-74 44t-51.5 73t-19.5 101q0 50 19 93t52 73.5t79 47.5
t99 17q54 0 101 -18.5t81.5 -58t54.5 -101.5t20 -149zM299 330q60 0 102 43t42 114q0 29 -10 56t-29 47t-46 32t-60 12q-65 0 -105.5 -42.5t-40.5 -104.5q0 -75 44 -116t103 -41z" />
    <glyph glyph-name="colon" unicode=":" horiz-adv-x="267" 
d="M79 395v124h109v-124h-109zM79 0v124h109v-124h-109z" />
    <glyph glyph-name="semicolon" unicode=";" horiz-adv-x="267" 
d="M79 395v124h109v-124h-109zM79 0v124h109v-117q0 -64 -31 -100t-84 -49l-1 55q25 8 42 28t17 45q0 7 -3 10.5t-12 3.5h-37z" />
    <glyph glyph-name="less" unicode="&#x3c;" horiz-adv-x="487" 
d="M426 196v-91l-380 189v81l380 188v-86l-288 -140z" />
    <glyph glyph-name="equal" unicode="=" horiz-adv-x="600" 
d="M59 401v75h482v-75h-482zM59 185v76h482v-76h-482z" />
    <glyph glyph-name="greater" unicode="&#x3e;" horiz-adv-x="487" 
d="M441 293l-380 -188v86l288 140l-288 141v91l380 -189v-81z" />
    <glyph glyph-name="question" unicode="?" horiz-adv-x="565" 
d="M213 213v21q0 22 1.5 37.5t5.5 28.5q9 23 26 43.5t54 42.5q52 31 85.5 60t33.5 75q0 50 -38.5 83t-98.5 33q-65 0 -104 -39.5t-43 -102.5h-96q4 51 24.5 91.5t52.5 69t75 43.5t92 15q47 0 89.5 -12.5t74.5 -37t51 -60.5t19 -83q0 -66 -35.5 -106.5t-105.5 -75.5
q-50 -25 -64 -48.5t-14 -60.5v-17h-85zM205 0v113h100v-113h-100z" />
    <glyph glyph-name="at" unicode="@" horiz-adv-x="872" 
d="M672 -70q-39 -28 -101.5 -48.5t-134.5 -20.5q-76 0 -147.5 26t-126 76t-87 123t-32.5 167q0 88 33 162t88 127t128 82t151 29q82 0 153 -27.5t122.5 -75t81 -113t29.5 -140.5q0 -66 -20 -112.5t-50 -75t-65 -41.5t-66 -13q-38 0 -69 17t-41 47q-22 -30 -53 -46t-69 -16
q-29 0 -58 11t-52 33.5t-37 57t-14 80.5q0 50 16 90t41.5 67.5t59.5 42.5t70 15q40 0 71.5 -15.5t50.5 -45.5l7 51h84l-37 -254q-4 -31 8 -46t36 -15q15 0 33 8t34.5 26.5t27.5 50.5t11 79q0 59 -23 111t-63.5 90t-96.5 60t-122 22q-62 0 -120 -23.5t-102 -66t-70.5 -102
t-26.5 -131.5q0 -77 27 -136t71 -98.5t100.5 -60t113.5 -20.5t107.5 16t83.5 41zM418 136q40 0 67.5 27t36.5 73q2 13 3.5 23t1.5 20q-1 46 -24.5 73t-64.5 27q-49 0 -79 -37.5t-30 -97.5q0 -49 26 -78.5t63 -29.5z" />
    <glyph glyph-name="A" unicode="A" horiz-adv-x="688" 
d="M575 0l-72 183h-323l-72 -183h-101l284 702h107l283 -702h-106zM214 270h255l-127 326z" />
    <glyph glyph-name="B" unicode="B" horiz-adv-x="656" 
d="M82 0v700h286q116 0 171.5 -52t55.5 -129q0 -61 -33 -100.5t-81 -52.5v-2q55 -13 92 -57t37 -112q0 -91 -65 -143t-184 -52h-279zM360 617h-180v-216h180q67 0 101 29t34 79q0 49 -34 78.5t-101 29.5zM354 318h-174v-235h174q78 0 116.5 31t38.5 86t-39.5 86.5
t-115.5 31.5z" />
    <glyph glyph-name="C" unicode="C" horiz-adv-x="731" 
d="M382 -12q-68 0 -130 25.5t-108 73t-73 115.5t-27 152t28 151t74.5 113.5t108 71.5t127.5 25q59 0 112 -17t94 -48t69 -75.5t37 -100.5h-100q-18 72 -77 111.5t-135 39.5q-48 0 -90.5 -19t-74 -54.5t-50 -85.5t-18.5 -112q0 -61 18 -112t49.5 -87t74 -56.5t91.5 -20.5
q77 0 133 43.5t80 115.5h100q-11 -56 -39 -102.5t-68.5 -78.5t-93 -50t-112.5 -18z" />
    <glyph glyph-name="D" unicode="D" horiz-adv-x="723" 
d="M82 0v700h230q84 0 152.5 -21.5t116 -64t73.5 -108t26 -152.5q0 -84 -26 -150t-74 -111t-116.5 -69t-152.5 -24h-229zM182 86h119q138 0 206 72.5t68 195.5t-68 191.5t-206 68.5h-119v-528z" />
    <glyph glyph-name="E" unicode="E" horiz-adv-x="613" 
d="M573 86v-86h-491v700h484v-86h-384v-207h356v-87h-356v-234h391z" />
    <glyph glyph-name="F" unicode="F" horiz-adv-x="550" 
d="M498 309h-316v-309h-100v700h446v-86h-346v-218h316v-87z" />
    <glyph glyph-name="G" unicode="G" horiz-adv-x="780" 
d="M382 290v84h322v-374h-89l-1 121q-28 -57 -89.5 -94t-148.5 -37q-69 0 -130 26t-106 73.5t-71 115t-26 149.5t27.5 149.5t74.5 114t111.5 72t136.5 25.5q57 0 109.5 -15t93.5 -43.5t69 -69t36 -91.5h-99q-16 59 -73 95.5t-136 36.5q-54 0 -100 -19t-78.5 -54.5t-51 -86.5
t-18.5 -114t18 -114t50 -87.5t77 -56t99 -19.5q41 0 81.5 14t71.5 40.5t50 66.5t19 91v1h-229z" />
    <glyph glyph-name="H" unicode="H" horiz-adv-x="746" 
d="M82 0v700h100v-293h382v293h101v-700h-101v320h-382v-320h-100z" />
    <glyph glyph-name="I" unicode="I" horiz-adv-x="264" 
d="M82 0v700h100v-700h-100z" />
    <glyph glyph-name="J" unicode="J" horiz-adv-x="535" 
d="M240 -12q-92 0 -155 52.5t-74 158.5h100q7 -54 39.5 -88t89.5 -34q53 0 87 35t34 97v491h101v-493q0 -55 -18 -96t-48.5 -68.5t-71 -41t-84.5 -13.5z" />
    <glyph glyph-name="K" unicode="K" horiz-adv-x="674" 
d="M544 0l-221 365l-141 -142v-223h-100v700h100v-352l345 352h129l-261 -262l269 -438h-120z" />
    <glyph glyph-name="L" unicode="L" horiz-adv-x="535" 
d="M82 0v700h100v-614h340v-86h-440z" />
    <glyph glyph-name="M" unicode="M" horiz-adv-x="910" 
d="M729 0v630l-226 -631h-99l-226 634v-633h-96v700h167l207 -584l207 584h165v-700h-99z" />
    <glyph glyph-name="N" unicode="N" horiz-adv-x="751" 
d="M670 700v-702h-125l-365 579v-577h-98v700h129l361 -574v574h98z" />
    <glyph glyph-name="O" unicode="O" horiz-adv-x="783" 
d="M391 -12q-72 0 -135.5 26t-110 73t-74 115t-27.5 152t28 151t75.5 113.5t110.5 71.5t133 25q71 0 134.5 -24.5t110.5 -71t75 -114t28 -151.5q0 -83 -27.5 -151t-74.5 -115.5t-111 -73.5t-135 -26zM391 78q51 0 96 20t77.5 56t51 87t18.5 113t-19 112.5t-51.5 85.5t-77 54
t-95.5 19t-95.5 -19t-76.5 -54t-51 -85.5t-19 -112.5t18.5 -113t51 -87t77 -56t95.5 -20z" />
    <glyph glyph-name="P" unicode="P" horiz-adv-x="608" 
d="M82 0v700h253q125 0 188.5 -58.5t63.5 -157.5q0 -101 -65 -160t-189 -59h-151v-265h-100zM182 352h146q79 0 117.5 35.5t38.5 95.5q0 58 -39 94.5t-117 36.5h-146v-262z" />
    <glyph glyph-name="Q" unicode="Q" horiz-adv-x="783" 
d="M708 -1l-66 -61l-83 91q-37 -20 -79.5 -30.5t-88.5 -10.5q-72 0 -135.5 26t-110 73t-74 115t-27.5 152t28 151t75.5 113.5t110.5 71.5t133 25q71 0 134.5 -24.5t110.5 -71t75 -114t28 -151.5q0 -85 -29 -154t-78 -117zM149 354q0 -62 18.5 -113t51 -87t77 -56t95.5 -20
q28 0 54 6t49 17l-115 126l67 61l120 -132q31 36 49.5 86.5t18.5 111.5q0 62 -19 112.5t-51.5 85.5t-77 54t-95.5 19t-95.5 -19t-76.5 -54t-51 -85.5t-19 -112.5z" />
    <glyph glyph-name="R" unicode="R" horiz-adv-x="664" 
d="M348 294h-167v-294h-99v700h290q61 0 105.5 -15t73 -41.5t42.5 -62t14 -75.5q0 -71 -37.5 -114t-90.5 -56v-2q38 -9 64 -39t42 -103l45 -192h-103l-43 185q-14 63 -44.5 86t-91.5 23zM181 614v-233h178q75 0 110.5 34.5t35.5 85.5q0 49 -35 81t-107 32h-182z" />
    <glyph glyph-name="S" unicode="S" horiz-adv-x="618" 
d="M310 -10q-56 0 -105 14.5t-85.5 43t-59.5 71.5t-27 100h97q7 -72 57.5 -108t122.5 -36q33 0 63 7.5t53 22t36.5 35.5t13.5 47q0 49 -38.5 75.5t-107.5 42.5l-75 18q-98 23 -146.5 67.5t-48.5 119.5q0 45 20 83t54 65t80.5 42t97.5 15q107 0 178 -54.5t79 -154.5h-96
q-7 57 -50 90.5t-111 33.5q-30 0 -58 -8.5t-49 -23.5t-33.5 -35.5t-12.5 -44.5q0 -42 30.5 -65t91.5 -38l86 -20q95 -23 153 -68.5t58 -129.5q0 -52 -23 -91t-60.5 -65t-86 -38.5t-98.5 -12.5z" />
    <glyph glyph-name="T" unicode="T" horiz-adv-x="598" 
d="M249 0v614h-240v86h580v-86h-240v-614h-100z" />
    <glyph glyph-name="U" unicode="U" horiz-adv-x="698" 
d="M348 -12q-61 0 -112.5 19t-88.5 56t-57.5 90.5t-20.5 122.5v424h100v-419q0 -96 50.5 -149.5t130.5 -53.5t129.5 53t49.5 149v420h100v-423q0 -69 -21 -123t-58 -90.5t-88.5 -56t-113.5 -19.5z" />
    <glyph glyph-name="V" unicode="V" horiz-adv-x="650" 
d="M643 700l-263 -702h-110l-263 702h108l213 -581l213 581h102z" />
    <glyph glyph-name="W" unicode="W" horiz-adv-x="960" 
d="M637 -2l-156 569l-158 -569h-103l-206 702h99l163 -570l156 572h100l157 -572l163 570h94l-206 -702h-103z" />
    <glyph glyph-name="X" unicode="X" horiz-adv-x="654" 
d="M526 0l-201 284l-204 -284h-114l259 351l-249 349h121l191 -272l193 272h115l-247 -341l257 -359h-121z" />
    <glyph glyph-name="Y" unicode="Y" horiz-adv-x="602" 
d="M607 700l-254 -437v-263h-100v264l-254 436h116l192 -336l191 336h109z" />
    <glyph glyph-name="Z" unicode="Z" horiz-adv-x="629" 
d="M593 86v-86h-555v90l429 524h-417v86h536v-89l-429 -525h436z" />
    <glyph glyph-name="bracketleft" unicode="[" horiz-adv-x="340" 
d="M87 -131v866h226v-75h-132v-715h132v-76h-226z" />
    <glyph glyph-name="backslash" unicode="\" horiz-adv-x="460" 
d="M379 -66l-388 775h96l389 -775h-97z" />
    <glyph glyph-name="bracketright" unicode="]" horiz-adv-x="340" 
d="M260 735v-866h-226v75h132v715h-132v76h226z" />
    <glyph glyph-name="asciicircum" unicode="^" horiz-adv-x="498" 
d="M365 440l-117 175l-116 -175h-95l175 260h75l174 -260h-96z" />
    <glyph glyph-name="underscore" unicode="_" horiz-adv-x="432" 
d="M8 -94v60h416v-60h-416z" />
    <glyph glyph-name="grave" unicode="`" horiz-adv-x="208" 
d="M86 588l-71 128h101l56 -128h-86z" />
    <glyph glyph-name="a" unicode="a" horiz-adv-x="553" 
d="M401 0l-2 77q-24 -39 -67 -63t-105 -24q-35 0 -69 10t-60 29t-42 48.5t-16 68.5q0 43 19 72t51.5 48t77.5 31t96 21l109 20v3q0 60 -32 86.5t-87 26.5q-53 0 -86.5 -25t-41.5 -71h-92q5 40 24 72t48.5 54t68 34t81.5 12q44 0 83 -10.5t66.5 -33.5t43.5 -60.5t16 -90.5
l-1 -227q0 -12 1 -35t3 -73h-87zM134 150q0 -40 32 -61.5t78 -21.5q63 0 106 38.5t43 112.5v45q-137 -21 -198 -42.5t-61 -70.5z" />
    <glyph glyph-name="b" unicode="b" horiz-adv-x="619" 
d="M578 263q0 -66 -18.5 -117.5t-50.5 -86t-75.5 -52.5t-92.5 -18q-62 0 -107 27t-66 67v-83h-94v720h94v-279q21 37 65.5 63t108.5 26q49 0 92 -17.5t75 -51t50.5 -83.5t18.5 -115zM324 69q66 0 111.5 51.5t45.5 142.5q0 90 -45.5 138.5t-111.5 48.5t-112 -48.5t-46 -138.5
q0 -46 13 -82t35 -61t50.5 -38t59.5 -13z" />
    <glyph glyph-name="c" unicode="c" horiz-adv-x="562" 
d="M294 -11q-53 0 -100 20t-81 55.5t-54 86.5t-20 112q0 59 20.5 108.5t55 84.5t81.5 54.5t99 19.5q44 0 84.5 -13.5t72 -38.5t52 -60t25.5 -77h-93q-12 49 -51.5 77.5t-90.5 28.5q-69 0 -114 -51.5t-45 -132.5t45.5 -136t114.5 -55q49 0 87 28.5t54 81.5h93q-7 -45 -29 -81
t-54 -60.5t-71 -38t-81 -13.5z" />
    <glyph glyph-name="d" unicode="d" horiz-adv-x="619" 
d="M451 0v84q-21 -40 -66 -67.5t-108 -27.5q-49 0 -92.5 18t-75.5 52.5t-50.5 86t-18.5 117.5q0 63 19 113t51.5 84t75.5 52t90 18q63 0 108.5 -26.5t66.5 -63.5v280h94v-720h-94zM295 69q31 0 59.5 13t50 38t34.5 61t13 82q0 90 -46.5 138.5t-110.5 48.5q-68 0 -112.5 -50
t-44.5 -137q0 -90 45 -142t112 -52z" />
    <glyph glyph-name="e" unicode="e" horiz-adv-x="579" 
d="M537 148q-12 -40 -36 -70t-56.5 -50t-70.5 -29.5t-76 -9.5q-53 0 -100.5 19t-83 54.5t-56 86.5t-20.5 114q0 62 21 111.5t56 84t81 53t95 18.5t94.5 -17.5t80 -51.5t55 -86t20.5 -120v-21h-407q6 -74 53 -119.5t113 -45.5q46 0 84.5 19t58.5 60h94zM290 451
q-60 0 -104.5 -37.5t-51.5 -102.5h309q-4 63 -47.5 101.5t-105.5 38.5z" />
    <glyph glyph-name="f" unicode="f" horiz-adv-x="348" 
d="M335 442h-134v-442h-92v442h-95v76h95v61q0 84 39.5 113.5t113.5 29.5q20 0 37.5 -0.5t35.5 -1.5v-77q-13 1 -28.5 1.5t-30.5 0.5q-37 0 -56 -13.5t-19 -56.5v-57h134v-76z" />
    <glyph glyph-name="g" unicode="g" horiz-adv-x="608" 
d="M534 15q0 -53 -19 -93.5t-51 -67.5t-75 -40.5t-91 -13.5q-103 0 -167 47.5t-77 124.5h93q11 -45 50.5 -69.5t100.5 -24.5q62 0 102.5 33.5t40.5 102.5v92q-21 -40 -64.5 -66t-103.5 -26q-48 0 -90.5 17.5t-74 50.5t-50 81.5t-18.5 110.5q0 60 19 108t50.5 80.5t74 50
t89.5 17.5q57 0 101.5 -26t66.5 -66v80h93v-503zM290 94q30 0 58 12.5t48.5 35.5t33 56.5t12.5 75.5q0 43 -12.5 76t-33.5 55t-48.5 33.5t-57.5 11.5q-64 0 -108 -48t-44 -128q0 -83 44.5 -131.5t107.5 -48.5z" />
    <glyph glyph-name="h" unicode="h" horiz-adv-x="581" 
d="M168 273v-273h-94v720h94v-271v-2v-2q24 39 64.5 62t97.5 23q86 0 135 -52.5t49 -152.5v-325h-94v305q0 74 -31.5 108.5t-87.5 34.5q-51 0 -92 -43.5t-41 -131.5z" />
    <glyph glyph-name="i" unicode="i" 
d="M73 611v109h96v-109h-96zM74 0v518h94v-518h-94z" />
    <glyph glyph-name="j" unicode="j" 
d="M73 611v109h96v-109h-96zM74 518h94v-573q0 -78 -34 -106.5t-93 -28.5q-21 0 -37 0.5t-40 1.5v77q14 0 27.5 -0.5t25.5 -0.5q33 0 45 13.5t12 52.5v564z" />
    <glyph glyph-name="k" unicode="k" horiz-adv-x="545" 
d="M424 0l-153 270l-104 -102v-168h-93v720h93v-437l234 235h123l-185 -181l193 -337h-108z" />
    <glyph glyph-name="l" unicode="l" 
d="M74 0v720h94v-720h-94z" />
    <glyph glyph-name="m" unicode="m" horiz-adv-x="899" 
d="M168 281v-281h-94v518h92v-72q22 40 62.5 62t94.5 22q47 0 90 -22.5t66 -72.5q25 46 69 70.5t101 24.5q37 0 70 -10.5t58 -34.5t39.5 -61.5t14.5 -91.5v-332h-94v312q0 70 -32 103t-81 33t-86.5 -41.5t-37.5 -124.5v-282h-94v312q0 70 -32 103t-81 33t-87 -41.5
t-38 -125.5z" />
    <glyph glyph-name="n" unicode="n" horiz-adv-x="581" 
d="M168 273v-273h-94v518h92v-76q24 40 65.5 64t98.5 24q86 0 135 -52.5t49 -152.5v-325h-94v305q0 74 -31.5 108.5t-87.5 34.5q-51 0 -92 -43.5t-41 -131.5z" />
    <glyph glyph-name="o" unicode="o" horiz-adv-x="603" 
d="M301 -11q-54 0 -102 19.5t-83.5 55t-56 86.5t-20.5 113q0 60 20.5 109.5t56 84t83.5 54t102 19.5q55 0 103.5 -19t83.5 -53.5t55.5 -84t20.5 -110.5t-21 -112t-56.5 -86.5t-83.5 -55.5t-102 -20zM301 72q72 0 119 53.5t47 137.5q0 81 -47 132.5t-119 51.5t-119 -51.5
t-47 -132.5q0 -84 47 -137.5t119 -53.5z" />
    <glyph glyph-name="p" unicode="p" horiz-adv-x="619" 
d="M341 -11q-60 0 -105 25.5t-68 63.5v-267h-94v707h94v-82q21 40 65.5 67t108.5 27q49 0 92 -17.5t75 -51.5t50.5 -84t18.5 -114q0 -66 -18.5 -117.5t-50.5 -86t-75.5 -52.5t-92.5 -18zM324 69q66 0 111.5 50.5t45.5 143.5q0 90 -45.5 138.5t-111.5 48.5q-31 0 -60 -12.5
t-50.5 -36t-34.5 -58.5t-13 -80q0 -47 13 -83.5t35 -61t50.5 -37t59.5 -12.5z" />
    <glyph glyph-name="q" unicode="q" horiz-adv-x="619" 
d="M544 518v-707h-93v274q-22 -41 -66.5 -68.5t-107.5 -27.5q-49 0 -92.5 18t-75.5 52.5t-50.5 86t-18.5 117.5q0 63 19 113t51.5 83.5t75.5 51.5t90 18q66 0 110 -28t65 -68v85h93zM295 69q31 0 60 13t50 38t34 61t13 82q0 45 -13 80t-34.5 58.5t-50 36t-59.5 12.5
q-67 0 -112 -50t-45 -137q0 -90 45 -142t112 -52z" />
    <glyph glyph-name="r" unicode="r" horiz-adv-x="361" 
d="M168 294v-294h-94v518h92v-95q7 16 18 31.5t28 31.5q23 19 50 27t55 8q9 0 17.5 -1t14.5 -2v-93q-13 1 -23.5 2t-21.5 1q-21 0 -44.5 -5.5t-44 -20t-34 -41t-13.5 -67.5z" />
    <glyph glyph-name="s" unicode="s" horiz-adv-x="503" 
d="M253 -12q-43 0 -81.5 11t-68 33t-49 55t-23.5 77h93q6 -49 41.5 -73.5t87.5 -24.5q22 0 44 4.5t39 14t27.5 24t10.5 34.5q0 31 -27.5 48t-84.5 28l-55 10q-73 13 -115.5 47.5t-42.5 93.5q0 37 16 67t43.5 50.5t64.5 32t78 11.5q39 0 75 -10.5t64 -31t45.5 -50.5t20.5 -68
h-92q-4 40 -36 61.5t-77 21.5q-47 0 -79 -20.5t-32 -54.5q0 -29 23.5 -44.5t71.5 -23.5l57 -10q81 -15 128 -51.5t47 -101.5q0 -41 -18 -71t-47.5 -50t-68.5 -29.5t-80 -9.5z" />
    <glyph glyph-name="t" unicode="t" horiz-adv-x="356" 
d="M331 1q-26 -1 -43.5 -1.5t-45.5 -0.5q-61 0 -98 25.5t-37 106.5v311h-91v76h91v108l93 42v-150h131v-76h-131v-297q0 -43 15.5 -56t49.5 -13h66v-75z" />
    <glyph glyph-name="u" unicode="u" horiz-adv-x="574" 
d="M409 0v77q-24 -42 -64.5 -64.5t-98.5 -22.5q-79 0 -129 51t-50 150v327h94v-310q0 -69 32 -103t83 -34t90.5 40.5t39.5 128.5v278h94v-518h-91z" />
    <glyph glyph-name="v" unicode="v" horiz-adv-x="498" 
d="M494 518l-196 -520h-98l-197 520h98l150 -413l150 413h93z" />
    <glyph glyph-name="w" unicode="w" horiz-adv-x="763" 
d="M497 -2l-116 397l-115 -397h-92l-165 520h95l119 -402l118 404h86l117 -404l120 402h91l-166 -520h-92z" />
    <glyph glyph-name="x" unicode="x" horiz-adv-x="509" 
d="M390 0l-137 201l-139 -201h-106l189 262l-185 256h110l135 -193l134 193h105l-183 -254l187 -264h-110z" />
    <glyph glyph-name="y" unicode="y" horiz-adv-x="494" 
d="M491 518l-283 -708h-95l96 232l-206 476h101l151 -366l141 366h95z" />
    <glyph glyph-name="z" unicode="z" horiz-adv-x="490" 
d="M455 80v-80h-421v84l309 354h-301v80h410v-84l-308 -354h311z" />
    <glyph glyph-name="braceleft" unicode="{" horiz-adv-x="335" 
d="M309 -132q-53 0 -92 5.5t-63.5 22.5t-36 49.5t-11.5 85.5v115q0 69 -14 91.5t-53 22.5h-12v76h12q39 0 53 22.5t14 91.5v114q0 53 11.5 85.5t36 50t63.5 23t92 5.5v-76q-71 -1 -91 -20t-20 -77v-99q0 -67 -15 -106t-60 -50v-2q45 -11 60 -50t15 -105v-102q0 -58 20 -77.5
t91 -20.5v-75z" />
    <glyph glyph-name="bar" unicode="|" horiz-adv-x="257" 
d="M85 -100v800h87v-800h-87z" />
    <glyph glyph-name="braceright" unicode="}" horiz-adv-x="335" 
d="M229 31q0 -53 -11.5 -85.5t-36 -49.5t-63.5 -22.5t-92 -5.5v75q71 1 91 20.5t20 77.5v102q0 66 15 105t60 50v2q-45 11 -60 50t-15 106v99q0 58 -20 77t-91 20v76q53 0 92 -5.5t63.5 -23t36 -50t11.5 -85.5v-114q0 -69 14 -91.5t53 -22.5h12v-76h-12q-39 0 -53 -22.5
t-14 -91.5v-115z" />
    <glyph glyph-name="asciitilde" unicode="~" horiz-adv-x="538" 
d="M368 299q-34 0 -60.5 13t-47.5 29l-42 30t-46 15q-28 0 -47.5 -18t-37.5 -51l-71 36q34 65 74.5 90t84.5 25q34 0 60.5 -12.5t47.5 -28.5q20 -16 41.5 -31t46.5 -15q28 0 47.5 18t37.5 51l70 -36q-33 -65 -73.5 -90t-84.5 -25z" />
    <glyph glyph-name="exclamdown" unicode="&#xa1;" horiz-adv-x="272" 
d="M191 519v-124h-109v124h109zM165 295v-10l21 -270v-205h-100v205l22 270v10h57z" />
    <glyph glyph-name="cent" unicode="&#xa2;" horiz-adv-x="588" 
d="M536 182q-13 -81 -70.5 -131t-130.5 -60v-81h-69v81q-47 6 -87.5 28.5t-70 57.5t-46 82.5t-16.5 103.5q0 54 17 100t46.5 80.5t70 56.5t86.5 28v86h69v-86q78 -10 135 -60.5t66 -126.5h-93q-10 41 -39 67.5t-69 35.5v-369q38 8 66.5 35.5t41.5 71.5h93zM142 263
q0 -70 34.5 -121.5t89.5 -65.5v367q-55 -13 -89.5 -61.5t-34.5 -118.5z" />
    <glyph glyph-name="sterling" unicode="&#xa3;" horiz-adv-x="634" 
d="M579 82v-82h-525v69q43 16 62.5 47.5t19.5 76.5v131h-85v80h85v76q0 106 61.5 162.5t159.5 56.5q40 0 76.5 -12.5t65.5 -36.5t48 -60t23 -82h-94q-4 43 -35 76t-85 33q-61 0 -92 -36.5t-31 -94.5v-82h200v-80h-200v-101q0 -60 -14.5 -92.5t-39.5 -49.5l1 -3q19 2 38 3
t43 1h318z" />
    <glyph glyph-name="yen" unicode="&#xa5;" horiz-adv-x="632" 
d="M550 118h-180v-118h-100v118h-185v75h185v52h-185v76h152l-221 379h116l192 -336l191 336h109l-220 -379h146v-76h-180v-52h180v-75z" />
    <glyph glyph-name="brokenbar" unicode="&#xa6;" horiz-adv-x="257" 
d="M85 380v320h87v-320h-87zM85 -100v324h87v-324h-87z" />
    <glyph glyph-name="section" unicode="&#xa7;" horiz-adv-x="548" 
d="M451 25q0 -34 -15 -62t-40.5 -48t-59 -31.5t-70.5 -11.5q-72 0 -123.5 42.5t-58.5 119.5h92q4 -40 28.5 -64t61.5 -24q40 0 67 23.5t27 55.5q0 31 -25 50.5t-57 30.5l-75 26q-67 23 -108 59.5t-41 99.5q0 55 34 89.5t72 53.5q-27 19 -47.5 48.5t-20.5 69.5q0 34 15 62
t40.5 48t59 31.5t70.5 11.5q72 0 123.5 -42.5t58.5 -119.5h-92q-4 40 -28.5 63.5t-61.5 23.5q-40 0 -67 -23t-27 -55t25 -51t57 -30l75 -26q67 -23 108.5 -59.5t41.5 -100.5q0 -27 -9.5 -49.5t-25 -39.5t-34.5 -30.5t-38 -22.5q27 -19 47.5 -48.5t20.5 -69.5zM257 192
l46 -14q17 6 35 15.5t32.5 22t23.5 29t9 35.5q0 40 -31.5 64t-85.5 41l-46 14q-17 -6 -35 -15.5t-32.5 -22t-23.5 -29t-9 -35.5q0 -40 31.5 -64t85.5 -41z" />
    <glyph glyph-name="dieresis" unicode="&#xa8;" horiz-adv-x="374" 
d="M235 612v104h94v-104h-94zM45 612v104h94v-104h-94z" />
    <glyph glyph-name="copyright" unicode="&#xa9;" horiz-adv-x="823" 
d="M411 -33q-79 0 -149 30.5t-122 82.5t-82 123t-30 150q0 80 30 150t82 121.5t122 81.5t149 30t149.5 -30t122 -81.5t82 -121.5t30.5 -150q0 -79 -30.5 -150t-82 -123t-122 -82.5t-149.5 -30.5zM411 42q64 0 119.5 25t96.5 67t64.5 99t23.5 120q0 61 -23.5 117t-64.5 98
t-96.5 67.5t-119.5 25.5q-63 0 -119 -25.5t-96.5 -67.5t-64 -98t-23.5 -117q0 -63 23.5 -120t64 -99t96.5 -67t119 -25zM415 150q-42 0 -78 16t-62 43.5t-41 65.5t-15 82t15 81.5t41.5 64t62.5 41t77 14.5q68 0 120.5 -40.5t61.5 -108.5h-79q-9 32 -35.5 54.5t-67.5 22.5
q-50 0 -82 -36t-32 -93q0 -56 34 -94.5t80 -38.5q43 0 68 22t35 53h79q-13 -68 -64.5 -108.5t-117.5 -40.5z" />
    <glyph glyph-name="ordfeminine" unicode="&#xaa;" horiz-adv-x="378" 
d="M312 310l-1 58q-19 -30 -51.5 -48t-78.5 -18q-26 0 -51.5 7.5t-45 22.5t-31.5 37.5t-12 51.5q0 63 51.5 89t130.5 40l82 15v2q0 43 -22.5 61.5t-62.5 18.5q-38 0 -62 -17.5t-29 -51.5h-78q7 61 55 96t116 35q69 0 115.5 -33.5t45.5 -114.5v-169q0 -9 1 -27t2 -55h-74z
M120 425q0 -29 23 -44.5t56 -15.5q44 0 75 27.5t31 79.5v33q-97 -15 -141 -30.5t-44 -49.5z" />
    <glyph glyph-name="guillemotleft" unicode="&#xab;" horiz-adv-x="499" 
d="M451 454l-113 -186l113 -184h-87l-128 182v2l128 186h87zM255 454l-113 -186l113 -184h-87l-128 182v2l128 186h87z" />
    <glyph glyph-name="registered" unicode="&#xae;" horiz-adv-x="478" 
d="M239 318q-42 0 -78.5 16t-64 43t-43 64t-15.5 78q0 42 16 79t43 63.5t64 42t78 15.5t77.5 -15t63.5 -41.5t43 -63.5t16 -80q0 -41 -16 -78t-43 -64t-63.5 -43t-77.5 -16zM239 359q32 0 60.5 13t49.5 35t33.5 51t12.5 61q0 31 -12.5 60t-33.5 51t-49.5 35t-60.5 13
t-61 -13t-50 -35t-33 -51t-12 -60q0 -32 12.5 -61t33.5 -51t49.5 -35t60.5 -13zM236 500h-28v-81h-46v203h98q30 0 48 -15.5t18 -40.5q0 -22 -13.5 -35.5t-32.5 -15.5v-1q15 -4 23.5 -12t13.5 -29l14 -54h-47l-12 49q-4 17 -12 24.5t-24 7.5zM208 588v-51h38q16 0 25 6.5
t9 19.5t-8 19t-24 6h-40z" />
    <glyph glyph-name="macron" unicode="&#xaf;" horiz-adv-x="339" 
d="M43 623v65h253v-65h-253z" />
    <glyph glyph-name="degree" unicode="&#xb0;" horiz-adv-x="332" 
d="M166 437q-56 0 -97.5 39.5t-41.5 98.5q0 56 42 96.5t97 40.5q56 0 98 -39.5t42 -97.5t-42.5 -98t-97.5 -40zM166 501q31 0 51.5 21.5t20.5 52.5q0 30 -20.5 51.5t-51.5 21.5q-30 0 -51 -21.5t-21 -51.5q0 -31 21.5 -52.5t50.5 -21.5z" />
    <glyph glyph-name="plusminus" unicode="&#xb1;" horiz-adv-x="628" 
d="M562 357h-207v-182h-82v182h-207v76h207v178h82v-178h207v-76zM66 42v76h496v-76h-496z" />
    <glyph glyph-name="twosuperior" unicode="&#xb2;" horiz-adv-x="335" 
d="M305 385v-60h-290l3 22q6 41 34 73t82 64q51 31 73 59t22 64q0 32 -16 53t-49 21q-34 0 -51.5 -24.5t-18.5 -64.5h-69q4 51 40.5 84t98.5 33q63 0 103 -30t40 -80q0 -51 -33.5 -81.5t-105.5 -63.5q-46 -21 -68 -37.5t-29 -31.5h234z" />
    <glyph glyph-name="threesuperior" unicode="&#xb3;" horiz-adv-x="345" 
d="M166 319q-65 0 -104 28.5t-43 78.5h69q4 -34 21 -56.5t57 -22.5q37 0 55 21t18 58q0 39 -21.5 58.5t-58.5 19.5q-10 0 -18.5 -0.5t-18.5 -1.5v33q10 -1 18.5 -1.5t18.5 -0.5q34 0 55 19t21 57q0 34 -17.5 53t-50.5 19q-36 0 -53.5 -23t-20.5 -55h-69q6 48 43.5 77
t99.5 29q59 0 102.5 -25.5t43.5 -73.5q0 -40 -28 -62t-70 -28v-1q44 -5 73.5 -29t29.5 -65q0 -51 -44.5 -78.5t-107.5 -27.5z" />
    <glyph glyph-name="acute" unicode="&#xb4;" horiz-adv-x="208" 
d="M36 588l55 128h101l-70 -128h-86z" />
    <glyph glyph-name="mu" unicode="&#xb5;" horiz-adv-x="586" 
d="M75 518h94v-310q0 -69 32 -103t83 -34t90.5 40.5t39.5 128.5v278h94v-518h-91v77q-24 -42 -64.5 -64.5t-98.5 -22.5q-24 0 -45 4.5t-40 13.5v-198h-94v708z" />
    <glyph glyph-name="paragraph" unicode="&#xb6;" horiz-adv-x="573" 
d="M43 541q0 76 48 117.5t119 41.5h316v-70h-86v-630h-79v630h-67v-630h-78v379h-6q-71 0 -119 43.5t-48 118.5z" />
    <glyph glyph-name="periodcentered" unicode="&#xb7;" horiz-adv-x="260" 
d="M71 237v124h109v-124h-109z" />
    <glyph glyph-name="cedilla" unicode="&#xb8;" horiz-adv-x="228" 
d="M98 -189q-19 0 -38 3.5t-32 7.5v50q14 -4 33 -7.5t32 -3.5q18 0 32 6.5t14 23.5q0 14 -13.5 20.5t-31.5 6.5q-10 0 -22.5 -2.5t-23.5 -6.5h-7l33 112h61l-24 -62q3 1 9 1.5t12 0.5q21 0 45 -14t24 -53q0 -40 -28 -61.5t-75 -21.5z" />
    <glyph glyph-name="onesuperior" unicode="&#xb9;" horiz-adv-x="229" 
d="M180 700v-375h-73v325l-86 -56l-1 34l104 72h56z" />
    <glyph glyph-name="ordmasculine" unicode="&#xba;" horiz-adv-x="354" 
d="M240 302q-42 0 -78.5 14.5t-64 41t-43 65t-15.5 85.5q0 45 16 82.5t43 63.5t64 40.5t78 14.5q42 0 78.5 -14t64 -40t43 -63.5t15.5 -83.5t-16 -84.5t-43 -65t-64 -41.5t-78 -15zM240 371q51 0 84.5 38.5t33.5 98.5q0 58 -33.5 95.5t-84.5 37.5q-52 0 -85.5 -37.5
t-33.5 -95.5q0 -60 34 -98.5t85 -38.5z" />
    <glyph glyph-name="guillemotright" unicode="&#xbb;" horiz-adv-x="499" 
d="M466 270l-128 -186h-87l113 186l-113 184h87l128 -182v-2zM268 270l-128 -186h-87l113 186l-113 184h87l128 -182v-2z" />
    <glyph glyph-name="onequarter" unicode="&#xbc;" horiz-adv-x="736" 
d="M691 101h-55v-101h-71v101h-178v41l178 233h71v-223h55v-51zM434 152h131v171zM69 0l491 700h95l-491 -700h-95zM209 700v-375h-73v325l-86 -56l-1 34l104 72h56z" />
    <glyph glyph-name="onehalf" unicode="&#xbd;" horiz-adv-x="778" 
d="M725 60v-60h-290l3 22q6 41 34 73t82 64q51 31 73 59t22 64q0 32 -16 53t-49 21q-34 0 -51.5 -24.5t-18.5 -64.5h-69q4 51 40.5 84t98.5 33q63 0 103 -30t40 -80q0 -51 -33.5 -81.5t-105.5 -63.5q-46 -21 -68 -37.5t-29 -31.5h234zM69 0l491 700h95l-491 -700h-95z
M209 700v-375h-73v325l-86 -56l-1 34l104 72h56z" />
    <glyph glyph-name="threequarters" unicode="&#xbe;" horiz-adv-x="835" 
d="M194 319q-65 0 -104 28.5t-43 78.5h69q4 -34 21 -56.5t57 -22.5q37 0 55 21t18 58q0 39 -21.5 58.5t-58.5 19.5q-10 0 -18.5 -0.5t-18.5 -1.5v33q10 -1 18.5 -1.5t18.5 -0.5q34 0 55 19t21 57q0 34 -17.5 53t-50.5 19q-36 0 -53.5 -23t-20.5 -55h-69q6 48 43.5 77
t99.5 29q59 0 102.5 -25.5t43.5 -73.5q0 -40 -28 -62t-70 -28v-1q44 -5 73.5 -29t29.5 -65q0 -51 -44.5 -78.5t-107.5 -27.5zM790 101h-55v-101h-71v101h-178v41l178 233h71v-223h55v-51zM533 152h131v171zM168 0l491 700h95l-491 -700h-95z" />
    <glyph glyph-name="questiondown" unicode="&#xbf;" horiz-adv-x="565" 
d="M353 522v-113h-100v113h100zM345 309v-30q0 -22 -1.5 -37t-5.5 -28q-8 -23 -25.5 -43.5t-54.5 -42.5q-52 -31 -85.5 -60t-33.5 -75q0 -50 39 -83t98 -33q65 0 104 39t43 102h96q-4 -51 -24.5 -91.5t-52.5 -69t-75 -43.5t-92 -15q-46 0 -88.5 12.5t-75 37t-51.5 60.5
t-19 83q0 66 36 107t105 76q50 25 64 48t14 60v26h85z" />
    <glyph glyph-name="Agrave" unicode="&#xc0;" horiz-adv-x="688" 
d="M575 0l-72 183h-323l-72 -183h-101l284 702h107l283 -702h-106zM214 270h255l-127 326zM300 758l-71 128h101l56 -128h-86z" />
    <glyph glyph-name="Aacute" unicode="&#xc1;" horiz-adv-x="688" 
d="M575 0l-72 183h-323l-72 -183h-101l284 702h107l283 -702h-106zM214 270h255l-127 326zM316 758l55 128h101l-70 -128h-86z" />
    <glyph glyph-name="Acircumflex" unicode="&#xc2;" horiz-adv-x="688" 
d="M575 0l-72 183h-323l-72 -183h-101l284 702h107l283 -702h-106zM214 270h255l-127 326zM419 758l-73 76l-71 -76h-86l114 128h89l114 -128h-87z" />
    <glyph glyph-name="Atilde" unicode="&#xc3;" horiz-adv-x="688" 
d="M575 0l-72 183h-323l-72 -183h-101l284 702h107l283 -702h-106zM214 270h255l-127 326zM410 760q-23 0 -40 8t-36 21q-14 10 -27 17.5t-26 7.5q-15 0 -28 -10.5t-25 -35.5l-56 32q19 41 48 62t63 21q22 0 39.5 -7.5t36.5 -21.5q13 -10 26 -17.5t26 -7.5q16 0 29 10.5
t25 35.5l56 -31q-19 -42 -48 -63t-63 -21z" />
    <glyph glyph-name="Adieresis" unicode="&#xc4;" horiz-adv-x="688" 
d="M575 0l-72 183h-323l-72 -183h-101l284 702h107l283 -702h-106zM214 270h255l-127 326zM394 782v104h94v-104h-94zM204 782v104h94v-104h-94z" />
    <glyph glyph-name="Aring" unicode="&#xc5;" horiz-adv-x="688" 
d="M575 0l-72 183h-323l-72 -183h-101l284 702h107l283 -702h-106zM214 270h255l-127 326zM347 737q-33 0 -58.5 23.5t-25.5 56.5t25.5 57t58.5 24q34 0 58.5 -24t24.5 -57t-24.5 -56.5t-58.5 -23.5zM347 781q15 0 25 11t10 25q0 15 -10 26t-25 11q-14 0 -25 -11t-11 -26
q0 -14 11 -25t25 -11z" />
    <glyph glyph-name="AE" unicode="&#xc6;" horiz-adv-x="1005" 
d="M482 0v203h-248l-122 -203h-109l435 700h524v-86h-381v-207h353v-86h-353v-235h388v-86h-487zM286 289h196v326z" />
    <glyph glyph-name="Ccedilla" unicode="&#xc7;" horiz-adv-x="731" 
d="M382 -12q-68 0 -130 25.5t-108 73t-73 115.5t-27 152t28 151t74.5 113.5t108 71.5t127.5 25q59 0 112 -17t94 -48t69 -75.5t37 -100.5h-100q-18 72 -77 111.5t-135 39.5q-48 0 -90.5 -19t-74 -54.5t-50 -85.5t-18.5 -112q0 -61 18 -112t49.5 -87t74 -56.5t91.5 -20.5
q77 0 133 43.5t80 115.5h100q-11 -56 -39 -102.5t-68.5 -78.5t-93 -50t-112.5 -18zM382 -189q-19 0 -38 3.5t-32 7.5v50q14 -4 33 -7.5t32 -3.5q18 0 32 6.5t14 23.5q0 14 -13.5 20.5t-31.5 6.5q-10 0 -22.5 -2.5t-23.5 -6.5h-7l33 112h61l-24 -62q3 1 9 1.5t12 0.5
q21 0 45 -14t24 -53q0 -40 -28 -61.5t-75 -21.5z" />
    <glyph glyph-name="Egrave" unicode="&#xc8;" horiz-adv-x="613" 
d="M573 86v-86h-491v700h484v-86h-384v-207h356v-87h-356v-234h391zM280 758l-71 128h101l56 -128h-86z" />
    <glyph glyph-name="Eacute" unicode="&#xc9;" horiz-adv-x="613" 
d="M573 86v-86h-491v700h484v-86h-384v-207h356v-87h-356v-234h391zM297 758l55 128h101l-70 -128h-86z" />
    <glyph glyph-name="Ecircumflex" unicode="&#xca;" horiz-adv-x="613" 
d="M573 86v-86h-491v700h484v-86h-384v-207h356v-87h-356v-234h391zM400 758l-73 76l-71 -76h-86l114 128h89l114 -128h-87z" />
    <glyph glyph-name="Edieresis" unicode="&#xcb;" horiz-adv-x="613" 
d="M573 86v-86h-491v700h484v-86h-384v-207h356v-87h-356v-234h391zM375 782v104h94v-104h-94zM185 782v104h94v-104h-94z" />
    <glyph glyph-name="Igrave" unicode="&#xcc;" horiz-adv-x="264" 
d="M82 0v700h100v-700h-100zM85 758l-71 128h101l56 -128h-86z" />
    <glyph glyph-name="Iacute" unicode="&#xcd;" horiz-adv-x="264" 
d="M82 0v700h100v-700h-100zM102 758l55 128h101l-70 -128h-86z" />
    <glyph glyph-name="Icircumflex" unicode="&#xce;" horiz-adv-x="264" 
d="M82 0v700h100v-700h-100zM204 758l-73 76l-71 -76h-86l114 128h89l114 -128h-87z" />
    <glyph glyph-name="Idieresis" unicode="&#xcf;" horiz-adv-x="264" 
d="M82 0v700h100v-700h-100zM180 782v104h94v-104h-94zM-10 782v104h94v-104h-94z" />
    <glyph glyph-name="Eth" unicode="&#xd0;" horiz-adv-x="766" 
d="M710 354q0 -84 -26 -150t-74 -111t-116.5 -69t-152.5 -24h-229v325h-120v75h120v300h230q84 0 152.5 -21.5t116 -64t73.5 -108t26 -152.5zM212 86h119q138 0 206 72.5t68 195.5t-68 191.5t-206 68.5h-119v-214h152v-75h-152v-239z" />
    <glyph glyph-name="Ntilde" unicode="&#xd1;" horiz-adv-x="751" 
d="M670 700v-702h-125l-365 579v-577h-98v700h129l361 -574v574h98zM448 760q-23 0 -40 8t-36 21q-14 10 -27 17.5t-26 7.5q-15 0 -28 -10.5t-25 -35.5l-56 32q19 41 48 62t63 21q22 0 39.5 -7.5t36.5 -21.5q13 -10 26 -17.5t26 -7.5q16 0 29 10.5t25 35.5l56 -31
q-19 -42 -48 -63t-63 -21z" />
    <glyph glyph-name="Ograve" unicode="&#xd2;" horiz-adv-x="783" 
d="M391 -12q-72 0 -135.5 26t-110 73t-74 115t-27.5 152t28 151t75.5 113.5t110.5 71.5t133 25q71 0 134.5 -24.5t110.5 -71t75 -114t28 -151.5q0 -83 -27.5 -151t-74.5 -115.5t-111 -73.5t-135 -26zM391 78q51 0 96 20t77.5 56t51 87t18.5 113t-19 112.5t-51.5 85.5t-77 54
t-95.5 19t-95.5 -19t-76.5 -54t-51 -85.5t-19 -112.5t18.5 -113t51 -87t77 -56t95.5 -20zM344 758l-71 128h101l56 -128h-86z" />
    <glyph glyph-name="Oacute" unicode="&#xd3;" horiz-adv-x="783" 
d="M391 -12q-72 0 -135.5 26t-110 73t-74 115t-27.5 152t28 151t75.5 113.5t110.5 71.5t133 25q71 0 134.5 -24.5t110.5 -71t75 -114t28 -151.5q0 -83 -27.5 -151t-74.5 -115.5t-111 -73.5t-135 -26zM391 78q51 0 96 20t77.5 56t51 87t18.5 113t-19 112.5t-51.5 85.5t-77 54
t-95.5 19t-95.5 -19t-76.5 -54t-51 -85.5t-19 -112.5t18.5 -113t51 -87t77 -56t95.5 -20zM361 758l55 128h101l-70 -128h-86z" />
    <glyph glyph-name="Ocircumflex" unicode="&#xd4;" horiz-adv-x="783" 
d="M391 -12q-72 0 -135.5 26t-110 73t-74 115t-27.5 152t28 151t75.5 113.5t110.5 71.5t133 25q71 0 134.5 -24.5t110.5 -71t75 -114t28 -151.5q0 -83 -27.5 -151t-74.5 -115.5t-111 -73.5t-135 -26zM391 78q51 0 96 20t77.5 56t51 87t18.5 113t-19 112.5t-51.5 85.5t-77 54
t-95.5 19t-95.5 -19t-76.5 -54t-51 -85.5t-19 -112.5t18.5 -113t51 -87t77 -56t95.5 -20zM464 758l-73 76l-71 -76h-86l114 128h89l114 -128h-87z" />
    <glyph glyph-name="Otilde" unicode="&#xd5;" horiz-adv-x="783" 
d="M391 -12q-72 0 -135.5 26t-110 73t-74 115t-27.5 152t28 151t75.5 113.5t110.5 71.5t133 25q71 0 134.5 -24.5t110.5 -71t75 -114t28 -151.5q0 -83 -27.5 -151t-74.5 -115.5t-111 -73.5t-135 -26zM391 78q51 0 96 20t77.5 56t51 87t18.5 113t-19 112.5t-51.5 85.5t-77 54
t-95.5 19t-95.5 -19t-76.5 -54t-51 -85.5t-19 -112.5t18.5 -113t51 -87t77 -56t95.5 -20zM455 760q-23 0 -40 8t-36 21q-14 10 -27 17.5t-26 7.5q-15 0 -28 -10.5t-25 -35.5l-56 32q19 41 48 62t63 21q22 0 39.5 -7.5t36.5 -21.5q13 -10 26 -17.5t26 -7.5q16 0 29 10.5
t25 35.5l56 -31q-19 -42 -48 -63t-63 -21z" />
    <glyph glyph-name="Odieresis" unicode="&#xd6;" horiz-adv-x="783" 
d="M391 -12q-72 0 -135.5 26t-110 73t-74 115t-27.5 152t28 151t75.5 113.5t110.5 71.5t133 25q71 0 134.5 -24.5t110.5 -71t75 -114t28 -151.5q0 -83 -27.5 -151t-74.5 -115.5t-111 -73.5t-135 -26zM391 78q51 0 96 20t77.5 56t51 87t18.5 113t-19 112.5t-51.5 85.5t-77 54
t-95.5 19t-95.5 -19t-76.5 -54t-51 -85.5t-19 -112.5t18.5 -113t51 -87t77 -56t95.5 -20zM439 782v104h94v-104h-94zM249 782v104h94v-104h-94z" />
    <glyph glyph-name="multiply" unicode="&#xd7;" horiz-adv-x="544" 
d="M493 178l-59 -59l-160 160l-160 -160l-57 57l160 160l-160 159l58 59l161 -160l160 160l57 -56l-160 -160z" />
    <glyph glyph-name="Oslash" unicode="&#xd8;" horiz-adv-x="781" 
d="M391 -12q-44 0 -85 9.5t-78 28.5l-54 -79h-103l88 127q-53 48 -84 119t-31 161q0 84 28 151t75.5 113.5t110.5 71.5t133 25q43 0 83 -9t76 -26l47 73h104l-81 -119q54 -46 86.5 -117.5t32.5 -162.5q0 -83 -27.5 -151t-74.5 -115.5t-111 -73.5t-135 -26zM149 354
q0 -60 18 -110.5t49 -86.5l280 445q-24 11 -50.5 17t-54.5 6q-51 0 -95.5 -19t-76.5 -54t-51 -85.5t-19 -112.5zM634 354q0 63 -19 113.5t-53 85.5l-279 -449q24 -13 51.5 -19.5t56.5 -6.5q51 0 96 20t77.5 56t51 87t18.5 113z" />
    <glyph glyph-name="Ugrave" unicode="&#xd9;" horiz-adv-x="702" 
d="M348 -12q-61 0 -112.5 19t-88.5 56t-57.5 90.5t-20.5 122.5v424h100v-419q0 -96 50.5 -149.5t130.5 -53.5t129.5 53t49.5 149v420h100v-423q0 -69 -21 -123t-58 -90.5t-88.5 -56t-113.5 -19.5zM306 758l-71 128h101l56 -128h-86z" />
    <glyph glyph-name="Uacute" unicode="&#xda;" horiz-adv-x="702" 
d="M348 -12q-61 0 -112.5 19t-88.5 56t-57.5 90.5t-20.5 122.5v424h100v-419q0 -96 50.5 -149.5t130.5 -53.5t129.5 53t49.5 149v420h100v-423q0 -69 -21 -123t-58 -90.5t-88.5 -56t-113.5 -19.5zM323 758l55 128h101l-70 -128h-86z" />
    <glyph glyph-name="Ucircumflex" unicode="&#xdb;" horiz-adv-x="702" 
d="M348 -12q-61 0 -112.5 19t-88.5 56t-57.5 90.5t-20.5 122.5v424h100v-419q0 -96 50.5 -149.5t130.5 -53.5t129.5 53t49.5 149v420h100v-423q0 -69 -21 -123t-58 -90.5t-88.5 -56t-113.5 -19.5zM425 758l-73 76l-71 -76h-86l114 128h89l114 -128h-87z" />
    <glyph glyph-name="Udieresis" unicode="&#xdc;" horiz-adv-x="702" 
d="M348 -12q-61 0 -112.5 19t-88.5 56t-57.5 90.5t-20.5 122.5v424h100v-419q0 -96 50.5 -149.5t130.5 -53.5t129.5 53t49.5 149v420h100v-423q0 -69 -21 -123t-58 -90.5t-88.5 -56t-113.5 -19.5zM401 782v104h94v-104h-94zM211 782v104h94v-104h-94z" />
    <glyph glyph-name="Yacute" unicode="&#xdd;" horiz-adv-x="592" 
d="M607 700l-254 -437v-263h-100v264l-254 436h116l192 -336l191 336h109zM268 758l55 128h101l-70 -128h-86z" />
    <glyph glyph-name="Thorn" unicode="&#xde;" horiz-adv-x="603" 
d="M326 146h-144v-146h-100v700h100v-119h144q121 0 190.5 -53.5t69.5 -163.5q0 -113 -71 -165.5t-189 -52.5zM321 494h-139v-262h139q81 0 120.5 34.5t39.5 97.5q0 60 -39.5 95t-120.5 35z" />
    <glyph glyph-name="germandbls" unicode="&#xdf;" horiz-adv-x="609" 
d="M80 0v489q0 56 19 99t51 71.5t74 43t87 14.5q42 0 82.5 -11.5t71.5 -33t50 -54t19 -74.5q0 -39 -12 -67.5t-32.5 -48t-47.5 -30.5t-56 -14v-2q36 -2 69 -13.5t58 -33.5t40 -55.5t15 -78.5q0 -53 -21.5 -92t-55.5 -63.5t-76.5 -36.5t-85.5 -12q-22 0 -41.5 1.5t-38.5 4.5
v81q17 -3 35.5 -4.5t34.5 -1.5q67 0 111 32.5t44 95.5t-47.5 97t-130.5 34h-17v85h16q64 0 105 29t41 83q0 50 -38 76.5t-92 26.5q-57 0 -97 -38t-40 -111v-488h-94z" />
    <glyph glyph-name="agrave" unicode="&#xe0;" horiz-adv-x="553" 
d="M401 0l-2 77q-24 -39 -67 -63t-105 -24q-35 0 -69 10t-60 29t-42 48.5t-16 68.5q0 43 19 72t51.5 48t77.5 31t96 21l109 20v3q0 60 -32 86.5t-87 26.5q-53 0 -86.5 -25t-41.5 -71h-92q5 40 24 72t48.5 54t68 34t81.5 12q44 0 83 -10.5t66.5 -33.5t43.5 -60.5t16 -90.5
l-1 -227q0 -12 1 -35t3 -73h-87zM134 150q0 -40 32 -61.5t78 -21.5q63 0 106 38.5t43 112.5v45q-137 -21 -198 -42.5t-61 -70.5zM229 584l-71 128h101l56 -128h-86z" />
    <glyph glyph-name="aacute" unicode="&#xe1;" horiz-adv-x="553" 
d="M401 0l-2 77q-24 -39 -67 -63t-105 -24q-35 0 -69 10t-60 29t-42 48.5t-16 68.5q0 43 19 72t51.5 48t77.5 31t96 21l109 20v3q0 60 -32 86.5t-87 26.5q-53 0 -86.5 -25t-41.5 -71h-92q5 40 24 72t48.5 54t68 34t81.5 12q44 0 83 -10.5t66.5 -33.5t43.5 -60.5t16 -90.5
l-1 -227q0 -12 1 -35t3 -73h-87zM134 150q0 -40 32 -61.5t78 -21.5q63 0 106 38.5t43 112.5v45q-137 -21 -198 -42.5t-61 -70.5zM246 584l55 128h101l-70 -128h-86z" />
    <glyph glyph-name="acircumflex" unicode="&#xe2;" horiz-adv-x="553" 
d="M401 0l-2 77q-24 -39 -67 -63t-105 -24q-35 0 -69 10t-60 29t-42 48.5t-16 68.5q0 43 19 72t51.5 48t77.5 31t96 21l109 20v3q0 60 -32 86.5t-87 26.5q-53 0 -86.5 -25t-41.5 -71h-92q5 40 24 72t48.5 54t68 34t81.5 12q44 0 83 -10.5t66.5 -33.5t43.5 -60.5t16 -90.5
l-1 -227q0 -12 1 -35t3 -73h-87zM134 150q0 -40 32 -61.5t78 -21.5q63 0 106 38.5t43 112.5v45q-137 -21 -198 -42.5t-61 -70.5zM348 584l-73 76l-71 -76h-86l114 128h89l114 -128h-87z" />
    <glyph glyph-name="atilde" unicode="&#xe3;" horiz-adv-x="553" 
d="M401 0l-2 77q-24 -39 -67 -63t-105 -24q-35 0 -69 10t-60 29t-42 48.5t-16 68.5q0 43 19 72t51.5 48t77.5 31t96 21l109 20v3q0 60 -32 86.5t-87 26.5q-53 0 -86.5 -25t-41.5 -71h-92q5 40 24 72t48.5 54t68 34t81.5 12q44 0 83 -10.5t66.5 -33.5t43.5 -60.5t16 -90.5
l-1 -227q0 -12 1 -35t3 -73h-87zM134 150q0 -40 32 -61.5t78 -21.5q63 0 106 38.5t43 112.5v45q-137 -21 -198 -42.5t-61 -70.5zM339 586q-23 0 -40 8t-36 21q-14 10 -27 17.5t-26 7.5q-15 0 -28 -10.5t-25 -35.5l-56 32q19 41 48 62t63 21q22 0 39.5 -7.5t36.5 -21.5
q13 -10 26 -17.5t26 -7.5q16 0 29 10.5t25 35.5l56 -31q-19 -42 -48 -63t-63 -21z" />
    <glyph glyph-name="adieresis" unicode="&#xe4;" horiz-adv-x="553" 
d="M401 0l-2 77q-24 -39 -67 -63t-105 -24q-35 0 -69 10t-60 29t-42 48.5t-16 68.5q0 43 19 72t51.5 48t77.5 31t96 21l109 20v3q0 60 -32 86.5t-87 26.5q-53 0 -86.5 -25t-41.5 -71h-92q5 40 24 72t48.5 54t68 34t81.5 12q44 0 83 -10.5t66.5 -33.5t43.5 -60.5t16 -90.5
l-1 -227q0 -12 1 -35t3 -73h-87zM134 150q0 -40 32 -61.5t78 -21.5q63 0 106 38.5t43 112.5v45q-137 -21 -198 -42.5t-61 -70.5zM324 608v104h94v-104h-94zM134 608v104h94v-104h-94z" />
    <glyph glyph-name="aring" unicode="&#xe5;" horiz-adv-x="553" 
d="M401 0l-2 77q-24 -39 -67 -63t-105 -24q-35 0 -69 10t-60 29t-42 48.5t-16 68.5q0 43 19 72t51.5 48t77.5 31t96 21l109 20v3q0 60 -32 86.5t-87 26.5q-53 0 -86.5 -25t-41.5 -71h-92q5 40 24 72t48.5 54t68 34t81.5 12q44 0 83 -10.5t66.5 -33.5t43.5 -60.5t16 -90.5
l-1 -227q0 -12 1 -35t3 -73h-87zM134 150q0 -40 32 -61.5t78 -21.5q63 0 106 38.5t43 112.5v45q-137 -21 -198 -42.5t-61 -70.5zM276 563q-33 0 -58.5 23.5t-25.5 56.5t25.5 57t58.5 24q34 0 58.5 -24t24.5 -57t-24.5 -56.5t-58.5 -23.5zM276 607q15 0 25 11t10 25
q0 15 -10 26t-25 11q-14 0 -25 -11t-11 -26q0 -14 11 -25t25 -11z" />
    <glyph glyph-name="ae" unicode="&#xe6;" horiz-adv-x="911" 
d="M870 153q-12 -41 -37 -71.5t-57.5 -51t-71.5 -31t-79 -10.5q-61 0 -113.5 33t-84.5 88q-26 -52 -74.5 -86t-123.5 -34q-37 0 -71.5 9.5t-60.5 28.5t-41.5 48.5t-15.5 67.5q0 85 71.5 121t186.5 48l84 14v13q0 60 -31 87.5t-83 27.5q-51 0 -84 -25.5t-40 -71.5h-91
q4 40 22.5 72t47.5 54.5t67 34t80 11.5q54 0 101 -22.5t69 -72.5q33 46 81.5 70.5t100.5 24.5q49 0 95 -17.5t80.5 -51t55.5 -84t21 -116.5v-27h-400q5 -74 49 -119.5t104 -45.5q49 0 88 20.5t59 63.5h96zM621 451q-54 0 -97 -38t-50 -103h297q-2 63 -45 102t-105 39z
M134 148q0 -40 31.5 -60.5t74.5 -20.5q60 0 101 40.5t41 121.5v25q-128 -13 -188 -34.5t-60 -71.5z" />
    <glyph glyph-name="ccedilla" unicode="&#xe7;" horiz-adv-x="562" 
d="M294 -11q-53 0 -100 20t-81 55.5t-54 86.5t-20 112q0 59 20.5 108.5t55 84.5t81.5 54.5t99 19.5q44 0 84.5 -13.5t72 -38.5t52 -60t25.5 -77h-93q-12 49 -51.5 77.5t-90.5 28.5q-69 0 -114 -51.5t-45 -132.5t45.5 -136t114.5 -55q49 0 87 28.5t54 81.5h93q-7 -45 -29 -81
t-54 -60.5t-71 -38t-81 -13.5zM297 -189q-19 0 -38 3.5t-32 7.5v50q14 -4 33 -7.5t32 -3.5q18 0 32 6.5t14 23.5q0 14 -13.5 20.5t-31.5 6.5q-10 0 -22.5 -2.5t-23.5 -6.5h-7l33 112h61l-24 -62q3 1 9 1.5t12 0.5q21 0 45 -14t24 -53q0 -40 -28 -61.5t-75 -21.5z" />
    <glyph glyph-name="egrave" unicode="&#xe8;" horiz-adv-x="579" 
d="M537 148q-12 -40 -36 -70t-56.5 -50t-70.5 -29.5t-76 -9.5q-53 0 -100.5 19t-83 54.5t-56 86.5t-20.5 114q0 62 21 111.5t56 84t81 53t95 18.5t94.5 -17.5t80 -51.5t55 -86t20.5 -120v-21h-407q6 -74 53 -119.5t113 -45.5q46 0 84.5 19t58.5 60h94zM290 451
q-60 0 -104.5 -37.5t-51.5 -102.5h309q-4 63 -47.5 101.5t-105.5 38.5zM243 584l-71 128h101l56 -128h-86z" />
    <glyph glyph-name="eacute" unicode="&#xe9;" horiz-adv-x="579" 
d="M537 148q-12 -40 -36 -70t-56.5 -50t-70.5 -29.5t-76 -9.5q-53 0 -100.5 19t-83 54.5t-56 86.5t-20.5 114q0 62 21 111.5t56 84t81 53t95 18.5t94.5 -17.5t80 -51.5t55 -86t20.5 -120v-21h-407q6 -74 53 -119.5t113 -45.5q46 0 84.5 19t58.5 60h94zM290 451
q-60 0 -104.5 -37.5t-51.5 -102.5h309q-4 63 -47.5 101.5t-105.5 38.5zM260 584l55 128h101l-70 -128h-86z" />
    <glyph glyph-name="ecircumflex" unicode="&#xea;" horiz-adv-x="579" 
d="M537 148q-12 -40 -36 -70t-56.5 -50t-70.5 -29.5t-76 -9.5q-53 0 -100.5 19t-83 54.5t-56 86.5t-20.5 114q0 62 21 111.5t56 84t81 53t95 18.5t94.5 -17.5t80 -51.5t55 -86t20.5 -120v-21h-407q6 -74 53 -119.5t113 -45.5q46 0 84.5 19t58.5 60h94zM290 451
q-60 0 -104.5 -37.5t-51.5 -102.5h309q-4 63 -47.5 101.5t-105.5 38.5zM363 584l-73 76l-71 -76h-86l114 128h89l114 -128h-87z" />
    <glyph glyph-name="edieresis" unicode="&#xeb;" horiz-adv-x="579" 
d="M537 148q-12 -40 -36 -70t-56.5 -50t-70.5 -29.5t-76 -9.5q-53 0 -100.5 19t-83 54.5t-56 86.5t-20.5 114q0 62 21 111.5t56 84t81 53t95 18.5t94.5 -17.5t80 -51.5t55 -86t20.5 -120v-21h-407q6 -74 53 -119.5t113 -45.5q46 0 84.5 19t58.5 60h94zM290 451
q-60 0 -104.5 -37.5t-51.5 -102.5h309q-4 63 -47.5 101.5t-105.5 38.5zM338 608v104h94v-104h-94zM148 608v104h94v-104h-94z" />
    <glyph glyph-name="igrave" unicode="&#xec;" 
d="M74 0v518h94v-518h-94zM74 584l-71 128h101l56 -128h-86z" />
    <glyph glyph-name="iacute" unicode="&#xed;" 
d="M74 0v518h94v-518h-94zM91 584l55 128h101l-70 -128h-86z" />
    <glyph glyph-name="icircumflex" unicode="&#xee;" 
d="M74 0v518h94v-518h-94zM193 584l-73 76l-71 -76h-86l114 128h89l114 -128h-87z" />
    <glyph glyph-name="idieresis" unicode="&#xef;" horiz-adv-x="244" 
d="M74 0v518h94v-518h-94zM-10 618v98h95v-98h-95zM158 618v98h95v-98h-95z" />
    <glyph glyph-name="eth" unicode="&#xf0;" horiz-adv-x="590" 
d="M550 278q0 -133 -66.5 -210.5t-188.5 -77.5q-54 0 -101 19t-80.5 52.5t-53 80.5t-19.5 102q0 56 21.5 101.5t55 77t75 49t81.5 17.5q63 0 105.5 -23.5t64.5 -49.5q-16 54 -51.5 97t-88.5 74l-52 -71l-62 41l45 62q-28 10 -58.5 17.5t-64.5 11.5l18 80q42 -7 81 -17
t74 -23l57 78l63 -41l-51 -70q90 -51 143 -142.5t53 -234.5zM138 244q0 -74 45.5 -123t111.5 -49t110.5 48t45.5 123q0 70 -46.5 116t-110.5 46t-110 -46.5t-46 -114.5z" />
    <glyph glyph-name="ntilde" unicode="&#xf1;" horiz-adv-x="581" 
d="M168 273v-273h-94v518h92v-76q24 40 65.5 64t98.5 24q86 0 135 -52.5t49 -152.5v-325h-94v305q0 74 -31.5 108.5t-87.5 34.5q-51 0 -92 -43.5t-41 -131.5zM360 586q-23 0 -40 8t-36 21q-14 10 -27 17.5t-26 7.5q-15 0 -28 -10.5t-25 -35.5l-56 32q19 41 48 62t63 21
q22 0 39.5 -7.5t36.5 -21.5q13 -10 26 -17.5t26 -7.5q16 0 29 10.5t25 35.5l56 -31q-19 -42 -48 -63t-63 -21z" />
    <glyph glyph-name="ograve" unicode="&#xf2;" horiz-adv-x="603" 
d="M301 -11q-54 0 -102 19.5t-83.5 55t-56 86.5t-20.5 113q0 60 20.5 109.5t56 84t83.5 54t102 19.5q55 0 103.5 -19t83.5 -53.5t55.5 -84t20.5 -110.5t-21 -112t-56.5 -86.5t-83.5 -55.5t-102 -20zM301 72q72 0 119 53.5t47 137.5q0 81 -47 132.5t-119 51.5t-119 -51.5
t-47 -132.5q0 -84 47 -137.5t119 -53.5zM254 584l-71 128h101l56 -128h-86z" />
    <glyph glyph-name="oacute" unicode="&#xf3;" horiz-adv-x="603" 
d="M301 -11q-54 0 -102 19.5t-83.5 55t-56 86.5t-20.5 113q0 60 20.5 109.5t56 84t83.5 54t102 19.5q55 0 103.5 -19t83.5 -53.5t55.5 -84t20.5 -110.5t-21 -112t-56.5 -86.5t-83.5 -55.5t-102 -20zM301 72q72 0 119 53.5t47 137.5q0 81 -47 132.5t-119 51.5t-119 -51.5
t-47 -132.5q0 -84 47 -137.5t119 -53.5zM271 584l55 128h101l-70 -128h-86z" />
    <glyph glyph-name="ocircumflex" unicode="&#xf4;" horiz-adv-x="603" 
d="M301 -11q-54 0 -102 19.5t-83.5 55t-56 86.5t-20.5 113q0 60 20.5 109.5t56 84t83.5 54t102 19.5q55 0 103.5 -19t83.5 -53.5t55.5 -84t20.5 -110.5t-21 -112t-56.5 -86.5t-83.5 -55.5t-102 -20zM301 72q72 0 119 53.5t47 137.5q0 81 -47 132.5t-119 51.5t-119 -51.5
t-47 -132.5q0 -84 47 -137.5t119 -53.5zM374 584l-73 76l-71 -76h-86l114 128h89l114 -128h-87z" />
    <glyph glyph-name="otilde" unicode="&#xf5;" horiz-adv-x="603" 
d="M301 -11q-54 0 -102 19.5t-83.5 55t-56 86.5t-20.5 113q0 60 20.5 109.5t56 84t83.5 54t102 19.5q55 0 103.5 -19t83.5 -53.5t55.5 -84t20.5 -110.5t-21 -112t-56.5 -86.5t-83.5 -55.5t-102 -20zM301 72q72 0 119 53.5t47 137.5q0 81 -47 132.5t-119 51.5t-119 -51.5
t-47 -132.5q0 -84 47 -137.5t119 -53.5zM365 586q-23 0 -40 8t-36 21q-14 10 -27 17.5t-26 7.5q-15 0 -28 -10.5t-25 -35.5l-56 32q19 41 48 62t63 21q22 0 39.5 -7.5t36.5 -21.5q13 -10 26 -17.5t26 -7.5q16 0 29 10.5t25 35.5l56 -31q-19 -42 -48 -63t-63 -21z" />
    <glyph glyph-name="odieresis" unicode="&#xf6;" horiz-adv-x="603" 
d="M301 -11q-54 0 -102 19.5t-83.5 55t-56 86.5t-20.5 113q0 60 20.5 109.5t56 84t83.5 54t102 19.5q55 0 103.5 -19t83.5 -53.5t55.5 -84t20.5 -110.5t-21 -112t-56.5 -86.5t-83.5 -55.5t-102 -20zM301 72q72 0 119 53.5t47 137.5q0 81 -47 132.5t-119 51.5t-119 -51.5
t-47 -132.5q0 -84 47 -137.5t119 -53.5zM349 608v104h94v-104h-94zM159 608v104h94v-104h-94z" />
    <glyph glyph-name="divide" unicode="&#xf7;" horiz-adv-x="590" 
d="M245 488v119h100v-119h-100zM50 305v76h482v-76h-482zM245 78v119h100v-119h-100z" />
    <glyph glyph-name="oslash" unicode="&#xf8;" horiz-adv-x="605" 
d="M301 -11q-35 0 -67.5 8t-60.5 23l-53 -76h-88l85 118q-36 36 -57 87t-21 114q0 60 20.5 109.5t56 84t83.5 54t102 19.5q35 0 68.5 -8t61.5 -23l48 70h88l-80 -111q36 -34 56.5 -84t20.5 -111t-21 -112t-56.5 -86.5t-83.5 -55.5t-102 -20zM135 263q0 -37 10 -69.5
t28 -57.5l205 293q-17 9 -36.5 13.5t-40.5 4.5q-72 0 -119 -51.5t-47 -132.5zM467 263q0 36 -9.5 67t-27.5 54l-205 -294q17 -8 36 -13t40 -5q72 0 119 53.5t47 137.5z" />
    <glyph glyph-name="ugrave" unicode="&#xf9;" horiz-adv-x="574" 
d="M409 0v77q-24 -42 -64.5 -64.5t-98.5 -22.5q-79 0 -129 51t-50 150v327h94v-310q0 -69 32 -103t83 -34t90.5 40.5t39.5 128.5v278h94v-518h-91zM236 584l-71 128h101l56 -128h-86z" />
    <glyph glyph-name="uacute" unicode="&#xfa;" horiz-adv-x="574" 
d="M409 0v77q-24 -42 -64.5 -64.5t-98.5 -22.5q-79 0 -129 51t-50 150v327h94v-310q0 -69 32 -103t83 -34t90.5 40.5t39.5 128.5v278h94v-518h-91zM253 584l55 128h101l-70 -128h-86z" />
    <glyph glyph-name="ucircumflex" unicode="&#xfb;" horiz-adv-x="574" 
d="M409 0v77q-24 -42 -64.5 -64.5t-98.5 -22.5q-79 0 -129 51t-50 150v327h94v-310q0 -69 32 -103t83 -34t90.5 40.5t39.5 128.5v278h94v-518h-91zM355 584l-73 76l-71 -76h-86l114 128h89l114 -128h-87z" />
    <glyph glyph-name="udieresis" unicode="&#xfc;" horiz-adv-x="574" 
d="M409 0v77q-24 -42 -64.5 -64.5t-98.5 -22.5q-79 0 -129 51t-50 150v327h94v-310q0 -69 32 -103t83 -34t90.5 40.5t39.5 128.5v278h94v-518h-91zM331 608v104h94v-104h-94zM141 608v104h94v-104h-94z" />
    <glyph glyph-name="yacute" unicode="&#xfd;" horiz-adv-x="494" 
d="M491 518l-283 -708h-95l96 232l-206 476h101l151 -366l141 366h95zM217 585l55 128h101l-70 -128h-86z" />
    <glyph glyph-name="thorn" unicode="&#xfe;" horiz-adv-x="619" 
d="M341 -11q-63 0 -107.5 28t-65.5 68v-275h-94v905h94v-274q21 37 65.5 63t108.5 26q49 0 92 -17.5t75 -51.5t50.5 -84t18.5 -114q0 -66 -18.5 -117.5t-50.5 -86t-75.5 -52.5t-92.5 -18zM324 69q66 0 111.5 51.5t45.5 142.5q0 89 -45.5 138t-111.5 49t-112 -48.5
t-46 -138.5q0 -46 13 -82.5t35 -61t50.5 -37.5t59.5 -13z" />
    <glyph glyph-name="ydieresis" unicode="&#xff;" horiz-adv-x="494" 
d="M491 518l-283 -708h-95l96 232l-206 476h101l151 -366l141 366h95zM295 609v104h94v-104h-94zM105 609v104h94v-104h-94z" />
    <glyph glyph-name="Amacron" unicode="&#x100;" horiz-adv-x="688" 
d="M575 0l-72 183h-323l-72 -183h-101l284 702h107l283 -702h-106zM214 270h255l-127 326zM220 793v65h253v-65h-253z" />
    <glyph glyph-name="amacron" unicode="&#x101;" horiz-adv-x="553" 
d="M401 0l-2 77q-24 -39 -67 -63t-105 -24q-35 0 -69 10t-60 29t-42 48.5t-16 68.5q0 43 19 72t51.5 48t77.5 31t96 21l109 20v3q0 60 -32 86.5t-87 26.5q-53 0 -86.5 -25t-41.5 -71h-92q5 40 24 72t48.5 54t68 34t81.5 12q44 0 83 -10.5t66.5 -33.5t43.5 -60.5t16 -90.5
l-1 -227q0 -12 1 -35t3 -73h-87zM134 150q0 -40 32 -61.5t78 -21.5q63 0 106 38.5t43 112.5v45q-137 -21 -198 -42.5t-61 -70.5zM150 619v65h253v-65h-253z" />
    <glyph glyph-name="Abreve" unicode="&#x102;" horiz-adv-x="688" 
d="M575 0l-72 183h-323l-72 -183h-101l284 702h107l283 -702h-106zM214 270h255l-127 326zM347 763q-60 0 -95.5 37.5t-37.5 85.5h75q2 -29 19.5 -45t39.5 -16t40 16t20 45h71q-2 -48 -37 -85.5t-95 -37.5z" />
    <glyph glyph-name="abreve" unicode="&#x103;" horiz-adv-x="553" 
d="M401 0l-2 77q-24 -39 -67 -63t-105 -24q-35 0 -69 10t-60 29t-42 48.5t-16 68.5q0 43 19 72t51.5 48t77.5 31t96 21l109 20v3q0 60 -32 86.5t-87 26.5q-53 0 -86.5 -25t-41.5 -71h-92q5 40 24 72t48.5 54t68 34t81.5 12q44 0 83 -10.5t66.5 -33.5t43.5 -60.5t16 -90.5
l-1 -227q0 -12 1 -35t3 -73h-87zM134 150q0 -40 32 -61.5t78 -21.5q63 0 106 38.5t43 112.5v45q-137 -21 -198 -42.5t-61 -70.5zM276 589q-60 0 -95.5 37.5t-37.5 85.5h75q2 -29 19.5 -45t39.5 -16t40 16t20 45h71q-2 -48 -37 -85.5t-95 -37.5z" />
    <glyph glyph-name="Aogonek" unicode="&#x104;" horiz-adv-x="684" 
d="M575 0l-72 183h-323l-72 -183h-101l284 702h107l283 -702h-106zM214 270h255l-127 326zM628 -191q-49 0 -83 21t-34 67q0 37 30.5 69.5t69.5 54.5l69 -21q-14 -7 -30.5 -17.5t-30 -22.5t-22.5 -26t-9 -28q0 -22 16 -31.5t42 -9.5q8 0 15.5 1t18.5 3v-56q-14 -2 -27 -3
t-25 -1z" />
    <glyph glyph-name="aogonek" unicode="&#x105;" horiz-adv-x="550" 
d="M401 0l-2 77q-24 -39 -67 -63t-105 -24q-35 0 -69 10t-60 29t-42 48.5t-16 68.5q0 43 19 72t51.5 48t77.5 31t96 21l109 20v3q0 60 -32 86.5t-87 26.5q-53 0 -86.5 -25t-41.5 -71h-92q5 40 24 72t48.5 54t68 34t81.5 12q44 0 83 -10.5t66.5 -33.5t43.5 -60.5t16 -90.5
l-1 -227q0 -12 1 -35t3 -73h-87zM134 150q0 -40 32 -61.5t78 -21.5q63 0 106 38.5t43 112.5v45q-137 -21 -198 -42.5t-61 -70.5zM434 -191q-49 0 -83 21t-34 67q0 37 30.5 69.5t69.5 54.5l69 -21q-14 -7 -30.5 -17.5t-30 -22.5t-22.5 -26t-9 -28q0 -22 16 -31.5t42 -9.5
q8 0 15.5 1t18.5 3v-56q-14 -2 -27 -3t-25 -1z" />
    <glyph glyph-name="Cacute" unicode="&#x106;" horiz-adv-x="731" 
d="M382 -12q-68 0 -130 25.5t-108 73t-73 115.5t-27 152t28 151t74.5 113.5t108 71.5t127.5 25q59 0 112 -17t94 -48t69 -75.5t37 -100.5h-100q-18 72 -77 111.5t-135 39.5q-48 0 -90.5 -19t-74 -54.5t-50 -85.5t-18.5 -112q0 -61 18 -112t49.5 -87t74 -56.5t91.5 -20.5
q77 0 133 43.5t80 115.5h100q-11 -56 -39 -102.5t-68.5 -78.5t-93 -50t-112.5 -18zM350 758l55 128h101l-70 -128h-86z" />
    <glyph glyph-name="cacute" unicode="&#x107;" horiz-adv-x="562" 
d="M294 -11q-53 0 -100 20t-81 55.5t-54 86.5t-20 112q0 59 20.5 108.5t55 84.5t81.5 54.5t99 19.5q44 0 84.5 -13.5t72 -38.5t52 -60t25.5 -77h-93q-12 49 -51.5 77.5t-90.5 28.5q-69 0 -114 -51.5t-45 -132.5t45.5 -136t114.5 -55q49 0 87 28.5t54 81.5h93q-7 -45 -29 -81
t-54 -60.5t-71 -38t-81 -13.5zM261 584l55 128h101l-70 -128h-86z" />
    <glyph glyph-name="Ccircumflex" unicode="&#x108;" horiz-adv-x="731" 
d="M382 -12q-68 0 -130 25.5t-108 73t-73 115.5t-27 152t28 151t74.5 113.5t108 71.5t127.5 25q59 0 112 -17t94 -48t69 -75.5t37 -100.5h-100q-18 72 -77 111.5t-135 39.5q-48 0 -90.5 -19t-74 -54.5t-50 -85.5t-18.5 -112q0 -61 18 -112t49.5 -87t74 -56.5t91.5 -20.5
q77 0 133 43.5t80 115.5h100q-11 -56 -39 -102.5t-68.5 -78.5t-93 -50t-112.5 -18zM453 758l-73 76l-71 -76h-86l114 128h89l114 -128h-87z" />
    <glyph glyph-name="ccircumflex" unicode="&#x109;" horiz-adv-x="562" 
d="M294 -11q-53 0 -100 20t-81 55.5t-54 86.5t-20 112q0 59 20.5 108.5t55 84.5t81.5 54.5t99 19.5q44 0 84.5 -13.5t72 -38.5t52 -60t25.5 -77h-93q-12 49 -51.5 77.5t-90.5 28.5q-69 0 -114 -51.5t-45 -132.5t45.5 -136t114.5 -55q49 0 87 28.5t54 81.5h93q-7 -45 -29 -81
t-54 -60.5t-71 -38t-81 -13.5zM363 584l-73 76l-71 -76h-86l114 128h89l114 -128h-87z" />
    <glyph glyph-name="Cdotaccent" unicode="&#x10a;" horiz-adv-x="731" 
d="M382 -12q-68 0 -130 25.5t-108 73t-73 115.5t-27 152t28 151t74.5 113.5t108 71.5t127.5 25q59 0 112 -17t94 -48t69 -75.5t37 -100.5h-100q-18 72 -77 111.5t-135 39.5q-48 0 -90.5 -19t-74 -54.5t-50 -85.5t-18.5 -112q0 -61 18 -112t49.5 -87t74 -56.5t91.5 -20.5
q77 0 133 43.5t80 115.5h100q-11 -56 -39 -102.5t-68.5 -78.5t-93 -50t-112.5 -18zM334 780v102h92v-102h-92z" />
    <glyph glyph-name="cdotaccent" unicode="&#x10b;" horiz-adv-x="562" 
d="M294 -11q-53 0 -100 20t-81 55.5t-54 86.5t-20 112q0 59 20.5 108.5t55 84.5t81.5 54.5t99 19.5q44 0 84.5 -13.5t72 -38.5t52 -60t25.5 -77h-93q-12 49 -51.5 77.5t-90.5 28.5q-69 0 -114 -51.5t-45 -132.5t45.5 -136t114.5 -55q49 0 87 28.5t54 81.5h93q-7 -45 -29 -81
t-54 -60.5t-71 -38t-81 -13.5zM245 606v102h92v-102h-92z" />
    <glyph glyph-name="Ccaron" unicode="&#x10c;" horiz-adv-x="731" 
d="M382 -12q-68 0 -130 25.5t-108 73t-73 115.5t-27 152t28 151t74.5 113.5t108 71.5t127.5 25q59 0 112 -17t94 -48t69 -75.5t37 -100.5h-100q-18 72 -77 111.5t-135 39.5q-48 0 -90.5 -19t-74 -54.5t-50 -85.5t-18.5 -112q0 -61 18 -112t49.5 -87t74 -56.5t91.5 -20.5
q77 0 133 43.5t80 115.5h100q-11 -56 -39 -102.5t-68.5 -78.5t-93 -50t-112.5 -18zM546 886l-114 -128h-89l-114 128h87l73 -76l71 76h86z" />
    <glyph glyph-name="ccaron" unicode="&#x10d;" horiz-adv-x="562" 
d="M294 -11q-53 0 -100 20t-81 55.5t-54 86.5t-20 112q0 59 20.5 108.5t55 84.5t81.5 54.5t99 19.5q44 0 84.5 -13.5t72 -38.5t52 -60t25.5 -77h-93q-12 49 -51.5 77.5t-90.5 28.5q-69 0 -114 -51.5t-45 -132.5t45.5 -136t114.5 -55q49 0 87 28.5t54 81.5h93q-7 -45 -29 -81
t-54 -60.5t-71 -38t-81 -13.5zM456 712l-114 -128h-89l-114 128h87l73 -76l71 76h86z" />
    <glyph glyph-name="Dcaron" unicode="&#x10e;" horiz-adv-x="723" 
d="M82 0v700h230q84 0 152.5 -21.5t116 -64t73.5 -108t26 -152.5q0 -84 -26 -150t-74 -111t-116.5 -69t-152.5 -24h-229zM182 86h119q138 0 206 72.5t68 195.5t-68 191.5t-206 68.5h-119v-528zM499 886l-114 -128h-89l-114 128h87l73 -76l71 76h86z" />
    <glyph glyph-name="dcaron" unicode="&#x10f;" horiz-adv-x="620" 
d="M451 0v84q-21 -40 -66 -67.5t-108 -27.5q-49 0 -92.5 18t-75.5 52.5t-50.5 86t-18.5 117.5q0 63 19 113t51.5 84t75.5 52t90 18q63 0 108.5 -26.5t66.5 -63.5v280h94v-720h-94zM295 69q31 0 59.5 13t50 38t34.5 61t13 82q0 90 -46.5 138.5t-110.5 48.5q-68 0 -112.5 -50
t-44.5 -137q0 -90 45 -142t112 -52zM609 626l2 92h95l-1 -74q-2 -42 -26.5 -68.5t-75.5 -36.5l-3 34q26 7 38.5 18t14.5 23q0 5 -2.5 7.5t-6.5 3.5l-5.5 0.5t-12 0.5h-12h-5.5z" />
    <glyph glyph-name="Dcroat" unicode="&#x110;" horiz-adv-x="760" 
d="M710 354q0 -84 -26 -150t-74 -111t-116.5 -69t-152.5 -24h-229v325h-120v75h120v300h230q84 0 152.5 -21.5t116 -64t73.5 -108t26 -152.5zM212 86h119q138 0 206 72.5t68 195.5t-68 191.5t-206 68.5h-119v-214h152v-75h-152v-239z" />
    <glyph glyph-name="dcroat" unicode="&#x111;" horiz-adv-x="617" 
d="M451 0v84q-21 -40 -66 -67.5t-108 -27.5q-49 0 -92.5 18t-75.5 52.5t-50.5 86t-18.5 117.5q0 63 19 113t51.5 84t75.5 52t90 18q63 0 108.5 -26.5t66.5 -63.5v146h-129v63h129v71h94v-71h92v-63h-92v-586h-94zM295 69q31 0 59.5 13t50 38t34.5 61t13 82q0 90 -46.5 138.5
t-110.5 48.5q-68 0 -112.5 -50t-44.5 -137q0 -90 45 -142t112 -52z" />
    <glyph glyph-name="Emacron" unicode="&#x112;" horiz-adv-x="613" 
d="M573 86v-86h-491v700h484v-86h-384v-207h356v-87h-356v-234h391zM201 793v65h253v-65h-253z" />
    <glyph glyph-name="emacron" unicode="&#x113;" horiz-adv-x="579" 
d="M537 148q-12 -40 -36 -70t-56.5 -50t-70.5 -29.5t-76 -9.5q-53 0 -100.5 19t-83 54.5t-56 86.5t-20.5 114q0 62 21 111.5t56 84t81 53t95 18.5t94.5 -17.5t80 -51.5t55 -86t20.5 -120v-21h-407q6 -74 53 -119.5t113 -45.5q46 0 84.5 19t58.5 60h94zM290 451
q-60 0 -104.5 -37.5t-51.5 -102.5h309q-4 63 -47.5 101.5t-105.5 38.5zM164 619v65h253v-65h-253z" />
    <glyph glyph-name="Ebreve" unicode="&#x114;" horiz-adv-x="613" 
d="M573 86v-86h-491v700h484v-86h-384v-207h356v-87h-356v-234h391zM328 763q-60 0 -95.5 37.5t-37.5 85.5h75q2 -29 19.5 -45t39.5 -16t40 16t20 45h71q-2 -48 -37 -85.5t-95 -37.5z" />
    <glyph glyph-name="ebreve" unicode="&#x115;" horiz-adv-x="579" 
d="M537 148q-12 -40 -36 -70t-56.5 -50t-70.5 -29.5t-76 -9.5q-53 0 -100.5 19t-83 54.5t-56 86.5t-20.5 114q0 62 21 111.5t56 84t81 53t95 18.5t94.5 -17.5t80 -51.5t55 -86t20.5 -120v-21h-407q6 -74 53 -119.5t113 -45.5q46 0 84.5 19t58.5 60h94zM290 451
q-60 0 -104.5 -37.5t-51.5 -102.5h309q-4 63 -47.5 101.5t-105.5 38.5zM291 589q-60 0 -95.5 37.5t-37.5 85.5h75q2 -29 19.5 -45t39.5 -16t40 16t20 45h71q-2 -48 -37 -85.5t-95 -37.5z" />
    <glyph glyph-name="Edotaccent" unicode="&#x116;" horiz-adv-x="613" 
d="M573 86v-86h-491v700h484v-86h-384v-207h356v-87h-356v-234h391zM281 780v102h92v-102h-92z" />
    <glyph glyph-name="edotaccent" unicode="&#x117;" horiz-adv-x="579" 
d="M537 148q-12 -40 -36 -70t-56.5 -50t-70.5 -29.5t-76 -9.5q-53 0 -100.5 19t-83 54.5t-56 86.5t-20.5 114q0 62 21 111.5t56 84t81 53t95 18.5t94.5 -17.5t80 -51.5t55 -86t20.5 -120v-21h-407q6 -74 53 -119.5t113 -45.5q46 0 84.5 19t58.5 60h94zM290 451
q-60 0 -104.5 -37.5t-51.5 -102.5h309q-4 63 -47.5 101.5t-105.5 38.5zM244 606v102h92v-102h-92z" />
    <glyph glyph-name="Eogonek" unicode="&#x118;" horiz-adv-x="610" 
d="M573 86v-86h-491v700h484v-86h-384v-207h356v-87h-356v-234h391zM521 -191q-49 0 -83 21t-34 67q0 37 30.5 69.5t69.5 54.5l69 -21q-14 -7 -30.5 -17.5t-30 -22.5t-22.5 -26t-9 -28q0 -22 16 -31.5t42 -9.5q8 0 15.5 1t18.5 3v-56q-14 -2 -27 -3t-25 -1z" />
    <glyph glyph-name="eogonek" unicode="&#x119;" horiz-adv-x="584" 
d="M455 -187q-13 -2 -26 -3t-26 -1q-49 0 -82.5 21.5t-33.5 67.5q0 24 11 47t29 45q-7 -1 -14.5 -1h-14.5q-53 0 -100.5 19t-83 54.5t-56 86.5t-20.5 114q0 62 21 111.5t56 84t81 53t95 18.5t94.5 -17.5t80 -51.5t55 -86t20.5 -120v-21h-407q6 -74 53 -119.5t113 -45.5
q46 0 84.5 19t58.5 60h94q-10 -37 -31 -65t-49 -47q-39 -29 -66 -59.5t-27 -70.5q0 -22 16 -31.5t41 -9.5q8 0 15.5 1t18.5 3v-56zM290 451q-60 0 -104.5 -37.5t-51.5 -102.5h309q-4 63 -47.5 101.5t-105.5 38.5z" />
    <glyph glyph-name="Ecaron" unicode="&#x11a;" horiz-adv-x="613" 
d="M573 86v-86h-491v700h484v-86h-384v-207h356v-87h-356v-234h391zM493 886l-114 -128h-89l-114 128h87l73 -76l71 76h86z" />
    <glyph glyph-name="ecaron" unicode="&#x11b;" horiz-adv-x="579" 
d="M537 148q-12 -40 -36 -70t-56.5 -50t-70.5 -29.5t-76 -9.5q-53 0 -100.5 19t-83 54.5t-56 86.5t-20.5 114q0 62 21 111.5t56 84t81 53t95 18.5t94.5 -17.5t80 -51.5t55 -86t20.5 -120v-21h-407q6 -74 53 -119.5t113 -45.5q46 0 84.5 19t58.5 60h94zM290 451
q-60 0 -104.5 -37.5t-51.5 -102.5h309q-4 63 -47.5 101.5t-105.5 38.5zM456 712l-114 -128h-89l-114 128h87l73 -76l71 76h86z" />
    <glyph glyph-name="Gcircumflex" unicode="&#x11c;" horiz-adv-x="780" 
d="M382 290v84h322v-374h-89l-1 121q-28 -57 -89.5 -94t-148.5 -37q-69 0 -130 26t-106 73.5t-71 115t-26 149.5t27.5 149.5t74.5 114t111.5 72t136.5 25.5q57 0 109.5 -15t93.5 -43.5t69 -69t36 -91.5h-99q-16 59 -73 95.5t-136 36.5q-54 0 -100 -19t-78.5 -54.5t-51 -86.5
t-18.5 -114t18 -114t50 -87.5t77 -56t99 -19.5q41 0 81.5 14t71.5 40.5t50 66.5t19 91v1h-229zM467 758l-73 76l-71 -76h-86l114 128h89l114 -128h-87z" />
    <glyph glyph-name="gcircumflex" unicode="&#x11d;" horiz-adv-x="608" 
d="M534 15q0 -53 -19 -93.5t-51 -67.5t-75 -40.5t-91 -13.5q-103 0 -167 47.5t-77 124.5h93q11 -45 50.5 -69.5t100.5 -24.5q62 0 102.5 33.5t40.5 102.5v92q-21 -40 -64.5 -66t-103.5 -26q-48 0 -90.5 17.5t-74 50.5t-50 81.5t-18.5 110.5q0 60 19 108t50.5 80.5t74 50
t89.5 17.5q57 0 101.5 -26t66.5 -66v80h93v-503zM290 94q30 0 58 12.5t48.5 35.5t33 56.5t12.5 75.5q0 43 -12.5 76t-33.5 55t-48.5 33.5t-57.5 11.5q-64 0 -108 -48t-44 -128q0 -83 44.5 -131.5t107.5 -48.5zM365 583l-73 76l-71 -76h-86l114 128h89l114 -128h-87z" />
    <glyph glyph-name="Gbreve" unicode="&#x11e;" horiz-adv-x="780" 
d="M382 290v84h322v-374h-89l-1 121q-28 -57 -89.5 -94t-148.5 -37q-69 0 -130 26t-106 73.5t-71 115t-26 149.5t27.5 149.5t74.5 114t111.5 72t136.5 25.5q57 0 109.5 -15t93.5 -43.5t69 -69t36 -91.5h-99q-16 59 -73 95.5t-136 36.5q-54 0 -100 -19t-78.5 -54.5t-51 -86.5
t-18.5 -114t18 -114t50 -87.5t77 -56t99 -19.5q41 0 81.5 14t71.5 40.5t50 66.5t19 91v1h-229zM395 763q-60 0 -95.5 37.5t-37.5 85.5h75q2 -29 19.5 -45t39.5 -16t40 16t20 45h71q-2 -48 -37 -85.5t-95 -37.5z" />
    <glyph glyph-name="gbreve" unicode="&#x11f;" horiz-adv-x="608" 
d="M534 15q0 -53 -19 -93.5t-51 -67.5t-75 -40.5t-91 -13.5q-103 0 -167 47.5t-77 124.5h93q11 -45 50.5 -69.5t100.5 -24.5q62 0 102.5 33.5t40.5 102.5v92q-21 -40 -64.5 -66t-103.5 -26q-48 0 -90.5 17.5t-74 50.5t-50 81.5t-18.5 110.5q0 60 19 108t50.5 80.5t74 50
t89.5 17.5q57 0 101.5 -26t66.5 -66v80h93v-503zM290 94q30 0 58 12.5t48.5 35.5t33 56.5t12.5 75.5q0 43 -12.5 76t-33.5 55t-48.5 33.5t-57.5 11.5q-64 0 -108 -48t-44 -128q0 -83 44.5 -131.5t107.5 -48.5zM293 588q-60 0 -95.5 37.5t-37.5 85.5h75q2 -29 19.5 -45
t39.5 -16t40 16t20 45h71q-2 -48 -37 -85.5t-95 -37.5z" />
    <glyph glyph-name="Gdotaccent" unicode="&#x120;" horiz-adv-x="780" 
d="M382 290v84h322v-374h-89l-1 121q-28 -57 -89.5 -94t-148.5 -37q-69 0 -130 26t-106 73.5t-71 115t-26 149.5t27.5 149.5t74.5 114t111.5 72t136.5 25.5q57 0 109.5 -15t93.5 -43.5t69 -69t36 -91.5h-99q-16 59 -73 95.5t-136 36.5q-54 0 -100 -19t-78.5 -54.5t-51 -86.5
t-18.5 -114t18 -114t50 -87.5t77 -56t99 -19.5q41 0 81.5 14t71.5 40.5t50 66.5t19 91v1h-229zM349 780v102h92v-102h-92z" />
    <glyph glyph-name="gdotaccent" unicode="&#x121;" horiz-adv-x="608" 
d="M534 15q0 -53 -19 -93.5t-51 -67.5t-75 -40.5t-91 -13.5q-103 0 -167 47.5t-77 124.5h93q11 -45 50.5 -69.5t100.5 -24.5q62 0 102.5 33.5t40.5 102.5v92q-21 -40 -64.5 -66t-103.5 -26q-48 0 -90.5 17.5t-74 50.5t-50 81.5t-18.5 110.5q0 60 19 108t50.5 80.5t74 50
t89.5 17.5q57 0 101.5 -26t66.5 -66v80h93v-503zM290 94q30 0 58 12.5t48.5 35.5t33 56.5t12.5 75.5q0 43 -12.5 76t-33.5 55t-48.5 33.5t-57.5 11.5q-64 0 -108 -48t-44 -128q0 -83 44.5 -131.5t107.5 -48.5zM247 605v102h92v-102h-92z" />
    <glyph glyph-name="Gcommaaccent" unicode="&#x122;" horiz-adv-x="780" 
d="M382 290v84h322v-374h-89l-1 121q-28 -57 -89.5 -94t-148.5 -37q-69 0 -130 26t-106 73.5t-71 115t-26 149.5t27.5 149.5t74.5 114t111.5 72t136.5 25.5q57 0 109.5 -15t93.5 -43.5t69 -69t36 -91.5h-99q-16 59 -73 95.5t-136 36.5q-54 0 -100 -19t-78.5 -54.5t-51 -86.5
t-18.5 -114t18 -114t50 -87.5t77 -56t99 -19.5q41 0 81.5 14t71.5 40.5t50 66.5t19 91v1h-229zM343 -152l2 92h95l-1 -74q-2 -42 -26.5 -68.5t-75.5 -36.5l-3 34q26 7 38.5 18t14.5 23q0 5 -2.5 7.5t-6.5 3.5l-5.5 0.5t-12 0.5h-12h-5.5z" />
    <glyph glyph-name="gcommaaccent" unicode="&#x123;" horiz-adv-x="608" 
d="M534 15q0 -53 -19 -93.5t-51 -67.5t-75 -40.5t-91 -13.5q-103 0 -167 47.5t-77 124.5h93q11 -45 50.5 -69.5t100.5 -24.5q62 0 102.5 33.5t40.5 102.5v92q-21 -40 -64.5 -66t-103.5 -26q-48 0 -90.5 17.5t-74 50.5t-50 81.5t-18.5 110.5q0 60 19 108t50.5 80.5t74 50
t89.5 17.5q57 0 101.5 -26t66.5 -66v80h93v-503zM290 94q30 0 58 12.5t48.5 35.5t33 56.5t12.5 75.5q0 43 -12.5 76t-33.5 55t-48.5 33.5t-57.5 11.5q-64 0 -108 -48t-44 -128q0 -83 44.5 -131.5t107.5 -48.5zM253 651l2 92h95l-1 -74q-2 -42 -26.5 -68.5t-75.5 -36.5l-3 34
q26 7 38.5 18t14.5 23q0 5 -2.5 7.5t-6.5 3.5l-5.5 0.5t-12 0.5h-12h-5.5z" />
    <glyph glyph-name="Hcircumflex" unicode="&#x124;" horiz-adv-x="746" 
d="M82 0v700h100v-293h382v293h101v-700h-101v320h-382v-320h-100zM446 758l-73 76l-71 -76h-86l114 128h89l114 -128h-87z" />
    <glyph glyph-name="hcircumflex" unicode="&#x125;" horiz-adv-x="581" 
d="M168 273v-273h-94v720h94v-271v-2v-2q24 39 64.5 62t97.5 23q86 0 135 -52.5t49 -152.5v-325h-94v305q0 74 -31.5 108.5t-87.5 34.5q-51 0 -92 -43.5t-41 -131.5zM193 778l-73 76l-71 -76h-86l114 128h89l114 -128h-87z" />
    <glyph glyph-name="Hbar" unicode="&#x126;" horiz-adv-x="784" 
d="M201 304v-304h-100v516h-94v86h94v98h100v-98h382v98h101v-98h94v-86h-94v-516h-101v304h-382zM201 390h382v126h-382v-126z" />
    <glyph glyph-name="hbar" unicode="&#x127;" horiz-adv-x="590" 
d="M168 273v-273h-94v586h-89v63h89v71h94v-71h132v-63h-132v-137v-2v-2q24 39 64.5 62t97.5 23q86 0 135 -52.5t49 -152.5v-325h-94v305q0 74 -31.5 108.5t-87.5 34.5q-51 0 -92 -43.5t-41 -131.5z" />
    <glyph glyph-name="Itilde" unicode="&#x128;" horiz-adv-x="264" 
d="M82 0v700h100v-700h-100zM196 760q-23 0 -40 8t-36 21q-14 10 -27 17.5t-26 7.5q-15 0 -28 -10.5t-25 -35.5l-56 32q19 41 48 62t63 21q22 0 39.5 -7.5t36.5 -21.5q13 -10 26 -17.5t26 -7.5q16 0 29 10.5t25 35.5l56 -31q-19 -42 -48 -63t-63 -21z" />
    <glyph glyph-name="itilde" unicode="&#x129;" 
d="M74 0v518h94v-518h-94zM185 586q-23 0 -40 8t-36 21q-14 10 -27 17.5t-26 7.5q-15 0 -28 -10.5t-25 -35.5l-56 32q19 41 48 62t63 21q22 0 39.5 -7.5t36.5 -21.5q13 -10 26 -17.5t26 -7.5q16 0 29 10.5t25 35.5l56 -31q-19 -42 -48 -63t-63 -21z" />
    <glyph glyph-name="Imacron" unicode="&#x12a;" horiz-adv-x="264" 
d="M82 0v700h100v-700h-100zM6 793v65h253v-65h-253z" />
    <glyph glyph-name="imacron" unicode="&#x12b;" 
d="M74 0v518h94v-518h-94zM-5 619v65h253v-65h-253z" />
    <glyph glyph-name="Ibreve" unicode="&#x12c;" horiz-adv-x="264" 
d="M82 0v700h100v-700h-100zM132 763q-60 0 -95.5 37.5t-37.5 85.5h75q2 -29 19.5 -45t39.5 -16t40 16t20 45h71q-2 -48 -37 -85.5t-95 -37.5z" />
    <glyph glyph-name="ibreve" unicode="&#x12d;" 
d="M74 0v518h94v-518h-94zM121 589q-60 0 -95.5 37.5t-37.5 85.5h75q2 -29 19.5 -45t39.5 -16t40 16t20 45h71q-2 -48 -37 -85.5t-95 -37.5z" />
    <glyph glyph-name="Iogonek" unicode="&#x12e;" horiz-adv-x="264" 
d="M82 0v700h100v-700h-100zM131 -191q-49 0 -83 21t-34 67q0 37 30.5 69.5t69.5 54.5l69 -21q-14 -7 -30.5 -17.5t-30 -22.5t-22.5 -26t-9 -28q0 -22 16 -31.5t42 -9.5q8 0 15.5 1t18.5 3v-56q-14 -2 -27 -3t-25 -1z" />
    <glyph glyph-name="iogonek" unicode="&#x12f;" horiz-adv-x="244" 
d="M73 611v109h96v-109h-96zM74 0v518h94v-518h-94zM118 -191q-49 0 -83 21t-34 67q0 37 30.5 69.5t69.5 54.5l69 -21q-14 -7 -30.5 -17.5t-30 -22.5t-22.5 -26t-9 -28q0 -22 16 -31.5t42 -9.5q8 0 15.5 1t18.5 3v-56q-14 -2 -27 -3t-25 -1z" />
    <glyph glyph-name="Idotaccent" unicode="&#x130;" horiz-adv-x="264" 
d="M82 0v700h100v-700h-100zM86 780v102h92v-102h-92z" />
    <glyph glyph-name="dotlessi" unicode="&#x131;" 
d="M74 0v518h94v-518h-94z" />
    <glyph glyph-name="IJ" unicode="&#x132;" horiz-adv-x="563" 
d="M348 0q-20 0 -41.5 1.5t-46.5 7.5v86q19 -4 36.5 -6.5t41.5 -2.5q42 0 65 18t23 72v526h97v-543q0 -84 -43 -121.5t-132 -37.5zM82 0v700h100v-700h-100z" />
    <glyph glyph-name="ij" unicode="&#x133;" horiz-adv-x="485" 
d="M316 611v109h96v-109h-96zM317 518h94v-573q0 -78 -34 -106.5t-93 -28.5q-21 0 -37 0.5t-40 1.5v77q14 0 27.5 -0.5t25.5 -0.5q33 0 45 13.5t12 52.5v564zM73 611v109h96v-109h-96zM74 0v518h94v-518h-94z" />
    <glyph glyph-name="Jcircumflex" unicode="&#x134;" horiz-adv-x="534" 
d="M240 -12q-92 0 -155 52.5t-74 158.5h100q7 -54 39.5 -88t89.5 -34q53 0 87 35t34 97v491h101v-493q0 -55 -18 -96t-48.5 -68.5t-71 -41t-84.5 -13.5zM481 758l-73 76l-71 -76h-86l114 128h89l114 -128h-87z" />
    <glyph glyph-name="jcircumflex" unicode="&#x135;" 
d="M74 517h94v-573q0 -78 -34 -106.5t-93 -28.5q-21 0 -37 0.5t-40 1.5v77q14 0 27.5 -0.5t25.5 -0.5q33 0 45 13.5t12 52.5v564zM193 583l-73 76l-71 -76h-86l114 128h89l114 -128h-87z" />
    <glyph glyph-name="Kcommaaccent" unicode="&#x136;" horiz-adv-x="674" 
d="M544 0l-221 365l-141 -142v-223h-100v700h100v-352l345 352h129l-261 -262l269 -438h-120zM278 -152l2 92h95l-1 -74q-2 -42 -26.5 -68.5t-75.5 -36.5l-3 34q26 7 38.5 18t14.5 23q0 5 -2.5 7.5t-6.5 3.5l-5.5 0.5t-12 0.5h-12h-5.5z" />
    <glyph glyph-name="kcommaaccent" unicode="&#x137;" horiz-adv-x="545" 
d="M424 0l-153 270l-104 -102v-168h-93v720h93v-437l234 235h123l-185 -181l193 -337h-108zM226 -152l2 92h95l-1 -74q-2 -42 -26.5 -68.5t-75.5 -36.5l-3 34q26 7 38.5 18t14.5 23q0 5 -2.5 7.5t-6.5 3.5l-5.5 0.5t-12 0.5h-12h-5.5z" />
    <glyph glyph-name="kgreenlandic" unicode="&#x138;" horiz-adv-x="547" 
d="M427 0l-152 276l-107 -104v-172h-93v522h93v-236l236 236h124l-184 -179l192 -343h-109z" />
    <glyph glyph-name="Lacute" unicode="&#x139;" horiz-adv-x="535" 
d="M82 0v700h100v-614h340v-86h-440zM102 758l55 128h101l-70 -128h-86z" />
    <glyph glyph-name="lacute" unicode="&#x13a;" 
d="M74 0v720h94v-720h-94zM91 787l55 128h101l-70 -128h-86z" />
    <glyph glyph-name="Lcommaaccent" unicode="&#x13b;" horiz-adv-x="535" 
d="M82 0v700h100v-614h340v-86h-440zM252 -152l2 92h95l-1 -74q-2 -42 -26.5 -68.5t-75.5 -36.5l-3 34q26 7 38.5 18t14.5 23q0 5 -2.5 7.5t-6.5 3.5l-5.5 0.5t-12 0.5h-12h-5.5z" />
    <glyph glyph-name="lcommaaccent" unicode="&#x13c;" 
d="M74 0v720h94v-720h-94zM70 -152l2 92h95l-1 -74q-2 -42 -26.5 -68.5t-75.5 -36.5l-3 34q26 7 38.5 18t14.5 23q0 5 -2.5 7.5t-6.5 3.5l-5.5 0.5t-12 0.5h-12h-5.5z" />
    <glyph glyph-name="Lcaron" unicode="&#x13d;" horiz-adv-x="535" 
d="M82 0v700h100v-614h340v-86h-440zM275 610l2 92h95l-1 -74q-2 -42 -26.5 -68.5t-75.5 -36.5l-3 34q26 7 38.5 18t14.5 23q0 5 -2.5 7.5t-6.5 3.5l-5.5 0.5t-12 0.5h-12h-5.5z" />
    <glyph glyph-name="lcaron" unicode="&#x13e;" horiz-adv-x="244" 
d="M74 0v720h94v-720h-94zM239 626l2 92h95l-1 -74q-2 -42 -26.5 -68.5t-75.5 -36.5l-3 34q26 7 38.5 18t14.5 23q0 5 -2.5 7.5t-6.5 3.5l-5.5 0.5t-12 0.5h-12h-5.5z" />
    <glyph glyph-name="Ldot" unicode="&#x13f;" horiz-adv-x="544" 
d="M81 0v700h100v-614h340v-86h-440zM327 272v125h100v-125h-100z" />
    <glyph glyph-name="ldot" unicode="&#x140;" horiz-adv-x="354" 
d="M74 0v720h94v-720h-94zM240 263v125h100v-125h-100z" />
    <glyph glyph-name="Lslash" unicode="&#x141;" horiz-adv-x="553" 
d="M538 86v-86h-440v229l-87 -65v96l87 65v375h100v-320l204 157v-96l-204 -157v-198h340z" />
    <glyph glyph-name="lslash" unicode="&#x142;" horiz-adv-x="290" 
d="M277 368l-90 -73v-295h-94v243l-80 -64v111l80 64v366h94v-314l90 73v-111z" />
    <glyph glyph-name="Nacute" unicode="&#x143;" horiz-adv-x="751" 
d="M670 700v-702h-125l-365 579v-577h-98v700h129l361 -574v574h98zM354 758l55 128h101l-70 -128h-86z" />
    <glyph glyph-name="nacute" unicode="&#x144;" horiz-adv-x="581" 
d="M168 273v-273h-94v518h92v-76q24 40 65.5 64t98.5 24q86 0 135 -52.5t49 -152.5v-325h-94v305q0 74 -31.5 108.5t-87.5 34.5q-51 0 -92 -43.5t-41 -131.5zM266 584l55 128h101l-70 -128h-86z" />
    <glyph glyph-name="Ncommaaccent" unicode="&#x145;" horiz-adv-x="751" 
d="M670 700v-702h-125l-365 579v-577h-98v700h129l361 -574v574h98zM312 -152l2 92h95l-1 -74q-2 -42 -26.5 -68.5t-75.5 -36.5l-3 34q26 7 38.5 18t14.5 23q0 5 -2.5 7.5t-6.5 3.5l-5.5 0.5t-12 0.5h-12h-5.5z" />
    <glyph glyph-name="ncommaaccent" unicode="&#x146;" horiz-adv-x="581" 
d="M168 273v-273h-94v518h92v-76q24 40 65.5 64t98.5 24q86 0 135 -52.5t49 -152.5v-325h-94v305q0 74 -31.5 108.5t-87.5 34.5q-51 0 -92 -43.5t-41 -131.5zM250 -152l2 92h95l-1 -74q-2 -42 -26.5 -68.5t-75.5 -36.5l-3 34q26 7 38.5 18t14.5 23q0 5 -2.5 7.5t-6.5 3.5
l-5.5 0.5t-12 0.5h-12h-5.5z" />
    <glyph glyph-name="Ncaron" unicode="&#x147;" horiz-adv-x="751" 
d="M670 700v-702h-125l-365 579v-577h-98v700h129l361 -574v574h98zM550 886l-114 -128h-89l-114 128h87l73 -76l71 76h86z" />
    <glyph glyph-name="ncaron" unicode="&#x148;" horiz-adv-x="581" 
d="M168 273v-273h-94v518h92v-76q24 40 65.5 64t98.5 24q86 0 135 -52.5t49 -152.5v-325h-94v305q0 74 -31.5 108.5t-87.5 34.5q-51 0 -92 -43.5t-41 -131.5zM462 712l-114 -128h-89l-114 128h87l73 -76l71 76h86z" />
    <glyph glyph-name="napostrophe" unicode="&#x149;" horiz-adv-x="606" 
d="M6 620l2 92h95l-1 -74q-2 -42 -26.5 -68.5t-75.5 -36.5l-3 34q26 7 38.5 18t14.5 23q0 5 -2.5 7.5t-6.5 3.5l-5.5 0.5t-12 0.5h-12h-5.5zM184 273v-273h-94v518h92v-76q24 40 65.5 64t98.5 24q86 0 135 -52.5t49 -152.5v-325h-94v305q0 74 -31.5 108.5t-87.5 34.5
q-51 0 -92 -43.5t-41 -131.5z" />
    <glyph glyph-name="Eng" unicode="&#x14a;" horiz-adv-x="751" 
d="M572 700h98v-698q0 -98 -48 -147.5t-136 -49.5q-21 0 -40 2t-32 5v89q15 -4 30.5 -5.5t31.5 -1.5q48 0 72 28.5t24 85.5v12l-392 583v-603h-98v700h138l352 -523v523z" />
    <glyph glyph-name="eng" unicode="&#x14b;" horiz-adv-x="583" 
d="M516 -56q0 -78 -34 -106.5t-94 -28.5q-20 0 -36 0.5t-40 1.5v77h9t17 -0.5t17 -0.5h9q34 0 46 13.5t12 52.5v349q0 75 -32.5 110t-86.5 35t-94.5 -45t-40.5 -145v-258h-94v518h92v-100q19 54 64 82.5t102 28.5q87 0 135.5 -52.5t48.5 -153.5v-378z" />
    <glyph glyph-name="Omacron" unicode="&#x14c;" horiz-adv-x="783" 
d="M391 -12q-72 0 -135.5 26t-110 73t-74 115t-27.5 152t28 151t75.5 113.5t110.5 71.5t133 25q71 0 134.5 -24.5t110.5 -71t75 -114t28 -151.5q0 -83 -27.5 -151t-74.5 -115.5t-111 -73.5t-135 -26zM391 78q51 0 96 20t77.5 56t51 87t18.5 113t-19 112.5t-51.5 85.5t-77 54
t-95.5 19t-95.5 -19t-76.5 -54t-51 -85.5t-19 -112.5t18.5 -113t51 -87t77 -56t95.5 -20zM265 793v65h253v-65h-253z" />
    <glyph glyph-name="omacron" unicode="&#x14d;" horiz-adv-x="603" 
d="M301 -11q-54 0 -102 19.5t-83.5 55t-56 86.5t-20.5 113q0 60 20.5 109.5t56 84t83.5 54t102 19.5q55 0 103.5 -19t83.5 -53.5t55.5 -84t20.5 -110.5t-21 -112t-56.5 -86.5t-83.5 -55.5t-102 -20zM301 72q72 0 119 53.5t47 137.5q0 81 -47 132.5t-119 51.5t-119 -51.5
t-47 -132.5q0 -84 47 -137.5t119 -53.5zM175 619v65h253v-65h-253z" />
    <glyph glyph-name="Obreve" unicode="&#x14e;" horiz-adv-x="783" 
d="M391 -12q-72 0 -135.5 26t-110 73t-74 115t-27.5 152t28 151t75.5 113.5t110.5 71.5t133 25q71 0 134.5 -24.5t110.5 -71t75 -114t28 -151.5q0 -83 -27.5 -151t-74.5 -115.5t-111 -73.5t-135 -26zM391 78q51 0 96 20t77.5 56t51 87t18.5 113t-19 112.5t-51.5 85.5t-77 54
t-95.5 19t-95.5 -19t-76.5 -54t-51 -85.5t-19 -112.5t18.5 -113t51 -87t77 -56t95.5 -20zM392 763q-60 0 -95.5 37.5t-37.5 85.5h75q2 -29 19.5 -45t39.5 -16t40 16t20 45h71q-2 -48 -37 -85.5t-95 -37.5z" />
    <glyph glyph-name="obreve" unicode="&#x14f;" horiz-adv-x="603" 
d="M301 -11q-54 0 -102 19.5t-83.5 55t-56 86.5t-20.5 113q0 60 20.5 109.5t56 84t83.5 54t102 19.5q55 0 103.5 -19t83.5 -53.5t55.5 -84t20.5 -110.5t-21 -112t-56.5 -86.5t-83.5 -55.5t-102 -20zM301 72q72 0 119 53.5t47 137.5q0 81 -47 132.5t-119 51.5t-119 -51.5
t-47 -132.5q0 -84 47 -137.5t119 -53.5zM302 589q-60 0 -95.5 37.5t-37.5 85.5h75q2 -29 19.5 -45t39.5 -16t40 16t20 45h71q-2 -48 -37 -85.5t-95 -37.5z" />
    <glyph glyph-name="Ohungarumlaut" unicode="&#x150;" horiz-adv-x="783" 
d="M391 -12q-72 0 -135.5 26t-110 73t-74 115t-27.5 152t28 151t75.5 113.5t110.5 71.5t133 25q71 0 134.5 -24.5t110.5 -71t75 -114t28 -151.5q0 -83 -27.5 -151t-74.5 -115.5t-111 -73.5t-135 -26zM391 78q51 0 96 20t77.5 56t51 87t18.5 113t-19 112.5t-51.5 85.5t-77 54
t-95.5 19t-95.5 -19t-76.5 -54t-51 -85.5t-19 -112.5t18.5 -113t51 -87t77 -56t95.5 -20zM271 758l57 128h90l-82 -128h-65zM431 758l57 128h90l-82 -128h-65z" />
    <glyph glyph-name="ohungarumlaut" unicode="&#x151;" horiz-adv-x="603" 
d="M301 -11q-54 0 -102 19.5t-83.5 55t-56 86.5t-20.5 113q0 60 20.5 109.5t56 84t83.5 54t102 19.5q55 0 103.5 -19t83.5 -53.5t55.5 -84t20.5 -110.5t-21 -112t-56.5 -86.5t-83.5 -55.5t-102 -20zM301 72q72 0 119 53.5t47 137.5q0 81 -47 132.5t-119 51.5t-119 -51.5
t-47 -132.5q0 -84 47 -137.5t119 -53.5zM181 584l57 128h90l-82 -128h-65zM341 584l57 128h90l-82 -128h-65z" />
    <glyph glyph-name="OE" unicode="&#x152;" horiz-adv-x="1011" 
d="M43 354q0 87 30 152.5t81 108t121.5 64t151.5 21.5h540v-86h-384v-207h356v-87h-356v-234h391v-86h-547q-81 0 -151.5 22t-122 66t-81 111t-29.5 155zM426 86h57v528h-57q-61 0 -112.5 -16t-88 -48t-57 -81t-20.5 -115q0 -65 20.5 -115.5t57 -84t88 -51t112.5 -17.5z" />
    <glyph glyph-name="oe" unicode="&#x153;" horiz-adv-x="988" 
d="M949 153q-12 -41 -36.5 -71.5t-57.5 -51t-72 -31t-79 -10.5q-61 0 -114 32.5t-84 88.5q-31 -57 -86.5 -89t-118.5 -32q-55 0 -103 19.5t-83.5 55t-56 86.5t-20.5 113q0 60 20.5 109.5t56 84t84 54t102.5 19.5q64 0 119 -30.5t86 -84.5q32 56 85 85.5t110 29.5
q49 0 94.5 -17.5t80.5 -51t55.5 -84t20.5 -116.5v-27h-399q5 -74 49 -119.5t104 -45.5q49 0 88 20.5t58 63.5h97zM700 451q-54 0 -97 -38t-50 -103h297q-2 63 -45 102t-105 39zM301 71q67 0 112.5 54t45.5 138q0 81 -45.5 133.5t-112.5 52.5q-73 0 -120 -52.5t-47 -133.5
q0 -84 47 -138.5t120 -53.5z" />
    <glyph glyph-name="Racute" unicode="&#x154;" horiz-adv-x="664" 
d="M348 294h-167v-294h-99v700h290q61 0 105.5 -15t73 -41.5t42.5 -62t14 -75.5q0 -71 -37.5 -114t-90.5 -56v-2q38 -9 64 -39t42 -103l45 -192h-103l-43 185q-14 63 -44.5 86t-91.5 23zM181 614v-233h178q75 0 110.5 34.5t35.5 85.5q0 49 -35 81t-107 32h-182zM292 758
l55 128h101l-70 -128h-86z" />
    <glyph glyph-name="racute" unicode="&#x155;" horiz-adv-x="361" 
d="M168 294v-294h-94v518h92v-95q7 16 18 31.5t28 31.5q23 19 50 27t55 8q9 0 17.5 -1t14.5 -2v-93q-13 1 -23.5 2t-21.5 1q-21 0 -44.5 -5.5t-44 -20t-34 -41t-13.5 -67.5zM179 584l55 128h101l-70 -128h-86z" />
    <glyph glyph-name="Rcommaaccent" unicode="&#x156;" horiz-adv-x="664" 
d="M348 294h-167v-294h-99v700h290q61 0 105.5 -15t73 -41.5t42.5 -62t14 -75.5q0 -71 -37.5 -114t-90.5 -56v-2q38 -9 64 -39t42 -103l45 -192h-103l-43 185q-14 63 -44.5 86t-91.5 23zM181 614v-233h178q75 0 110.5 34.5t35.5 85.5q0 49 -35 81t-107 32h-182zM278 -152
l2 92h95l-1 -74q-2 -42 -26.5 -68.5t-75.5 -36.5l-3 34q26 7 38.5 18t14.5 23q0 5 -2.5 7.5t-6.5 3.5l-5.5 0.5t-12 0.5h-12h-5.5z" />
    <glyph glyph-name="rcommaaccent" unicode="&#x157;" horiz-adv-x="361" 
d="M168 294v-294h-94v518h92v-95q7 16 18 31.5t28 31.5q23 19 50 27t55 8q9 0 17.5 -1t14.5 -2v-93q-13 1 -23.5 2t-21.5 1q-21 0 -44.5 -5.5t-44 -20t-34 -41t-13.5 -67.5zM74 -152l2 92h95l-1 -74q-2 -42 -26.5 -68.5t-75.5 -36.5l-3 34q26 7 38.5 18t14.5 23
q0 5 -2.5 7.5t-6.5 3.5l-5.5 0.5t-12 0.5h-12h-5.5z" />
    <glyph glyph-name="Rcaron" unicode="&#x158;" horiz-adv-x="664" 
d="M348 294h-167v-294h-99v700h290q61 0 105.5 -15t73 -41.5t42.5 -62t14 -75.5q0 -71 -37.5 -114t-90.5 -56v-2q38 -9 64 -39t42 -103l45 -192h-103l-43 185q-14 63 -44.5 86t-91.5 23zM181 614v-233h178q75 0 110.5 34.5t35.5 85.5q0 49 -35 81t-107 32h-182zM487 886
l-114 -128h-89l-114 128h87l73 -76l71 76h86z" />
    <glyph glyph-name="rcaron" unicode="&#x159;" horiz-adv-x="361" 
d="M168 294v-294h-94v518h92v-95q7 16 18 31.5t28 31.5q23 19 50 27t55 8q9 0 17.5 -1t14.5 -2v-93q-13 1 -23.5 2t-21.5 1q-21 0 -44.5 -5.5t-44 -20t-34 -41t-13.5 -67.5zM374 712l-114 -128h-89l-114 128h87l73 -76l71 76h86z" />
    <glyph glyph-name="Sacute" unicode="&#x15a;" horiz-adv-x="618" 
d="M310 -10q-56 0 -105 14.5t-85.5 43t-59.5 71.5t-27 100h97q7 -72 57.5 -108t122.5 -36q33 0 63 7.5t53 22t36.5 35.5t13.5 47q0 49 -38.5 75.5t-107.5 42.5l-75 18q-98 23 -146.5 67.5t-48.5 119.5q0 45 20 83t54 65t80.5 42t97.5 15q107 0 178 -54.5t79 -154.5h-96
q-7 57 -50 90.5t-111 33.5q-30 0 -58 -8.5t-49 -23.5t-33.5 -35.5t-12.5 -44.5q0 -42 30.5 -65t91.5 -38l86 -20q95 -23 153 -68.5t58 -129.5q0 -52 -23 -91t-60.5 -65t-86 -38.5t-98.5 -12.5zM282 758l55 128h101l-70 -128h-86z" />
    <glyph glyph-name="sacute" unicode="&#x15b;" horiz-adv-x="504" 
d="M253 -12q-43 0 -81.5 11t-68 33t-49 55t-23.5 77h93q6 -49 41.5 -73.5t87.5 -24.5q22 0 44 4.5t39 14t27.5 24t10.5 34.5q0 31 -27.5 48t-84.5 28l-55 10q-73 13 -115.5 47.5t-42.5 93.5q0 37 16 67t43.5 50.5t64.5 32t78 11.5q39 0 75 -10.5t64 -31t45.5 -50.5t20.5 -68
h-92q-4 40 -36 61.5t-77 21.5q-47 0 -79 -20.5t-32 -54.5q0 -29 23.5 -44.5t71.5 -23.5l57 -10q81 -15 128 -51.5t47 -101.5q0 -41 -18 -71t-47.5 -50t-68.5 -29.5t-80 -9.5zM222 584l55 128h101l-70 -128h-86z" />
    <glyph glyph-name="Scircumflex" unicode="&#x15c;" horiz-adv-x="618" 
d="M310 -10q-56 0 -105 14.5t-85.5 43t-59.5 71.5t-27 100h97q7 -72 57.5 -108t122.5 -36q33 0 63 7.5t53 22t36.5 35.5t13.5 47q0 49 -38.5 75.5t-107.5 42.5l-75 18q-98 23 -146.5 67.5t-48.5 119.5q0 45 20 83t54 65t80.5 42t97.5 15q107 0 178 -54.5t79 -154.5h-96
q-7 57 -50 90.5t-111 33.5q-30 0 -58 -8.5t-49 -23.5t-33.5 -35.5t-12.5 -44.5q0 -42 30.5 -65t91.5 -38l86 -20q95 -23 153 -68.5t58 -129.5q0 -52 -23 -91t-60.5 -65t-86 -38.5t-98.5 -12.5zM385 758l-73 76l-71 -76h-86l114 128h89l114 -128h-87z" />
    <glyph glyph-name="scircumflex" unicode="&#x15d;" horiz-adv-x="504" 
d="M253 -12q-43 0 -81.5 11t-68 33t-49 55t-23.5 77h93q6 -49 41.5 -73.5t87.5 -24.5q22 0 44 4.5t39 14t27.5 24t10.5 34.5q0 31 -27.5 48t-84.5 28l-55 10q-73 13 -115.5 47.5t-42.5 93.5q0 37 16 67t43.5 50.5t64.5 32t78 11.5q39 0 75 -10.5t64 -31t45.5 -50.5t20.5 -68
h-92q-4 40 -36 61.5t-77 21.5q-47 0 -79 -20.5t-32 -54.5q0 -29 23.5 -44.5t71.5 -23.5l57 -10q81 -15 128 -51.5t47 -101.5q0 -41 -18 -71t-47.5 -50t-68.5 -29.5t-80 -9.5zM325 584l-73 76l-71 -76h-86l114 128h89l114 -128h-87z" />
    <glyph glyph-name="Scedilla" unicode="&#x15e;" horiz-adv-x="618" 
d="M310 -10q-56 0 -105 14.5t-85.5 43t-59.5 71.5t-27 100h97q7 -72 57.5 -108t122.5 -36q33 0 63 7.5t53 22t36.5 35.5t13.5 47q0 49 -38.5 75.5t-107.5 42.5l-75 18q-98 23 -146.5 67.5t-48.5 119.5q0 45 20 83t54 65t80.5 42t97.5 15q107 0 178 -54.5t79 -154.5h-96
q-7 57 -50 90.5t-111 33.5q-30 0 -58 -8.5t-49 -23.5t-33.5 -35.5t-12.5 -44.5q0 -42 30.5 -65t91.5 -38l86 -20q95 -23 153 -68.5t58 -129.5q0 -52 -23 -91t-60.5 -65t-86 -38.5t-98.5 -12.5zM314 -189q-19 0 -38 3.5t-32 7.5v50q14 -4 33 -7.5t32 -3.5q18 0 32 6.5
t14 23.5q0 14 -13.5 20.5t-31.5 6.5q-10 0 -22.5 -2.5t-23.5 -6.5h-7l33 112h61l-24 -62q3 1 9 1.5t12 0.5q21 0 45 -14t24 -53q0 -40 -28 -61.5t-75 -21.5z" />
    <glyph glyph-name="scedilla" unicode="&#x15f;" horiz-adv-x="504" 
d="M253 -12q-43 0 -81.5 11t-68 33t-49 55t-23.5 77h93q6 -49 41.5 -73.5t87.5 -24.5q22 0 44 4.5t39 14t27.5 24t10.5 34.5q0 31 -27.5 48t-84.5 28l-55 10q-73 13 -115.5 47.5t-42.5 93.5q0 37 16 67t43.5 50.5t64.5 32t78 11.5q39 0 75 -10.5t64 -31t45.5 -50.5t20.5 -68
h-92q-4 40 -36 61.5t-77 21.5q-47 0 -79 -20.5t-32 -54.5q0 -29 23.5 -44.5t71.5 -23.5l57 -10q81 -15 128 -51.5t47 -101.5q0 -41 -18 -71t-47.5 -50t-68.5 -29.5t-80 -9.5zM253 -189q-19 0 -38 3.5t-32 7.5v50q14 -4 33 -7.5t32 -3.5q18 0 32 6.5t14 23.5q0 14 -13.5 20.5
t-31.5 6.5q-10 0 -22.5 -2.5t-23.5 -6.5h-7l33 112h61l-24 -62q3 1 9 1.5t12 0.5q21 0 45 -14t24 -53q0 -40 -28 -61.5t-75 -21.5z" />
    <glyph glyph-name="Scaron" unicode="&#x160;" horiz-adv-x="618" 
d="M310 -10q-56 0 -105 14.5t-85.5 43t-59.5 71.5t-27 100h97q7 -72 57.5 -108t122.5 -36q33 0 63 7.5t53 22t36.5 35.5t13.5 47q0 49 -38.5 75.5t-107.5 42.5l-75 18q-98 23 -146.5 67.5t-48.5 119.5q0 45 20 83t54 65t80.5 42t97.5 15q107 0 178 -54.5t79 -154.5h-96
q-7 57 -50 90.5t-111 33.5q-30 0 -58 -8.5t-49 -23.5t-33.5 -35.5t-12.5 -44.5q0 -42 30.5 -65t91.5 -38l86 -20q95 -23 153 -68.5t58 -129.5q0 -52 -23 -91t-60.5 -65t-86 -38.5t-98.5 -12.5zM478 886l-114 -128h-89l-114 128h87l73 -76l71 76h86z" />
    <glyph glyph-name="scaron" unicode="&#x161;" horiz-adv-x="504" 
d="M253 -12q-43 0 -81.5 11t-68 33t-49 55t-23.5 77h93q6 -49 41.5 -73.5t87.5 -24.5q22 0 44 4.5t39 14t27.5 24t10.5 34.5q0 31 -27.5 48t-84.5 28l-55 10q-73 13 -115.5 47.5t-42.5 93.5q0 37 16 67t43.5 50.5t64.5 32t78 11.5q39 0 75 -10.5t64 -31t45.5 -50.5t20.5 -68
h-92q-4 40 -36 61.5t-77 21.5q-47 0 -79 -20.5t-32 -54.5q0 -29 23.5 -44.5t71.5 -23.5l57 -10q81 -15 128 -51.5t47 -101.5q0 -41 -18 -71t-47.5 -50t-68.5 -29.5t-80 -9.5zM418 712l-114 -128h-89l-114 128h87l73 -76l71 76h86z" />
    <glyph glyph-name="Tcommaaccent" unicode="&#x162;" horiz-adv-x="598" 
d="M249 0v614h-240v86h580v-86h-240v-614h-100zM247 -152l2 92h95l-1 -74q-2 -42 -26.5 -68.5t-75.5 -36.5l-3 34q26 7 38.5 18t14.5 23q0 5 -2.5 7.5t-6.5 3.5l-5.5 0.5t-12 0.5h-12h-5.5z" />
    <glyph glyph-name="tcommaaccent" unicode="&#x163;" horiz-adv-x="356" 
d="M331 1q-26 -1 -43.5 -1.5t-45.5 -0.5q-61 0 -98 25.5t-37 106.5v311h-91v76h91v108l93 42v-150h131v-76h-131v-297q0 -43 15.5 -56t49.5 -13h66v-75zM181 -152l2 92h95l-1 -74q-2 -42 -26.5 -68.5t-75.5 -36.5l-3 34q26 7 38.5 18t14.5 23q0 5 -2.5 7.5t-6.5 3.5
l-5.5 0.5t-12 0.5h-12h-5.5z" />
    <glyph glyph-name="Tcaron" unicode="&#x164;" horiz-adv-x="598" 
d="M249 0v614h-240v86h580v-86h-240v-614h-100zM464 886l-114 -128h-89l-114 128h87l73 -76l71 76h86z" />
    <glyph glyph-name="tcaron" unicode="&#x165;" horiz-adv-x="346" 
d="M331 1q-26 -1 -43.5 -1.5t-45.5 -0.5q-61 0 -98 25.5t-37 106.5v311h-91v76h91v108l93 42v-150h131v-76h-131v-297q0 -43 15.5 -56t49.5 -13h66v-75zM341 620l2 92h95l-1 -74q-2 -42 -26.5 -68.5t-75.5 -36.5l-3 34q26 7 38.5 18t14.5 23q0 5 -2.5 7.5t-6.5 3.5l-5.5 0.5
t-12 0.5h-12h-5.5z" />
    <glyph glyph-name="Tbar" unicode="&#x166;" horiz-adv-x="611" 
d="M532 335h-177v-335h-100v335h-176v75h176v204h-240v86h580v-86h-240v-204h177v-75z" />
    <glyph glyph-name="tbar" unicode="&#x167;" horiz-adv-x="359" 
d="M337 1q-26 -1 -43.5 -1.5t-45.5 -0.5q-61 0 -98 25.5t-37 106.5v129h-93v76h93v106h-91v76h91v108l93 42v-150h131v-76h-131v-106h136v-76h-136v-115q0 -43 15.5 -56t49.5 -13h66v-75z" />
    <glyph glyph-name="Utilde" unicode="&#x168;" horiz-adv-x="702" 
d="M348 -12q-61 0 -112.5 19t-88.5 56t-57.5 90.5t-20.5 122.5v424h100v-419q0 -96 50.5 -149.5t130.5 -53.5t129.5 53t49.5 149v420h100v-423q0 -69 -21 -123t-58 -90.5t-88.5 -56t-113.5 -19.5zM416 760q-23 0 -40 8t-36 21q-14 10 -27 17.5t-26 7.5q-15 0 -28 -10.5
t-25 -35.5l-56 32q19 41 48 62t63 21q22 0 39.5 -7.5t36.5 -21.5q13 -10 26 -17.5t26 -7.5q16 0 29 10.5t25 35.5l56 -31q-19 -42 -48 -63t-63 -21z" />
    <glyph glyph-name="utilde" unicode="&#x169;" horiz-adv-x="574" 
d="M409 0v77q-24 -42 -64.5 -64.5t-98.5 -22.5q-79 0 -129 51t-50 150v327h94v-310q0 -69 32 -103t83 -34t90.5 40.5t39.5 128.5v278h94v-518h-91zM347 586q-23 0 -40 8t-36 21q-14 10 -27 17.5t-26 7.5q-15 0 -28 -10.5t-25 -35.5l-56 32q19 41 48 62t63 21q22 0 39.5 -7.5
t36.5 -21.5q13 -10 26 -17.5t26 -7.5q16 0 29 10.5t25 35.5l56 -31q-19 -42 -48 -63t-63 -21z" />
    <glyph glyph-name="Umacron" unicode="&#x16a;" horiz-adv-x="702" 
d="M348 -12q-61 0 -112.5 19t-88.5 56t-57.5 90.5t-20.5 122.5v424h100v-419q0 -96 50.5 -149.5t130.5 -53.5t129.5 53t49.5 149v420h100v-423q0 -69 -21 -123t-58 -90.5t-88.5 -56t-113.5 -19.5zM227 793v65h253v-65h-253z" />
    <glyph glyph-name="umacron" unicode="&#x16b;" horiz-adv-x="574" 
d="M409 0v77q-24 -42 -64.5 -64.5t-98.5 -22.5q-79 0 -129 51t-50 150v327h94v-310q0 -69 32 -103t83 -34t90.5 40.5t39.5 128.5v278h94v-518h-91zM157 619v65h253v-65h-253z" />
    <glyph glyph-name="Ubreve" unicode="&#x16c;" horiz-adv-x="702" 
d="M348 -12q-61 0 -112.5 19t-88.5 56t-57.5 90.5t-20.5 122.5v424h100v-419q0 -96 50.5 -149.5t130.5 -53.5t129.5 53t49.5 149v420h100v-423q0 -69 -21 -123t-58 -90.5t-88.5 -56t-113.5 -19.5zM353 763q-60 0 -95.5 37.5t-37.5 85.5h75q2 -29 19.5 -45t39.5 -16t40 16
t20 45h71q-2 -48 -37 -85.5t-95 -37.5z" />
    <glyph glyph-name="ubreve" unicode="&#x16d;" horiz-adv-x="574" 
d="M409 0v77q-24 -42 -64.5 -64.5t-98.5 -22.5q-79 0 -129 51t-50 150v327h94v-310q0 -69 32 -103t83 -34t90.5 40.5t39.5 128.5v278h94v-518h-91zM283 589q-60 0 -95.5 37.5t-37.5 85.5h75q2 -29 19.5 -45t39.5 -16t40 16t20 45h71q-2 -48 -37 -85.5t-95 -37.5z" />
    <glyph glyph-name="Uring" unicode="&#x16e;" horiz-adv-x="702" 
d="M348 -12q-61 0 -112.5 19t-88.5 56t-57.5 90.5t-20.5 122.5v424h100v-419q0 -96 50.5 -149.5t130.5 -53.5t129.5 53t49.5 149v420h100v-423q0 -69 -21 -123t-58 -90.5t-88.5 -56t-113.5 -19.5zM353 737q-33 0 -58.5 23.5t-25.5 56.5t25.5 57t58.5 24q34 0 58.5 -24
t24.5 -57t-24.5 -56.5t-58.5 -23.5zM353 781q15 0 25 11t10 25q0 15 -10 26t-25 11q-14 0 -25 -11t-11 -26q0 -14 11 -25t25 -11z" />
    <glyph glyph-name="uring" unicode="&#x16f;" horiz-adv-x="574" 
d="M409 0v77q-24 -42 -64.5 -64.5t-98.5 -22.5q-79 0 -129 51t-50 150v327h94v-310q0 -69 32 -103t83 -34t90.5 40.5t39.5 128.5v278h94v-518h-91zM283 563q-33 0 -58.5 23.5t-25.5 56.5t25.5 57t58.5 24q34 0 58.5 -24t24.5 -57t-24.5 -56.5t-58.5 -23.5zM283 607
q15 0 25 11t10 25q0 15 -10 26t-25 11q-14 0 -25 -11t-11 -26q0 -14 11 -25t25 -11z" />
    <glyph glyph-name="Uhungarumlaut" unicode="&#x170;" horiz-adv-x="702" 
d="M348 -12q-61 0 -112.5 19t-88.5 56t-57.5 90.5t-20.5 122.5v424h100v-419q0 -96 50.5 -149.5t130.5 -53.5t129.5 53t49.5 149v420h100v-423q0 -69 -21 -123t-58 -90.5t-88.5 -56t-113.5 -19.5zM232 758l57 128h90l-82 -128h-65zM392 758l57 128h90l-82 -128h-65z" />
    <glyph glyph-name="uhungarumlaut" unicode="&#x171;" horiz-adv-x="574" 
d="M409 0v77q-24 -42 -64.5 -64.5t-98.5 -22.5q-79 0 -129 51t-50 150v327h94v-310q0 -69 32 -103t83 -34t90.5 40.5t39.5 128.5v278h94v-518h-91zM162 584l57 128h90l-82 -128h-65zM322 584l57 128h90l-82 -128h-65z" />
    <glyph glyph-name="Uogonek" unicode="&#x172;" horiz-adv-x="704" 
d="M539 -187q-14 -2 -26.5 -3t-25.5 -1q-49 0 -83 22t-34 68q0 25 10 48.5t28 45.5q-14 -2 -29 -3.5t-31 -1.5q-61 0 -112.5 19t-88.5 56t-57.5 90.5t-20.5 122.5v424h100v-419q0 -96 50.5 -149.5t130.5 -53.5t129.5 53t49.5 149v420h100v-423q0 -72 -22.5 -127.5
t-62.5 -92.5l4 -1q-44 -41 -72.5 -75t-28.5 -73q0 -24 16 -33.5t42 -9.5q8 0 15.5 1t18.5 3v-56z" />
    <glyph glyph-name="uogonek" unicode="&#x173;" horiz-adv-x="578" 
d="M409 0v77q-24 -42 -64.5 -64.5t-98.5 -22.5q-79 0 -129 51t-50 150v327h94v-310q0 -69 32 -103t83 -34t90.5 40.5t39.5 128.5v278h94v-518h-91zM452 -191q-49 0 -83 21t-34 67q0 37 30.5 69.5t69.5 54.5l69 -21q-14 -7 -30.5 -17.5t-30 -22.5t-22.5 -26t-9 -28
q0 -22 16 -31.5t42 -9.5q8 0 15.5 1t18.5 3v-56q-14 -2 -27 -3t-25 -1z" />
    <glyph glyph-name="Wcircumflex" unicode="&#x174;" horiz-adv-x="960" 
d="M637 -2l-156 569l-158 -569h-103l-206 702h99l163 -570l156 572h100l157 -572l163 570h94l-206 -702h-103zM556 758l-73 76l-71 -76h-86l114 128h89l114 -128h-87z" />
    <glyph glyph-name="wcircumflex" unicode="&#x175;" horiz-adv-x="768" 
d="M497 -2l-116 397l-115 -397h-92l-165 520h95l119 -402l118 404h86l117 -404l120 402h91l-166 -520h-92zM457 584l-73 76l-71 -76h-86l114 128h89l114 -128h-87z" />
    <glyph glyph-name="Ycircumflex" unicode="&#x176;" horiz-adv-x="592" 
d="M607 700l-254 -437v-263h-100v264l-254 436h116l192 -336l191 336h109zM371 758l-73 76l-71 -76h-86l114 128h89l114 -128h-87z" />
    <glyph glyph-name="ycircumflex" unicode="&#x177;" horiz-adv-x="494" 
d="M491 518l-283 -708h-95l96 232l-206 476h101l151 -366l141 366h95zM320 585l-73 76l-71 -76h-86l114 128h89l114 -128h-87z" />
    <glyph glyph-name="Ydieresis" unicode="&#x178;" horiz-adv-x="592" 
d="M607 700l-254 -437v-263h-100v264l-254 436h116l192 -336l191 336h109zM346 782v104h94v-104h-94zM156 782v104h94v-104h-94z" />
    <glyph glyph-name="Zacute" unicode="&#x179;" horiz-adv-x="629" 
d="M593 86v-86h-555v90l429 524h-417v86h536v-89l-429 -525h436zM280 758l55 128h101l-70 -128h-86z" />
    <glyph glyph-name="zacute" unicode="&#x17a;" horiz-adv-x="490" 
d="M455 80v-80h-421v84l309 354h-301v80h410v-84l-308 -354h311zM212 584l55 128h101l-70 -128h-86z" />
    <glyph glyph-name="Zdotaccent" unicode="&#x17b;" horiz-adv-x="629" 
d="M593 86v-86h-555v90l429 524h-417v86h536v-89l-429 -525h436zM265 780v102h92v-102h-92z" />
    <glyph glyph-name="zdotaccent" unicode="&#x17c;" horiz-adv-x="490" 
d="M455 80v-80h-421v84l309 354h-301v80h410v-84l-308 -354h311zM196 606v102h92v-102h-92z" />
    <glyph glyph-name="Zcaron" unicode="&#x17d;" horiz-adv-x="629" 
d="M593 86v-86h-555v90l429 524h-417v86h536v-89l-429 -525h436zM476 886l-114 -128h-89l-114 128h87l73 -76l71 76h86z" />
    <glyph glyph-name="zcaron" unicode="&#x17e;" horiz-adv-x="490" 
d="M455 80v-80h-421v84l309 354h-301v80h410v-84l-308 -354h311zM407 712l-114 -128h-89l-114 128h87l73 -76l71 76h86z" />
    <glyph glyph-name="florin" unicode="&#x192;" horiz-adv-x="477" 
d="M193 -43q-16 -86 -59.5 -117t-114.5 -31q-18 0 -30.5 0.5t-25.5 1.5v77q10 -1 21.5 -2t24.5 -1q43 0 63.5 18.5t27.5 56.5l90 486h-93v76h107l9 46q16 84 59.5 116t114.5 32q18 0 34 -0.5t31 -1.5v-76q-13 1 -28 1.5t-28 0.5q-44 0 -63 -17t-26 -57l-8 -44h122v-76h-136z
" />
    <glyph glyph-name="Icaron" unicode="&#x1cf;" horiz-adv-x="264" 
d="M82 0v700h100v-700h-100zM297 886l-114 -128h-89l-114 128h87l73 -76l71 76h86z" />
    <glyph glyph-name="icaron" unicode="&#x1d0;" 
d="M74 0v518h94v-518h-94zM286 712l-114 -128h-89l-114 128h87l73 -76l71 76h86z" />
    <glyph glyph-name="Aringacute" unicode="&#x1fa;" horiz-adv-x="667" 
d="M308 913l55 128h101l-70 -128h-86zM330 737q-33 0 -58.5 23.5t-25.5 56.5t25.5 57t58.5 24q34 0 58.5 -24t24.5 -57t-24.5 -56.5t-58.5 -23.5zM330 781q15 0 25 11t10 25q0 15 -10 26t-25 11q-14 0 -25 -11t-11 -26q0 -14 11 -25t25 -11zM575 0l-72 183h-323l-72 -183
h-101l284 702h107l283 -702h-106zM214 270h255l-127 326z" />
    <glyph glyph-name="aringacute" unicode="&#x1fb;" horiz-adv-x="553" 
d="M401 0l-2 77q-24 -39 -67 -63t-105 -24q-35 0 -69 10t-60 29t-42 48.5t-16 68.5q0 43 19 72t51.5 48t77.5 31t96 21l109 20v3q0 60 -32 86.5t-87 26.5q-53 0 -86.5 -25t-41.5 -71h-92q5 40 24 72t48.5 54t68 34t81.5 12q44 0 83 -10.5t66.5 -33.5t43.5 -60.5t16 -90.5
l-1 -227q0 -12 1 -35t3 -73h-87zM134 150q0 -40 32 -61.5t78 -21.5q63 0 106 38.5t43 112.5v45q-137 -21 -198 -42.5t-61 -70.5zM276 563q-33 0 -58.5 23.5t-25.5 56.5t25.5 57t58.5 24q34 0 58.5 -24t24.5 -57t-24.5 -56.5t-58.5 -23.5zM276 607q15 0 25 11t10 25
q0 15 -10 26t-25 11q-14 0 -25 -11t-11 -26q0 -14 11 -25t25 -11zM246 746l55 128h101l-70 -128h-86z" />
    <glyph glyph-name="AEacute" unicode="&#x1fc;" horiz-adv-x="1005" 
d="M482 0v203h-248l-122 -203h-109l435 700h524v-86h-381v-207h353v-86h-353v-235h388v-86h-487zM286 289h196v326zM661 758l55 128h101l-70 -128h-86z" />
    <glyph glyph-name="aeacute" unicode="&#x1fd;" horiz-adv-x="911" 
d="M870 153q-12 -41 -37 -71.5t-57.5 -51t-71.5 -31t-79 -10.5q-61 0 -113.5 33t-84.5 88q-26 -52 -74.5 -86t-123.5 -34q-37 0 -71.5 9.5t-60.5 28.5t-41.5 48.5t-15.5 67.5q0 85 71.5 121t186.5 48l84 14v13q0 60 -31 87.5t-83 27.5q-51 0 -84 -25.5t-40 -71.5h-91
q4 40 22.5 72t47.5 54.5t67 34t80 11.5q54 0 101 -22.5t69 -72.5q33 46 81.5 70.5t100.5 24.5q49 0 95 -17.5t80.5 -51t55.5 -84t21 -116.5v-27h-400q5 -74 49 -119.5t104 -45.5q49 0 88 20.5t59 63.5h96zM621 451q-54 0 -97 -38t-50 -103h297q-2 63 -45 102t-105 39z
M134 148q0 -40 31.5 -60.5t74.5 -20.5q60 0 101 40.5t41 121.5v25q-128 -13 -188 -34.5t-60 -71.5zM416 580l55 128h101l-70 -128h-86z" />
    <glyph glyph-name="Oslashacute" unicode="&#x1fe;" horiz-adv-x="781" 
d="M391 -12q-44 0 -85 9.5t-78 28.5l-54 -79h-103l88 127q-53 48 -84 119t-31 161q0 84 28 151t75.5 113.5t110.5 71.5t133 25q43 0 83 -9t76 -26l47 73h104l-81 -119q54 -46 86.5 -117.5t32.5 -162.5q0 -83 -27.5 -151t-74.5 -115.5t-111 -73.5t-135 -26zM149 354
q0 -60 18 -110.5t49 -86.5l280 445q-24 11 -50.5 17t-54.5 6q-51 0 -95.5 -19t-76.5 -54t-51 -85.5t-19 -112.5zM634 354q0 63 -19 113.5t-53 85.5l-279 -449q24 -13 51.5 -19.5t56.5 -6.5q51 0 96 20t77.5 56t51 87t18.5 113zM360 757l55 128h101l-70 -128h-86z" />
    <glyph glyph-name="oslashacute" unicode="&#x1ff;" horiz-adv-x="605" 
d="M301 -11q-35 0 -67.5 8t-60.5 23l-53 -76h-88l85 118q-36 36 -57 87t-21 114q0 60 20.5 109.5t56 84t83.5 54t102 19.5q35 0 68.5 -8t61.5 -23l48 70h88l-80 -111q36 -34 56.5 -84t20.5 -111t-21 -112t-56.5 -86.5t-83.5 -55.5t-102 -20zM135 263q0 -37 10 -69.5
t28 -57.5l205 293q-17 9 -36.5 13.5t-40.5 4.5q-72 0 -119 -51.5t-47 -132.5zM467 263q0 36 -9.5 67t-27.5 54l-205 -294q17 -8 36 -13t40 -5q72 0 119 53.5t47 137.5zM267 588l55 128h101l-70 -128h-86z" />
    <glyph glyph-name="Scommaaccent" unicode="&#x218;" horiz-adv-x="618" 
d="M310 -10q-56 0 -105 14.5t-85.5 43t-59.5 71.5t-27 100h97q7 -72 57.5 -108t122.5 -36q33 0 63 7.5t53 22t36.5 35.5t13.5 47q0 49 -38.5 75.5t-107.5 42.5l-75 18q-98 23 -146.5 67.5t-48.5 119.5q0 45 20 83t54 65t80.5 42t97.5 15q107 0 178 -54.5t79 -154.5h-96
q-7 57 -50 90.5t-111 33.5q-30 0 -58 -8.5t-49 -23.5t-33.5 -35.5t-12.5 -44.5q0 -42 30.5 -65t91.5 -38l86 -20q95 -23 153 -68.5t58 -129.5q0 -52 -23 -91t-60.5 -65t-86 -38.5t-98.5 -12.5zM261 -152l2 92h95l-1 -74q-2 -42 -26.5 -68.5t-75.5 -36.5l-3 34q26 7 38.5 18
t14.5 23q0 5 -2.5 7.5t-6.5 3.5l-5.5 0.5t-12 0.5h-12h-5.5z" />
    <glyph glyph-name="scommaaccent" unicode="&#x219;" horiz-adv-x="504" 
d="M253 -12q-43 0 -81.5 11t-68 33t-49 55t-23.5 77h93q6 -49 41.5 -73.5t87.5 -24.5q22 0 44 4.5t39 14t27.5 24t10.5 34.5q0 31 -27.5 48t-84.5 28l-55 10q-73 13 -115.5 47.5t-42.5 93.5q0 37 16 67t43.5 50.5t64.5 32t78 11.5q39 0 75 -10.5t64 -31t45.5 -50.5t20.5 -68
h-92q-4 40 -36 61.5t-77 21.5q-47 0 -79 -20.5t-32 -54.5q0 -29 23.5 -44.5t71.5 -23.5l57 -10q81 -15 128 -51.5t47 -101.5q0 -41 -18 -71t-47.5 -50t-68.5 -29.5t-80 -9.5zM200 -152l2 92h95l-1 -74q-2 -42 -26.5 -68.5t-75.5 -36.5l-3 34q26 7 38.5 18t14.5 23
q0 5 -2.5 7.5t-6.5 3.5l-5.5 0.5t-12 0.5h-12h-5.5z" />
    <glyph glyph-name="circumflex" unicode="&#x2c6;" horiz-adv-x="340" 
d="M242 588l-73 76l-71 -76h-86l114 128h89l114 -128h-87z" />
    <glyph glyph-name="caron" unicode="&#x2c7;" horiz-adv-x="340" 
d="M335 716l-114 -128h-89l-114 128h87l73 -76l71 76h86z" />
    <glyph glyph-name="breve" unicode="&#x2d8;" horiz-adv-x="296" 
d="M148 593q-60 0 -95.5 37.5t-37.5 85.5h75q2 -29 19.5 -45t39.5 -16t40 16t20 45h71q-2 -48 -37 -85.5t-95 -37.5z" />
    <glyph glyph-name="dotaccent" unicode="&#x2d9;" horiz-adv-x="194" 
d="M51 610v102h92v-102h-92z" />
    <glyph glyph-name="ring" unicode="&#x2da;" horiz-adv-x="237" 
d="M119 567q-33 0 -58.5 23.5t-25.5 56.5t25.5 57t58.5 24q34 0 58.5 -24t24.5 -57t-24.5 -56.5t-58.5 -23.5zM119 611q15 0 25 11t10 25q0 15 -10 26t-25 11q-14 0 -25 -11t-11 -26q0 -14 11 -25t25 -11z" />
    <glyph glyph-name="ogonek" unicode="&#x2db;" 
d="M145 -191q-49 0 -83 21t-34 67q0 37 30.5 69.5t69.5 54.5l69 -21q-14 -7 -30.5 -17.5t-30 -22.5t-22.5 -26t-9 -28q0 -22 16 -31.5t42 -9.5q8 0 15.5 1t18.5 3v-56q-14 -2 -27 -3t-25 -1z" />
    <glyph glyph-name="tilde" unicode="&#x2dc;" horiz-adv-x="386" 
d="M257 590q-23 0 -40 8t-36 21q-14 10 -27 17.5t-26 7.5q-15 0 -28 -10.5t-25 -35.5l-56 32q19 41 48 62t63 21q22 0 39.5 -7.5t36.5 -21.5q13 -10 26 -17.5t26 -7.5q16 0 29 10.5t25 35.5l56 -31q-19 -42 -48 -63t-63 -21z" />
    <glyph glyph-name="hungarumlaut" unicode="&#x2dd;" horiz-adv-x="360" 
d="M39 588l57 128h90l-82 -128h-65zM199 588l57 128h90l-82 -128h-65z" />
    <glyph glyph-name="alpha" unicode="&#x3b1;" horiz-adv-x="617" 
d="M451 0v99q-19 -47 -64.5 -78.5t-110.5 -31.5q-49 0 -92.5 18t-75 52.5t-50 86t-18.5 117.5q0 63 19 113t51 83.5t75 51.5t90 18q66 0 111.5 -28.5t64.5 -71.5v89h93v-518h-93zM295 67q64 0 110.5 52t46.5 144q0 91 -46.5 139.5t-110.5 48.5q-68 0 -112.5 -50.5
t-44.5 -137.5q0 -90 45 -143t112 -53z" />
    <glyph glyph-name="Wgrave" unicode="&#x1e80;" horiz-adv-x="960" 
d="M637 -2l-156 569l-158 -569h-103l-206 702h99l163 -570l156 572h100l157 -572l163 570h94l-206 -702h-103zM437 758l-71 128h101l56 -128h-86z" />
    <glyph glyph-name="wgrave" unicode="&#x1e81;" horiz-adv-x="768" 
d="M497 -2l-116 397l-115 -397h-92l-165 520h95l119 -402l118 404h86l117 -404l120 402h91l-166 -520h-92zM338 584l-71 128h101l56 -128h-86z" />
    <glyph glyph-name="Wacute" unicode="&#x1e82;" horiz-adv-x="960" 
d="M637 -2l-156 569l-158 -569h-103l-206 702h99l163 -570l156 572h100l157 -572l163 570h94l-206 -702h-103zM453 758l55 128h101l-70 -128h-86z" />
    <glyph glyph-name="wacute" unicode="&#x1e83;" horiz-adv-x="768" 
d="M497 -2l-116 397l-115 -397h-92l-165 520h95l119 -402l118 404h86l117 -404l120 402h91l-166 -520h-92zM354 584l55 128h101l-70 -128h-86z" />
    <glyph glyph-name="Wdieresis" unicode="&#x1e84;" horiz-adv-x="960" 
d="M637 -2l-156 569l-158 -569h-103l-206 702h99l163 -570l156 572h100l157 -572l163 570h94l-206 -702h-103zM531 782v104h94v-104h-94zM341 782v104h94v-104h-94z" />
    <glyph glyph-name="wdieresis" unicode="&#x1e85;" horiz-adv-x="768" 
d="M497 -2l-116 397l-115 -397h-92l-165 520h95l119 -402l118 404h86l117 -404l120 402h91l-166 -520h-92zM432 608v104h94v-104h-94zM242 608v104h94v-104h-94z" />
    <glyph glyph-name="Ygrave" unicode="&#x1ef2;" horiz-adv-x="592" 
d="M607 700l-254 -437v-263h-100v264l-254 436h116l192 -336l191 336h109zM251 758l-71 128h101l56 -128h-86z" />
    <glyph glyph-name="ygrave" unicode="&#x1ef3;" horiz-adv-x="494" 
d="M491 518l-283 -708h-95l96 232l-206 476h101l151 -366l141 366h95zM201 585l-71 128h101l56 -128h-86z" />
    <glyph glyph-name="endash" unicode="&#x2013;" horiz-adv-x="579" 
d="M46 250v86h487v-86h-487z" />
    <glyph glyph-name="emdash" unicode="&#x2014;" horiz-adv-x="941" 
d="M46 250v86h849v-86h-849z" />
    <glyph glyph-name="quoteleft" unicode="&#x2018;" horiz-adv-x="250" 
d="M179 566v-124h-109v117q0 64 31 100t84 49l1 -55q-25 -8 -42 -28t-17 -45q0 -7 3 -10.5t12 -3.5h37z" />
    <glyph glyph-name="quoteright" unicode="&#x2019;" horiz-adv-x="250" 
d="M71 576v124h109v-117q0 -64 -31 -100t-84 -49l-1 55q25 8 42 28t17 45q0 7 -3 10.5t-12 3.5h-37z" />
    <glyph glyph-name="quotesinglbase" unicode="&#x201a;" horiz-adv-x="250" 
d="M71 0v124h109v-117q0 -64 -31 -100t-84 -49l-1 55q25 8 42 28t17 45q0 7 -3 10.5t-12 3.5h-37z" />
    <glyph glyph-name="quotedblleft" unicode="&#x201c;" horiz-adv-x="446" 
d="M179 566v-124h-109v117q0 64 31 100t84 49l1 -55q-25 -8 -42 -28t-17 -45q0 -7 3 -10.5t12 -3.5h37zM375 566v-124h-109v117q0 64 31 100t84 49l1 -55q-25 -8 -42 -28t-17 -45q0 -7 3 -10.5t12 -3.5h37z" />
    <glyph glyph-name="quotedblright" unicode="&#x201d;" horiz-adv-x="446" 
d="M266 576v124h109v-117q0 -64 -31 -100t-84 -49l-1 55q25 8 42 28t17 45q0 7 -3 10.5t-12 3.5h-37zM71 576v124h109v-117q0 -64 -31 -100t-84 -49l-1 55q25 8 42 28t17 45q0 7 -3 10.5t-12 3.5h-37z" />
    <glyph glyph-name="quotedblbase" unicode="&#x201e;" horiz-adv-x="446" 
d="M266 0v124h109v-117q0 -64 -31 -100t-84 -49l-1 55q25 8 42 28t17 45q0 7 -3 10.5t-12 3.5h-37zM71 0v124h109v-117q0 -64 -31 -100t-84 -49l-1 55q25 8 42 28t17 45q0 7 -3 10.5t-12 3.5h-37z" />
    <glyph glyph-name="dagger" unicode="&#x2020;" horiz-adv-x="510" 
d="M462 449h-161v-449h-92v449h-161v76h161v176h92v-176h161v-76z" />
    <glyph glyph-name="daggerdbl" unicode="&#x2021;" horiz-adv-x="510" 
d="M462 187h-161v-187h-92v187h-161v76h161v186h-161v76h161v176h92v-176h161v-76h-161v-186h161v-76z" />
    <glyph glyph-name="bullet" unicode="&#x2022;" horiz-adv-x="368" 
d="M176 185q-23 0 -43.5 11.5t-35 29.5t-23 41t-8.5 46t11 43t29 35t41 24t46 9t43 -11.5t34.5 -30t23 -41.5t8.5 -46t-11 -43t-29 -35t-40.5 -23.5t-45.5 -8.5z" />
    <glyph glyph-name="ellipsis" unicode="&#x2026;" horiz-adv-x="748" 
d="M569 0v124h109v-124h-109zM320 0v124h109v-124h-109zM71 0v124h109v-124h-109z" />
    <glyph glyph-name="perthousand" unicode="&#x2030;" horiz-adv-x="1244" 
d="M212 364q-33 0 -63 12t-52.5 34t-36 55t-13.5 74t13.5 73t36 53.5t52.5 33t63 11.5t63.5 -11t53 -32.5t36 -54t13.5 -73.5t-13.5 -74t-36 -55t-53 -34t-63.5 -12zM212 432q42 0 63 30.5t21 76.5q0 45 -21 74.5t-63 29.5q-40 0 -61.5 -29.5t-21.5 -74.5q0 -46 21.5 -76.5
t61.5 -30.5zM136 0l491 700h95l-491 -700h-95zM648 -9q-33 0 -63 12t-52.5 34t-36 55t-13.5 74t13.5 73t36 53.5t52.5 33t63 11.5t63.5 -11t53 -32.5t36 -54t13.5 -73.5t-13.5 -74t-36 -55t-53 -34t-63.5 -12zM648 59q42 0 63 30.5t21 76.5q0 45 -21 74.5t-63 29.5
q-40 0 -61.5 -29.5t-21.5 -74.5q0 -46 21.5 -76.5t61.5 -30.5zM1033 -9q-33 0 -63 12t-52.5 34t-36 55t-13.5 74t13.5 73t36 53.5t52.5 33t63 11.5t63.5 -11t53 -32.5t36 -54t13.5 -73.5t-13.5 -74t-36 -55t-53 -34t-63.5 -12zM1033 59q42 0 63 30.5t21 76.5q0 45 -21 74.5
t-63 29.5q-40 0 -61.5 -29.5t-21.5 -74.5q0 -46 21.5 -76.5t61.5 -30.5z" />
    <glyph glyph-name="guilsinglleft" unicode="&#x2039;" horiz-adv-x="301" 
d="M254 454l-113 -186l113 -184h-87l-128 182v2l128 186h87z" />
    <glyph glyph-name="guilsinglright" unicode="&#x203a;" horiz-adv-x="301" 
d="M268 270l-128 -186h-87l113 186l-113 184h87l128 -182v-2z" />
    <glyph glyph-name="fraction" unicode="&#x2044;" horiz-adv-x="159" 
d="M-214 0l491 700h95l-491 -700h-95z" />
    <glyph glyph-name="twoinferior" unicode="&#x2082;" horiz-adv-x="335" 
d="M305 60v-60h-290l3 22q6 41 34 73t82 64q51 31 73 59t22 64q0 32 -16 53t-49 21q-34 0 -51.5 -24.5t-18.5 -64.5h-69q4 51 40.5 84t98.5 33q63 0 103 -30t40 -80q0 -51 -33.5 -81.5t-105.5 -63.5q-46 -21 -68 -37.5t-29 -31.5h234z" />
    <glyph glyph-name="fourinferior" unicode="&#x2084;" horiz-adv-x="326" 
d="M313 101h-55v-101h-71v101h-178v41l178 233h71v-223h55v-51zM56 152h131v171z" />
    <glyph glyph-name="Euro" unicode="&#x20ac;" horiz-adv-x="758" 
d="M702 202q-20 -98 -90.5 -155t-172.5 -57q-104 0 -180.5 67.5t-100.5 188.5h-103v60h95q-1 10 -1.5 21.5t-0.5 22.5t0.5 22t1.5 21h-95v60h103q25 118 102.5 183t178.5 65q49 0 93 -14t78.5 -40t58 -65.5t32.5 -90.5h-90q-16 63 -61.5 95.5t-110.5 32.5q-69 0 -117 -43.5
t-66 -122.5h200v-60h-209q-1 -10 -1.5 -21t-0.5 -22t0.5 -22.5t1.5 -21.5h209v-60h-201q18 -81 65 -127.5t119 -46.5q65 0 109.5 35t62.5 95h91z" />
    <glyph glyph-name="trademark" unicode="&#x2122;" horiz-adv-x="685" 
d="M117 443v207h-92v50h242v-50h-92v-207h-58zM446 442l-82 226v-226h-56v258h99l68 -188l67 188h95v-258h-56v226l-82 -226h-53z" />
    <glyph glyph-name="estimated" unicode="&#x212e;" horiz-adv-x="810" 
d="M404 -15q-75 0 -140 22.5t-112.5 64.5t-75 102.5t-27.5 134.5q0 79 29.5 140.5t78 102.5t112.5 62t133 21q81 0 146.5 -24t111.5 -68t71.5 -106t28.5 -137h-566q-6 0 -10 -2.5t-4 -13.5v-165q0 -13 16 -32t45.5 -35.5t71 -28.5t91.5 -12q70 0 130 29t96 73h65
q-63 -68 -134.5 -98t-156.5 -30zM402 609q-42 0 -82 -9t-71 -23t-50 -32t-19 -37v-166q0 -9 3.5 -12.5t11.5 -3.5h416q11 0 14 4t3 12v166q0 19 -21 37.5t-53.5 32.5t-73 22.5t-78.5 8.5z" />
    <glyph glyph-name="minus" unicode="&#x2212;" horiz-adv-x="582" 
d="M50 305v76h482v-76h-482z" />
    <glyph glyph-name="approxequal" unicode="&#x2248;" horiz-adv-x="538" 
d="M368 160q-34 0 -60.5 13t-47.5 29l-42 30t-46 15q-28 0 -47.5 -18t-37.5 -51l-71 36q34 65 74.5 90t84.5 25q34 0 60.5 -12.5t47.5 -28.5q20 -16 41.5 -31t46.5 -15q28 0 47.5 18t37.5 51l70 -36q-33 -65 -73.5 -90t-84.5 -25zM368 368q-34 0 -60.5 13t-47.5 29l-42 30
t-46 15q-28 0 -47.5 -18t-37.5 -51l-71 36q34 65 74.5 90t84.5 25q34 0 60.5 -12.5t47.5 -28.5q20 -16 41.5 -31t46.5 -15q28 0 47.5 18t37.5 51l70 -36q-33 -65 -73.5 -90t-84.5 -25z" />
    <glyph glyph-name="notequal" unicode="&#x2260;" horiz-adv-x="600" 
d="M541 185h-273l-63 -121h-86l63 121h-123v76h163l73 140h-236v75h276l62 119h85l-62 -119h121v-75h-160l-73 -140h233v-76z" />
    <glyph glyph-name="dotlessj" unicode="&#xf6be;" 
d="M74 517h94v-573q0 -78 -34 -106.5t-93 -28.5q-21 0 -37 0.5t-40 1.5v77q14 0 27.5 -0.5t25.5 -0.5q33 0 45 13.5t12 52.5v564z" />
    <glyph glyph-name="commaaccent" unicode="&#xf6c3;" horiz-adv-x="225" 
d="M70 716l2 92h95l-1 -74q-2 -42 -26.5 -68.5t-75.5 -36.5l-3 34q26 7 38.5 18t14.5 23q0 5 -2.5 7.5t-6.5 3.5l-5.5 0.5t-12 0.5h-12h-5.5z" />
    <glyph glyph-name="thinspace" horiz-adv-x="34" 
 />
    <glyph glyph-name="ampersand.alt" horiz-adv-x="676" 
d="M662 311h-82v-311h-239q-58 0 -108 9.5t-86.5 31.5t-57.5 60t-21 94q0 36 13.5 65t36.5 49t54 32t65 14v2q-63 7 -109.5 49.5t-46.5 109.5q0 50 21 88t56.5 62.5t84.5 36.5t104 12q98 0 162 -45t71 -121h-96q-5 34 -40.5 60.5t-96.5 26.5q-76 0 -122 -30t-46 -90
q0 -51 45.5 -84.5t117.5 -33.5h143v66h95v-66h82v-87zM485 86v225h-143q-81 0 -128 -28t-47 -88q0 -64 47.5 -86.5t125.5 -22.5h145z" />
    <glyph glyph-name="i.TRK" horiz-adv-x="244" 
d="M73 611v109h96v-109h-96zM74 0v518h94v-518h-94z" />
    <glyph glyph-name="dieresis.i" horiz-adv-x="353" 
d="M45 618v98h95v-98h-95zM213 618v98h95v-98h-95z" />
    <glyph glyph-name="commaaccentup" horiz-adv-x="201" 
d="M145 716l-2 -92h-95l1 74q2 42 26.5 68.5t75.5 36.5l3 -34q-26 -7 -38.5 -18t-14.5 -23q0 -5 2.5 -7.5t6.5 -3.5l5.5 -0.5t12 -0.5h12h5.5z" />
    <glyph glyph-name="dot" horiz-adv-x="236" 
d="M68 245v125h100v-125h-100z" />
    <glyph glyph-name="zero.onum" horiz-adv-x="659" 
d="M329 -9q-60 0 -111 23.5t-88 67t-57.5 106.5t-20.5 141t20.5 140.5t57.5 105t88 65.5t111 23t111.5 -23t88 -65.5t57.5 -105t21 -140.5t-21 -140.5t-58 -106.5t-88 -67.5t-111 -23.5zM329 73q43 0 76.5 19t56.5 53t35 81t12 103q0 113 -47 182t-133 69q-84 0 -131 -69
t-47 -182q0 -56 11.5 -103t34 -81t56 -53t76.5 -19z" />
    <glyph glyph-name="one.onum" horiz-adv-x="374" 
d="M292 650v-650h-94v537l-165 -111v92l185 132h74z" />
    <glyph glyph-name="two.onum" horiz-adv-x="554" 
d="M511 80v-80h-482l5 39q10 60 59 117.5t150 118.5q81 50 123.5 90.5t42.5 95.5q0 49 -34.5 84.5t-96.5 35.5q-60 0 -97 -35t-41 -87h-96q7 91 71.5 147.5t162.5 56.5q49 0 91.5 -14.5t73 -41t48 -64t17.5 -83.5q0 -80 -53.5 -133t-160.5 -115q-66 -38 -103 -70t-50 -62
h370z" />
    <glyph glyph-name="three.onum" horiz-adv-x="560" 
d="M267 -9q-100 0 -166 52.5t-76 143.5h96q5 -49 42.5 -84.5t103.5 -35.5t106 32t40 84q0 57 -42.5 86.5t-110.5 29.5q-16 0 -33 -0.5t-34 -1.5v80q13 -1 32.5 -1.5t36.5 -0.5q57 0 100 27t43 82q0 46 -36.5 74.5t-96.5 28.5q-64 0 -100 -32.5t-42 -76.5h-94q10 84 74 134.5
t162 50.5q48 0 90 -11.5t73.5 -34t49.5 -56t18 -76.5q0 -63 -40.5 -99.5t-94.5 -45.5v-2q60 -7 102 -48t42 -110q0 -46 -19.5 -81t-52.5 -59t-78 -36.5t-95 -12.5z" />
    <glyph glyph-name="four.onum" horiz-adv-x="555" 
d="M531 167h-99v-167h-89v167h-322v68l317 415h94v-407h99v-76zM122 243h221v288z" />
    <glyph glyph-name="five.onum" horiz-adv-x="561" 
d="M514 216q0 -49 -18.5 -90.5t-51 -71.5t-77 -46.5t-95.5 -16.5q-45 0 -85.5 13t-71.5 37t-51 58.5t-24 77.5h96q5 -44 42 -74.5t94 -30.5q65 0 104 42.5t39 99.5q0 59 -40.5 100.5t-102.5 41.5q-50 0 -83 -20.5t-48 -41.5h-75l28 356h392v-80h-319l-14 -178q24 19 58 31
t75 12q47 0 88.5 -15.5t72.5 -44t49 -69t18 -90.5z" />
    <glyph glyph-name="six.onum" horiz-adv-x="588" 
d="M538 206q0 -47 -18 -86.5t-50 -68t-76.5 -44.5t-96.5 -16t-97.5 17.5t-78 54t-51.5 93t-19 132.5q0 103 21 175t58 116t86.5 64t106.5 20q86 0 147 -44t70 -128h-96q-5 42 -36.5 69t-84.5 27q-73 0 -123 -59.5t-54 -205.5q19 43 62 71.5t105 28.5q44 0 84.5 -14t71.5 -41
t50 -67.5t19 -93.5zM157 203q0 -54 38 -95t102 -41q65 0 104 39.5t39 96.5q0 69 -43 105.5t-102 36.5q-57 0 -97.5 -38t-40.5 -104z" />
    <glyph glyph-name="seven.onum" horiz-adv-x="494" 
d="M465 565q-106 -125 -162 -263t-58 -302h-98q3 94 22 174.5t49 150t70 130.5t86 115h-352v80h458v-68z" />
    <glyph glyph-name="eight.onum" horiz-adv-x="578" 
d="M289 -11q-52 0 -96 13t-76 37.5t-49.5 58.5t-17.5 76q0 33 12 60.5t31 48.5t44 34.5t51 17.5v2q-22 5 -44.5 17t-39.5 31t-28 45t-11 58q0 41 18.5 74t49 55t71.5 34t85 12t85 -11.5t71.5 -33.5t49 -55t18.5 -75q0 -63 -38 -101t-84 -50v-2q27 -4 52 -17t44 -33.5
t30.5 -48.5t11.5 -62q0 -41 -18 -75.5t-50 -58.5t-76.5 -37.5t-95.5 -13.5zM289 587q-54 0 -92 -27.5t-38 -76.5q0 -48 36.5 -79.5t93.5 -31.5t93.5 31t36.5 80t-38 76.5t-92 27.5zM289 65q66 0 104.5 32.5t38.5 82.5q0 49 -39 82.5t-104 33.5t-104 -33t-39 -83
q0 -49 38.5 -82t104.5 -33z" />
    <glyph glyph-name="nine.onum" horiz-adv-x="587" 
d="M536 359q0 -102 -20 -173t-55 -114t-85 -62t-109 -19q-43 0 -81 10.5t-67.5 32t-48.5 53.5t-24 75h96q7 -42 39.5 -68t85.5 -26q79 0 126.5 60.5t48.5 210.5q-18 -45 -61 -76t-108 -31q-43 0 -83.5 13.5t-71.5 40.5t-49.5 68t-18.5 94q0 47 18 86.5t50 68t76 44.5t95 16
q53 0 98 -18t78 -54.5t52 -94.5t19 -137zM291 309q57 0 97 38.5t40 104.5q0 54 -37 94.5t-102 40.5q-63 0 -102 -39.5t-39 -96.5q0 -69 43 -105.5t100 -36.5z" />
    <glyph glyph-name="Euro.onum" horiz-adv-x="748" 
d="M693 200q-19 -97 -89 -153.5t-171 -56.5q-103 0 -178 66.5t-99 185.5h-102v60h94q-1 10 -1.5 21t-0.5 22q0 10 0.5 21t1.5 21h-94v60h102q12 59 38.5 104.5t62.5 76.5t81 47.5t95 16.5q49 0 92 -13.5t77 -40t57.5 -65.5t32.5 -89h-90q-16 62 -60.5 93.5t-108.5 31.5
q-68 0 -114.5 -42t-64.5 -120h196v-60h-205q-1 -10 -1.5 -20.5t-0.5 -21.5t0.5 -22t1.5 -21h205v-60h-197q18 -79 64 -124.5t116 -45.5q64 0 107.5 34t61.5 94h91z" />
    <glyph glyph-name="dollar.onum" horiz-adv-x="621" 
d="M577 195q0 -46 -18.5 -82t-49 -61t-71 -40t-84.5 -20v-81h-69v80q-101 7 -169.5 63.5t-76.5 161.5h97q7 -63 48 -98t101 -42v236l-27 6q-96 22 -143.5 66.5t-47.5 117.5q0 41 17 76.5t46.5 61.5t69 43t85.5 21v75h69v-76q90 -9 149 -61.5t66 -142.5h-96q-6 47 -37.5 78.5
t-81.5 40.5v-224l15 -4q94 -22 151 -67.5t57 -127.5zM165 510q0 -40 30 -62.5t90 -37.5v209q-50 -7 -85 -37.5t-35 -71.5zM476 184q0 45 -32.5 70t-89.5 41v-217q51 8 86.5 35.5t35.5 70.5z" />
    <glyph glyph-name="sterling.onum" horiz-adv-x="628" 
d="M573 82v-82h-518v69q43 16 61.5 47t18.5 75v128h-84v80h84v75q0 104 61 161t157 57q39 0 75.5 -12.5t64.5 -36.5t47 -59.5t24 -81.5h-94q-4 42 -34 75t-84 33q-60 0 -90 -36.5t-30 -93.5v-81h197v-80h-197v-98q0 -60 -14 -91.5t-39 -48.5l1 -3q18 2 37 3t42 1h314z" />
    <glyph glyph-name="yen.onum" horiz-adv-x="627" 
d="M544 115h-179v-115h-100v115h-179v76h179v51h-179v75h145l-211 373h117l182 -334l182 334h106l-208 -373h145v-75h-179v-51h179v-76z" />
    <glyph glyph-name="percent.onum" horiz-adv-x="789" 
d="M194 340q-30 0 -57.5 11t-48 31.5t-33 50.5t-12.5 68q0 37 12.5 67t33 50.5t48 31.5t57.5 11q29 0 56.5 -11t48.5 -31.5t33.5 -50.5t12.5 -67q0 -38 -12.5 -68t-33.5 -50.5t-48.5 -31.5t-56.5 -11zM194 403q37 0 57.5 27t20.5 71q0 43 -21 70t-57 27q-37 0 -57.5 -27
t-20.5 -70q0 -44 21 -71t57 -27zM123 0l456 650h86l-456 -650h-86zM596 -8q-30 0 -57.5 11t-48 31.5t-33 50.5t-12.5 68q0 37 12.5 67t33 50.5t48 31.5t57.5 11q29 0 56.5 -11t48.5 -31.5t33.5 -50.5t12.5 -67q0 -38 -12.5 -68t-33.5 -50.5t-48.5 -31.5t-56.5 -11zM596 55
q37 0 57.5 27t20.5 71q0 43 -21 70t-57 27q-37 0 -57.5 -27t-20.5 -70q0 -44 21 -71t57 -27z" />
    <glyph glyph-name="perthousand.onum" horiz-adv-x="1148" 
d="M954 -8q-30 0 -57.5 11t-48 31.5t-33 50.5t-12.5 68q0 37 12.5 67t33 50.5t48 31.5t57.5 11q29 0 56.5 -11t48.5 -31.5t33.5 -50.5t12.5 -67q0 -38 -12.5 -68t-33.5 -50.5t-48.5 -31.5t-56.5 -11zM954 55q37 0 57.5 27t20.5 71q0 43 -21 70t-57 27q-37 0 -57.5 -27
t-20.5 -70q0 -44 21 -71t57 -27zM194 340q-30 0 -57.5 11t-48 31.5t-33 50.5t-12.5 68q0 37 12.5 67t33 50.5t48 31.5t57.5 11q29 0 56.5 -11t48.5 -31.5t33.5 -50.5t12.5 -67q0 -38 -12.5 -68t-33.5 -50.5t-48.5 -31.5t-56.5 -11zM194 403q37 0 57.5 27t20.5 71
q0 43 -21 70t-57 27q-37 0 -57.5 -27t-20.5 -70q0 -44 21 -71t57 -27zM123 0l456 650h86l-456 -650h-86zM596 -8q-30 0 -57.5 11t-48 31.5t-33 50.5t-12.5 68q0 37 12.5 67t33 50.5t48 31.5t57.5 11q29 0 56.5 -11t48.5 -31.5t33.5 -50.5t12.5 -67q0 -38 -12.5 -68
t-33.5 -50.5t-48.5 -31.5t-56.5 -11zM596 55q37 0 57.5 27t20.5 71q0 43 -21 70t-57 27q-37 0 -57.5 -27t-20.5 -70q0 -44 21 -71t57 -27z" />
    <glyph glyph-name="zero.tlf" horiz-adv-x="650" 
d="M325 -10q-62 0 -113 25.5t-86 72.5t-54.5 115t-19.5 151t19.5 150t55 113.5t86 71.5t112.5 25t112.5 -25t86 -71.5t55 -113.5t19.5 -150t-19.5 -150.5t-55.5 -114.5t-86.5 -73t-111.5 -26zM325 77q42 0 74.5 20.5t53.5 57.5t32 88t11 111q0 61 -11 111.5t-32 86
t-53.5 55.5t-74.5 20t-74.5 -20t-53.5 -55.5t-32 -86t-11 -111.5q0 -60 10.5 -111t32 -88t53.5 -57.5t75 -20.5z" />
    <glyph glyph-name="one.tlf" horiz-adv-x="650" 
d="M579 84v-84h-482v84h209v504l-209 -136v96l225 152h81v-616h176z" />
    <glyph glyph-name="two.tlf" horiz-adv-x="650" 
d="M563 84v-84h-500l6 42q11 68 59.5 128t156.5 126q88 54 130 96.5t42 104.5q0 54 -35.5 92t-99.5 38q-63 0 -101.5 -37.5t-42.5 -94.5h-99q7 98 74.5 158.5t168.5 60.5q51 0 94.5 -15.5t74.5 -44t49 -69t18 -90.5q0 -82 -52 -142t-168 -126q-72 -40 -109 -73.5t-48 -69.5
h382z" />
    <glyph glyph-name="three.tlf" horiz-adv-x="650" 
d="M313 -10q-107 0 -177 56.5t-79 154.5h99q6 -54 45.5 -92t111.5 -38t115 34.5t43 91.5q0 61 -46 93t-119 32q-16 0 -34.5 -0.5t-36.5 -1.5v86q14 -1 34.5 -1.5t36.5 -0.5q31 0 59 7t49.5 21.5t34 37t12.5 51.5q0 51 -40 82t-105 31q-68 0 -106.5 -35t-44.5 -84h-98
q10 90 77.5 144.5t171.5 54.5q51 0 96 -12.5t78 -37t52.5 -60.5t19.5 -82q0 -68 -42 -107t-99 -49v-2q62 -8 107 -51.5t45 -118.5q0 -49 -20.5 -87t-56 -64t-83 -39.5t-100.5 -13.5z" />
    <glyph glyph-name="four.tlf" horiz-adv-x="650" 
d="M587 180h-106v-180h-92v180h-343v74l339 446h96v-440h106v-80zM150 260h239v316z" />
    <glyph glyph-name="five.tlf" horiz-adv-x="650" 
d="M573 233q0 -53 -19.5 -98t-53.5 -77t-81.5 -50t-101.5 -18q-49 0 -92 14t-76 40t-54 63t-25 83h99q6 -48 45.5 -81.5t102.5 -33.5q34 0 62.5 12.5t49 34t31.5 49.5t11 59q0 65 -44 109.5t-111 44.5q-54 0 -90 -22t-52 -45h-77l30 383h417v-84h-341l-16 -195
q25 21 62 34.5t82 13.5q50 0 94 -16.5t77 -47.5t52 -74.5t19 -97.5z" />
    <glyph glyph-name="six.tlf" horiz-adv-x="650" 
d="M582 222q0 -51 -19 -93.5t-52.5 -73.5t-80 -48t-100.5 -17t-100.5 18.5t-81 57.5t-54 99.5t-19.5 144.5q0 112 21 189.5t57.5 125t87 68.5t108.5 21q45 0 85 -11t70.5 -33t50.5 -55.5t24 -77.5h-99q-7 45 -42 71t-90 26q-72 0 -121 -65t-53 -222q21 46 65.5 77t107.5 31
q46 0 89 -15t75 -44.5t51.5 -73.5t19.5 -100zM186 218q0 -29 10.5 -56t29.5 -47t46 -32t60 -12q67 0 107.5 42t40.5 105q0 73 -44.5 114.5t-105.5 41.5q-60 0 -102 -42.5t-42 -113.5z" />
    <glyph glyph-name="seven.tlf" horiz-adv-x="650" 
d="M553 610q-111 -137 -170 -290.5t-65 -319.5h-103q11 190 78.5 342t163.5 274h-375v84h487v-71z" />
    <glyph glyph-name="eight.tlf" horiz-adv-x="650" 
d="M325 -12q-55 0 -102 14.5t-80.5 40.5t-52.5 63t-19 82q0 35 12.5 65t33 52.5t47 37t54.5 18.5v2q-24 6 -47.5 19t-42 33.5t-30 48.5t-11.5 63q0 44 19.5 79t52.5 59t76 36.5t90 12.5t90.5 -12.5t76 -36t52 -58.5t19.5 -80q0 -34 -11 -62t-29.5 -48.5t-42 -34t-47.5 -19.5
v-2q28 -4 54.5 -18t47 -36.5t32.5 -52.5t12 -66q0 -45 -19 -82t-53 -63t-81 -40.5t-101 -14.5zM325 634q-57 0 -98.5 -30t-41.5 -84q0 -51 40 -85t100 -34t100 33t40 86t-41.5 83.5t-98.5 30.5zM325 69q69 0 111.5 35t42.5 90q0 53 -43 89.5t-111 36.5t-111 -36t-43 -90
t42.5 -89.5t111.5 -35.5z" />
    <glyph glyph-name="nine.tlf" horiz-adv-x="650" 
d="M574 387q0 -110 -20.5 -186.5t-56.5 -123t-86 -67t-108 -20.5q-45 0 -85 10.5t-71 32t-51.5 55t-25.5 77.5h99q10 -45 45 -69.5t89 -24.5q74 0 122 64.5t50 225.5q-19 -46 -64.5 -78.5t-110.5 -32.5q-45 0 -87 15t-74 44t-51.5 73t-19.5 101q0 50 19 93t52.5 73.5
t79.5 47.5t99 17q54 0 101 -18.5t81.5 -58t54 -101.5t19.5 -149zM318 330q60 0 101.5 43t41.5 114q0 29 -10 56t-29 47t-46 32t-60 12q-65 0 -105.5 -42.5t-40.5 -104.5q0 -75 44 -116t104 -41z" />
    <glyph glyph-name="space.tlf" horiz-adv-x="325" 
 />
    <glyph glyph-name="period.tlf" horiz-adv-x="325" 
d="M101 0v124h109v-124h-109z" />
    <glyph glyph-name="comma.tlf" horiz-adv-x="325" 
d="M101 0v124h109v-117q0 -64 -31 -100t-84 -49l-1 55q25 8 42 28t17 45q0 7 -3 10.5t-12 3.5h-37z" />
    <glyph glyph-name="quoteright.tlf" horiz-adv-x="325" 
d="M101 576v124h109v-117q0 -64 -31 -100t-84 -49l-1 55q25 8 42 28t17 45q0 7 -3 10.5t-12 3.5h-37z" />
    <glyph glyph-name="zero.sup" horiz-adv-x="402" 
d="M201 379q-72 0 -122 52t-50 144q0 90 50 142t122 52t122.5 -52t50.5 -142q0 -92 -50.5 -144t-122.5 -52zM201 408q49 0 70.5 44.5t21.5 122.5t-21.5 121.5t-70.5 43.5t-70.5 -43.5t-21.5 -121.5t21.5 -122.5t70.5 -44.5z" />
    <glyph glyph-name="one.sup" horiz-adv-x="229" 
d="M180 760v-375h-73v325l-86 -56l-1 34l104 72h56z" />
    <glyph glyph-name="two.sup" horiz-adv-x="335" 
d="M305 445v-60h-290l3 22q6 41 34 73t82 64q51 31 73 59t22 64q0 32 -16 53t-49 21q-34 0 -51.5 -24.5t-18.5 -64.5h-69q4 51 40.5 84t98.5 33q63 0 103 -30t40 -80q0 -51 -33.5 -81.5t-105.5 -63.5q-46 -21 -68 -37.5t-29 -31.5h234z" />
    <glyph glyph-name="three.sup" horiz-adv-x="345" 
d="M166 379q-65 0 -104 28.5t-43 78.5h69q4 -34 21 -56.5t57 -22.5q37 0 55 21t18 58q0 39 -21.5 58.5t-58.5 19.5q-10 0 -18.5 -0.5t-18.5 -1.5v33q10 -1 18.5 -1.5t18.5 -0.5q34 0 55 19t21 57q0 34 -17.5 53t-50.5 19q-36 0 -53.5 -23t-20.5 -55h-69q6 48 43.5 77
t99.5 29q59 0 102.5 -25.5t43.5 -73.5q0 -40 -28 -62t-70 -28v-1q44 -5 73.5 -29t29.5 -65q0 -51 -44.5 -78.5t-107.5 -27.5z" />
    <glyph glyph-name="four.sup" horiz-adv-x="326" 
d="M313 486h-55v-101h-71v101h-178v41l178 233h71v-223h55v-51zM56 537h131v171z" />
    <glyph glyph-name="five.sup" horiz-adv-x="335" 
d="M310 504q0 -57 -41 -91t-107 -34q-60 0 -98 28.5t-42 79.5h68q3 -36 20.5 -58.5t51.5 -22.5q37 0 53.5 28t16.5 68q0 46 -22.5 70t-59.5 24q-28 0 -49 -12.5t-29 -26.5h-33l17 203h236v-60h-210l-8 -104q14 14 38 23.5t55 9.5q58 0 100.5 -32.5t42.5 -92.5z" />
    <glyph glyph-name="six.sup" horiz-adv-x="353" 
d="M328 505q0 -57 -41.5 -91.5t-107.5 -34.5q-68 0 -109.5 45.5t-41.5 136.5q0 57 13.5 97t36 64.5t52 35.5t60.5 11q53 0 91 -25t45 -74h-69q-1 33 -19.5 52t-47.5 19q-36 0 -60.5 -34.5t-24.5 -128.5q11 20 34.5 34t54.5 14q54 0 94 -30.5t40 -90.5zM107 503
q0 -43 18.5 -69.5t53.5 -26.5q38 0 55 26.5t17 71.5t-19 68t-53 23q-30 0 -51 -24t-21 -69z" />
    <glyph glyph-name="seven.sup" horiz-adv-x="278" 
d="M257 694q-60 -66 -85 -143t-24 -166h-78q4 104 48.5 178.5t110.5 136.5h-220v60h261v-51z" />
    <glyph glyph-name="eight.sup" horiz-adv-x="349" 
d="M175 378q-63 0 -106 28t-43 78q0 38 28.5 63.5t65.5 29.5v2q-33 7 -59 30t-26 61q0 46 42.5 72.5t97.5 26.5t96.5 -26.5t41.5 -72.5q0 -37 -25.5 -60.5t-59.5 -30.5v-2q38 -4 66 -29.5t28 -63.5q0 -49 -42 -77.5t-105 -28.5zM175 741q-30 0 -47 -19t-17 -54
q0 -34 15.5 -55t48.5 -21q31 0 47 21t16 55q0 35 -17.5 54t-45.5 19zM175 406q35 0 53 21.5t18 57.5q0 33 -18 56t-53 23q-37 0 -54.5 -22.5t-17.5 -56.5q0 -35 18 -57t54 -22z" />
    <glyph glyph-name="nine.sup" horiz-adv-x="354" 
d="M326 587q0 -113 -47 -161t-114 -48q-53 0 -92.5 24.5t-46.5 74.5h68q3 -34 23 -52.5t48 -18.5q40 0 61.5 36t21.5 127q-10 -20 -33.5 -33.5t-55.5 -13.5q-52 0 -92.5 30.5t-40.5 90.5q0 57 41.5 91.5t106.5 34.5q67 0 109.5 -44.5t42.5 -137.5zM175 551q31 0 51.5 25
t20.5 69t-19.5 70t-53.5 26q-36 0 -53.5 -26t-17.5 -70q0 -46 19.5 -70t52.5 -24z" />
    <glyph glyph-name="zero.num" horiz-adv-x="402" 
d="M201 319q-72 0 -122 52t-50 144q0 90 50 142t122 52t122.5 -52t50.5 -142q0 -92 -50.5 -144t-122.5 -52zM201 348q49 0 70.5 44.5t21.5 122.5t-21.5 121.5t-70.5 43.5t-70.5 -43.5t-21.5 -121.5t21.5 -122.5t70.5 -44.5z" />
    <glyph glyph-name="one.num" horiz-adv-x="229" 
d="M180 700v-375h-73v325l-86 -56l-1 34l104 72h56z" />
    <glyph glyph-name="two.num" horiz-adv-x="335" 
d="M305 385v-60h-290l3 22q6 41 34 73t82 64q51 31 73 59t22 64q0 32 -16 53t-49 21q-34 0 -51.5 -24.5t-18.5 -64.5h-69q4 51 40.5 84t98.5 33q63 0 103 -30t40 -80q0 -51 -33.5 -81.5t-105.5 -63.5q-46 -21 -68 -37.5t-29 -31.5h234z" />
    <glyph glyph-name="three.num" horiz-adv-x="345" 
d="M166 319q-65 0 -104 28.5t-43 78.5h69q4 -34 21 -56.5t57 -22.5q37 0 55 21t18 58q0 39 -21.5 58.5t-58.5 19.5q-10 0 -18.5 -0.5t-18.5 -1.5v33q10 -1 18.5 -1.5t18.5 -0.5q34 0 55 19t21 57q0 34 -17.5 53t-50.5 19q-36 0 -53.5 -23t-20.5 -55h-69q6 48 43.5 77
t99.5 29q59 0 102.5 -25.5t43.5 -73.5q0 -40 -28 -62t-70 -28v-1q44 -5 73.5 -29t29.5 -65q0 -51 -44.5 -78.5t-107.5 -27.5z" />
    <glyph glyph-name="four.num" horiz-adv-x="326" 
d="M313 426h-55v-101h-71v101h-178v41l178 233h71v-223h55v-51zM56 477h131v171z" />
    <glyph glyph-name="five.num" horiz-adv-x="335" 
d="M310 444q0 -57 -41 -91t-107 -34q-60 0 -98 28.5t-42 79.5h68q3 -36 20.5 -58.5t51.5 -22.5q37 0 53.5 28t16.5 68q0 46 -22.5 70t-59.5 24q-28 0 -49 -12.5t-29 -26.5h-33l17 203h236v-60h-210l-8 -104q14 14 38 23.5t55 9.5q58 0 100.5 -32.5t42.5 -92.5z" />
    <glyph glyph-name="six.num" horiz-adv-x="353" 
d="M328 445q0 -57 -41.5 -91.5t-107.5 -34.5q-68 0 -109.5 45.5t-41.5 136.5q0 57 13.5 97t36 64.5t52 35.5t60.5 11q53 0 91 -25t45 -74h-69q-1 33 -19.5 52t-47.5 19q-36 0 -60.5 -34.5t-24.5 -128.5q11 20 34.5 34t54.5 14q54 0 94 -30.5t40 -90.5zM107 443
q0 -43 18.5 -69.5t53.5 -26.5q38 0 55 26.5t17 71.5t-19 68t-53 23q-30 0 -51 -24t-21 -69z" />
    <glyph glyph-name="seven.num" horiz-adv-x="278" 
d="M257 634q-60 -66 -85 -143t-24 -166h-78q4 104 48.5 178.5t110.5 136.5h-220v60h261v-51z" />
    <glyph glyph-name="eight.num" horiz-adv-x="349" 
d="M175 318q-63 0 -106 28t-43 78q0 38 28.5 63.5t65.5 29.5v2q-33 7 -59 30t-26 61q0 46 42.5 72.5t97.5 26.5t96.5 -26.5t41.5 -72.5q0 -37 -25.5 -60.5t-59.5 -30.5v-2q38 -4 66 -29.5t28 -63.5q0 -49 -42 -77.5t-105 -28.5zM175 681q-30 0 -47 -19t-17 -54
q0 -34 15.5 -55t48.5 -21q31 0 47 21t16 55q0 35 -17.5 54t-45.5 19zM175 346q35 0 53 21.5t18 57.5q0 33 -18 56t-53 23q-37 0 -54.5 -22.5t-17.5 -56.5q0 -35 18 -57t54 -22z" />
    <glyph glyph-name="nine.num" horiz-adv-x="354" 
d="M326 527q0 -113 -47 -161t-114 -48q-53 0 -92.5 24.5t-46.5 74.5h68q3 -34 23 -52.5t48 -18.5q40 0 61.5 36t21.5 127q-10 -20 -33.5 -33.5t-55.5 -13.5q-52 0 -92.5 30.5t-40.5 90.5q0 57 41.5 91.5t106.5 34.5q67 0 109.5 -44.5t42.5 -137.5zM175 491q31 0 51.5 25
t20.5 69t-19.5 70t-53.5 26q-36 0 -53.5 -26t-17.5 -70q0 -46 19.5 -70t52.5 -24z" />
    <glyph glyph-name="zero.den" horiz-adv-x="402" 
d="M201 -6q-72 0 -122 52t-50 144q0 90 50 142t122 52t122.5 -52t50.5 -142q0 -92 -50.5 -144t-122.5 -52zM201 23q49 0 70.5 44.5t21.5 122.5t-21.5 121.5t-70.5 43.5t-70.5 -43.5t-21.5 -121.5t21.5 -122.5t70.5 -44.5z" />
    <glyph glyph-name="one.den" horiz-adv-x="229" 
d="M180 375v-375h-73v325l-86 -56l-1 34l104 72h56z" />
    <glyph glyph-name="two.den" horiz-adv-x="335" 
d="M305 60v-60h-290l3 22q6 41 34 73t82 64q51 31 73 59t22 64q0 32 -16 53t-49 21q-34 0 -51.5 -24.5t-18.5 -64.5h-69q4 51 40.5 84t98.5 33q63 0 103 -30t40 -80q0 -51 -33.5 -81.5t-105.5 -63.5q-46 -21 -68 -37.5t-29 -31.5h234z" />
    <glyph glyph-name="three.den" horiz-adv-x="345" 
d="M166 -6q-65 0 -104 28.5t-43 78.5h69q4 -34 21 -56.5t57 -22.5q37 0 55 21t18 58q0 39 -21.5 58.5t-58.5 19.5q-10 0 -18.5 -0.5t-18.5 -1.5v33q10 -1 18.5 -1.5t18.5 -0.5q34 0 55 19t21 57q0 34 -17.5 53t-50.5 19q-36 0 -53.5 -23t-20.5 -55h-69q6 48 43.5 77t99.5 29
q59 0 102.5 -25.5t43.5 -73.5q0 -40 -28 -62t-70 -28v-1q44 -5 73.5 -29t29.5 -65q0 -51 -44.5 -78.5t-107.5 -27.5z" />
    <glyph glyph-name="four.den" horiz-adv-x="326" 
d="M313 101h-55v-101h-71v101h-178v41l178 233h71v-223h55v-51zM56 152h131v171z" />
    <glyph glyph-name="five.den" horiz-adv-x="335" 
d="M310 119q0 -57 -41 -91t-107 -34q-60 0 -98 28.5t-42 79.5h68q3 -36 20.5 -58.5t51.5 -22.5q37 0 53.5 28t16.5 68q0 46 -22.5 70t-59.5 24q-28 0 -49 -12.5t-29 -26.5h-33l17 203h236v-60h-210l-8 -104q14 14 38 23.5t55 9.5q58 0 100.5 -32.5t42.5 -92.5z" />
    <glyph glyph-name="six.den" horiz-adv-x="353" 
d="M328 120q0 -57 -41.5 -91.5t-107.5 -34.5q-68 0 -109.5 45.5t-41.5 136.5q0 57 13.5 97t36 64.5t52 35.5t60.5 11q53 0 91 -25t45 -74h-69q-1 33 -19.5 52t-47.5 19q-36 0 -60.5 -34.5t-24.5 -128.5q11 20 34.5 34t54.5 14q54 0 94 -30.5t40 -90.5zM107 118
q0 -43 18.5 -69.5t53.5 -26.5q38 0 55 26.5t17 71.5t-19 68t-53 23q-30 0 -51 -24t-21 -69z" />
    <glyph glyph-name="seven.den" horiz-adv-x="278" 
d="M257 309q-60 -66 -85 -143t-24 -166h-78q4 104 48.5 178.5t110.5 136.5h-220v60h261v-51z" />
    <glyph glyph-name="eight.den" horiz-adv-x="349" 
d="M175 -7q-63 0 -106 28t-43 78q0 38 28.5 63.5t65.5 29.5v2q-33 7 -59 30t-26 61q0 46 42.5 72.5t97.5 26.5t96.5 -26.5t41.5 -72.5q0 -37 -25.5 -60.5t-59.5 -30.5v-2q38 -4 66 -29.5t28 -63.5q0 -49 -42 -77.5t-105 -28.5zM175 356q-30 0 -47 -19t-17 -54
q0 -34 15.5 -55t48.5 -21q31 0 47 21t16 55q0 35 -17.5 54t-45.5 19zM175 21q35 0 53 21.5t18 57.5q0 33 -18 56t-53 23q-37 0 -54.5 -22.5t-17.5 -56.5q0 -35 18 -57t54 -22z" />
    <glyph glyph-name="nine.den" horiz-adv-x="354" 
d="M326 202q0 -113 -47 -161t-114 -48q-53 0 -92.5 24.5t-46.5 74.5h68q3 -34 23 -52.5t48 -18.5q40 0 61.5 36t21.5 127q-10 -20 -33.5 -33.5t-55.5 -13.5q-52 0 -92.5 30.5t-40.5 90.5q0 57 41.5 91.5t106.5 34.5q67 0 109.5 -44.5t42.5 -137.5zM175 166q31 0 51.5 25
t20.5 69t-19.5 70t-53.5 26q-36 0 -53.5 -26t-17.5 -70q0 -46 19.5 -70t52.5 -24z" />
    <glyph glyph-name="zero.sub" horiz-adv-x="402" 
d="M201 -106q-72 0 -122 52t-50 144q0 90 50 142t122 52t122.5 -52t50.5 -142q0 -92 -50.5 -144t-122.5 -52zM201 -77q49 0 70.5 44.5t21.5 122.5t-21.5 121.5t-70.5 43.5t-70.5 -43.5t-21.5 -121.5t21.5 -122.5t70.5 -44.5z" />
    <glyph glyph-name="one.sub" horiz-adv-x="229" 
d="M180 275v-375h-73v325l-86 -56l-1 34l104 72h56z" />
    <glyph glyph-name="two.sub" horiz-adv-x="335" 
d="M305 -40v-60h-290l3 22q6 41 34 73t82 64q51 31 73 59t22 64q0 32 -16 53t-49 21q-34 0 -51.5 -24.5t-18.5 -64.5h-69q4 51 40.5 84t98.5 33q63 0 103 -30t40 -80q0 -51 -33.5 -81.5t-105.5 -63.5q-46 -21 -68 -37.5t-29 -31.5h234z" />
    <glyph glyph-name="three.sub" horiz-adv-x="345" 
d="M166 -106q-65 0 -104 28.5t-43 78.5h69q4 -34 21 -56.5t57 -22.5q37 0 55 21t18 58q0 39 -21.5 58.5t-58.5 19.5q-10 0 -18.5 -0.5t-18.5 -1.5v33q10 -1 18.5 -1.5t18.5 -0.5q34 0 55 19t21 57q0 34 -17.5 53t-50.5 19q-36 0 -53.5 -23t-20.5 -55h-69q6 48 43.5 77
t99.5 29q59 0 102.5 -25.5t43.5 -73.5q0 -40 -28 -62t-70 -28v-1q44 -5 73.5 -29t29.5 -65q0 -51 -44.5 -78.5t-107.5 -27.5z" />
    <glyph glyph-name="four.sub" horiz-adv-x="326" 
d="M313 1h-55v-101h-71v101h-178v41l178 233h71v-223h55v-51zM56 52h131v171z" />
    <glyph glyph-name="five.sub" horiz-adv-x="335" 
d="M310 19q0 -57 -41 -91t-107 -34q-60 0 -98 28.5t-42 79.5h68q3 -36 20.5 -58.5t51.5 -22.5q37 0 53.5 28t16.5 68q0 46 -22.5 70t-59.5 24q-28 0 -49 -12.5t-29 -26.5h-33l17 203h236v-60h-210l-8 -104q14 14 38 23.5t55 9.5q58 0 100.5 -32.5t42.5 -92.5z" />
    <glyph glyph-name="six.sub" horiz-adv-x="353" 
d="M328 20q0 -57 -41.5 -91.5t-107.5 -34.5q-68 0 -109.5 45.5t-41.5 136.5q0 57 13.5 97t36 64.5t52 35.5t60.5 11q53 0 91 -25t45 -74h-69q-1 33 -19.5 52t-47.5 19q-36 0 -60.5 -34.5t-24.5 -128.5q11 20 34.5 34t54.5 14q54 0 94 -30.5t40 -90.5zM107 18
q0 -43 18.5 -69.5t53.5 -26.5q38 0 55 26.5t17 71.5t-19 68t-53 23q-30 0 -51 -24t-21 -69z" />
    <glyph glyph-name="seven.sub" horiz-adv-x="278" 
d="M257 209q-60 -66 -85 -143t-24 -166h-78q4 104 48.5 178.5t110.5 136.5h-220v60h261v-51z" />
    <glyph glyph-name="eight.sub" horiz-adv-x="349" 
d="M175 -107q-63 0 -106 28t-43 78q0 38 28.5 63.5t65.5 29.5v2q-33 7 -59 30t-26 61q0 46 42.5 72.5t97.5 26.5t96.5 -26.5t41.5 -72.5q0 -37 -25.5 -60.5t-59.5 -30.5v-2q38 -4 66 -29.5t28 -63.5q0 -49 -42 -77.5t-105 -28.5zM175 256q-30 0 -47 -19t-17 -54
q0 -34 15.5 -55t48.5 -21q31 0 47 21t16 55q0 35 -17.5 54t-45.5 19zM175 -79q35 0 53 21.5t18 57.5q0 33 -18 56t-53 23q-37 0 -54.5 -22.5t-17.5 -56.5q0 -35 18 -57t54 -22z" />
    <glyph glyph-name="nine.sub" horiz-adv-x="354" 
d="M326 102q0 -113 -47 -161t-114 -48q-53 0 -92.5 24.5t-46.5 74.5h68q3 -34 23 -52.5t48 -18.5q40 0 61.5 36t21.5 127q-10 -20 -33.5 -33.5t-55.5 -13.5q-52 0 -92.5 30.5t-40.5 90.5q0 57 41.5 91.5t106.5 34.5q67 0 109.5 -44.5t42.5 -137.5zM175 66q31 0 51.5 25
t20.5 69t-19.5 70t-53.5 26q-36 0 -53.5 -26t-17.5 -70q0 -46 19.5 -70t52.5 -24z" />
    <glyph glyph-name="a.sup" horiz-adv-x="444" 
d="M312 310l-1 58q-19 -30 -51.5 -48t-78.5 -18q-26 0 -51.5 7.5t-45 22.5t-31.5 37.5t-12 51.5q0 63 51.5 89t130.5 40l82 15v2q0 43 -22.5 61.5t-62.5 18.5q-38 0 -62 -17.5t-29 -51.5h-78q7 61 55 96t116 35q69 0 115.5 -33.5t45.5 -114.5v-169q0 -9 1 -27t2 -55h-74z
M120 425q0 -29 23 -44.5t56 -15.5q44 0 75 27.5t31 79.5v33q-97 -15 -141 -30.5t-44 -49.5z" />
    <glyph glyph-name="b.sup" horiz-adv-x="492" 
d="M451 508q0 -50 -14 -88.5t-38 -64.5t-56.5 -39.5t-68.5 -13.5q-46 0 -80 20.5t-50 52.5v-65h-80v542h81v-209q17 29 50 47.5t79 18.5q37 0 69 -13t56 -38.5t38 -63t14 -86.5zM256 369q47 0 79.5 36.5t32.5 102.5q0 64 -32.5 99t-79.5 35q-46 0 -79.5 -34.5t-33.5 -99.5
q0 -66 34.5 -102.5t78.5 -36.5z" />
    <glyph glyph-name="c.sup" horiz-adv-x="452" 
d="M234 302q-41 0 -76.5 15t-62 41.5t-41.5 65t-15 84.5q0 45 15.5 82t42 63.5t62.5 41t76 14.5q69 0 121.5 -40t60.5 -106h-80q-10 35 -38 56.5t-64 21.5q-49 0 -81.5 -38t-32.5 -95q0 -59 32.5 -98t81.5 -39q36 0 63 20.5t39 57.5h80q-12 -68 -64.5 -107.5t-118.5 -39.5z
" />
    <glyph glyph-name="d.sup" horiz-adv-x="492" 
d="M347 310v65q-16 -32 -49.5 -52.5t-79.5 -20.5q-37 0 -69.5 13.5t-56.5 39.5t-38 64.5t-14 88.5q0 48 14.5 85.5t38.5 63t56.5 39t67.5 13.5q46 0 79.5 -19t49.5 -49v211h80v-542h-79zM236 369q44 0 78 36.5t34 102.5q0 65 -33 99.5t-79 34.5q-49 0 -81 -36t-32 -98
q0 -65 32 -102t81 -37z" />
    <glyph glyph-name="e.sup" horiz-adv-x="462" 
d="M421 424q-9 -31 -28 -54.5t-43.5 -38t-54 -22t-58.5 -7.5q-41 0 -77 14.5t-63 40.5t-43 64.5t-16 86.5q0 47 16 84.5t43 63t62 39.5t73 14t73 -13t61 -39t41.5 -65t15.5 -90v-17h-304q4 -54 38 -86.5t81 -32.5q33 0 60.5 14t42.5 44h80zM231 645q-43 0 -74.5 -27
t-37.5 -73h222q-4 45 -34.5 72.5t-75.5 27.5z" />
    <glyph glyph-name="f.sup" horiz-adv-x="291" 
d="M269 637h-99v-327h-79v327h-70v63h70v45q0 63 31 85.5t86 22.5h32t29 -1v-63q-10 0 -22 0.5t-24 0.5q-25 0 -39 -9.5t-14 -40.5v-40h99v-63z" />
    <glyph glyph-name="g.sup" horiz-adv-x="486" 
d="M420 322q0 -41 -14.5 -72t-39 -51t-57.5 -30t-71 -10q-79 0 -128.5 36t-58.5 95h79q9 -32 36.5 -50t71.5 -18q46 0 74 24t28 74v68q-16 -29 -48.5 -48t-75.5 -19q-36 0 -68 13t-55.5 38t-37.5 61.5t-14 83.5q0 45 14 81t38 60.5t56 37.5t67 13q43 0 75 -19t49 -50v60h80
v-378zM234 388q43 0 75 34t32 95q0 60 -32 93t-75 33q-46 0 -77.5 -34.5t-31.5 -91.5q0 -60 31.5 -94.5t77.5 -34.5z" />
    <glyph glyph-name="h.sup" horiz-adv-x="465" 
d="M145 515v-205h-81v542h81v-198v-4v-3q19 28 49.5 45t71.5 17q64 0 101.5 -39t37.5 -116v-244h-80v228q0 52 -22.5 76.5t-62.5 24.5q-37 0 -66 -30.5t-29 -93.5z" />
    <glyph glyph-name="i.sup" horiz-adv-x="210" 
d="M64 767v85h81v-85h-81zM64 310v390h81v-390h-81z" />
    <glyph glyph-name="j.sup" horiz-adv-x="210" 
d="M64 767v85h81v-85h-81zM64 700h81v-428q0 -61 -27 -83t-75 -22h-29t-32 1v64q10 0 20 -0.5t19 -0.5q25 0 34 11t9 39v419z" />
    <glyph glyph-name="k.sup" horiz-adv-x="439" 
d="M328 310l-108 197l-76 -75v-122h-80v542h80v-324l167 172h102l-136 -136l142 -254h-91z" />
    <glyph glyph-name="l.sup" horiz-adv-x="210" 
d="M64 310v542h81v-542h-81z" />
    <glyph glyph-name="m.sup" horiz-adv-x="706" 
d="M145 521v-211h-81v390h78v-57q16 31 46.5 48.5t73.5 17.5q36 0 68 -17t49 -54q19 34 52 52.5t76 18.5q56 0 97 -34.5t41 -115.5v-249h-80v232q0 51 -23.5 74t-57.5 23q-35 0 -62 -29t-27 -89v-211h-80v232q0 51 -23 74t-57 23q-35 0 -62.5 -29t-27.5 -89z" />
    <glyph glyph-name="n.sup" horiz-adv-x="465" 
d="M145 515v-205h-81v390h79v-56q19 29 50 47t73 18q64 0 101.5 -39t37.5 -116v-244h-80v228q0 52 -22.5 76.5t-62.5 24.5q-37 0 -66 -30.5t-29 -93.5z" />
    <glyph glyph-name="o.sup" horiz-adv-x="480" 
d="M240 302q-42 0 -78.5 14.5t-64 41t-43 65t-15.5 85.5q0 45 16 82.5t43 63.5t64 40.5t78 14.5q42 0 78.5 -14t64 -40t43 -63.5t15.5 -83.5t-16 -84.5t-43 -65t-64 -41.5t-78 -15zM240 371q51 0 84.5 38.5t33.5 98.5q0 58 -33.5 95.5t-84.5 37.5q-52 0 -85.5 -37.5
t-33.5 -95.5q0 -60 34 -98.5t85 -38.5z" />
    <glyph glyph-name="p.sup" horiz-adv-x="492" 
d="M274 302q-46 0 -78.5 19t-50.5 49v-202h-81v532h80v-62q16 32 50 51.5t80 19.5q37 0 69 -13t56 -38.5t38 -63t14 -86.5q0 -50 -14 -88.5t-38 -64.5t-56.5 -39.5t-68.5 -13.5zM256 369q46 0 79 36.5t33 102.5q0 64 -32.5 99t-79.5 35q-45 0 -79 -34.5t-34 -99.5
q0 -67 34.5 -103t78.5 -36z" />
    <glyph glyph-name="q.sup" horiz-adv-x="492" 
d="M426 700v-532h-80v207q-17 -33 -49.5 -53t-78.5 -20q-37 0 -69.5 13.5t-56.5 39.5t-38 64.5t-14 88.5q0 48 14.5 85.5t38.5 62.5t56.5 38.5t67.5 13.5q49 0 81.5 -21t48.5 -53v66h79zM236 369q44 0 78 36.5t34 102.5q0 65 -34.5 99t-77.5 34q-49 0 -81 -35t-32 -98
q0 -65 32 -102t81 -37z" />
    <glyph glyph-name="r.sup" horiz-adv-x="301" 
d="M145 526v-216h-81v390h79v-70q5 11 13 22.5t20 21.5q16 16 37 22.5t43 6.5q6 0 13 -1t11 -2v-78q-10 1 -18 2t-17 1q-16 0 -33.5 -4t-32 -15t-24.5 -30t-10 -50z" />
    <glyph glyph-name="s.sup" horiz-adv-x="407" 
d="M204 301q-66 0 -115 33t-56 100h78q4 -36 30 -53.5t63 -17.5q32 0 59 13.5t27 41.5q0 22 -20 34.5t-62 19.5l-42 8q-54 10 -86.5 36t-32.5 71q0 57 46.5 90t109.5 33q60 0 107 -32t52 -89h-78q-3 28 -25.5 44t-55.5 16t-56 -14.5t-23 -39.5q0 -20 17.5 -31.5t53.5 -17.5
l41 -8q62 -10 97.5 -38t35.5 -77q0 -31 -14 -54t-36.5 -38t-52.5 -22.5t-62 -7.5z" />
    <glyph glyph-name="t.sup" horiz-adv-x="296" 
d="M266 311q-19 -1 -34.5 -1.5t-37.5 -0.5q-48 0 -76 20t-28 81v227h-67v63h67v82l79 31v-113h97v-63h-97v-213q0 -31 11.5 -41t36.5 -10q16 0 27.5 0.5t21.5 0.5v-63z" />
    <glyph glyph-name="u.sup" horiz-adv-x="460" 
d="M318 310v60q-18 -33 -48.5 -50.5t-75.5 -17.5q-59 0 -97 38.5t-38 113.5v246h80v-231q0 -49 23 -73.5t59 -24.5q37 0 65 28.5t28 91.5v209h81v-390h-77z" />
    <glyph glyph-name="v.sup" horiz-adv-x="404" 
d="M390 700l-147 -391h-82l-148 391h83l108 -302l107 302h79z" />
    <glyph glyph-name="w.sup" horiz-adv-x="609" 
d="M389 309l-85 288l-84 -288h-78l-125 391h82l85 -291l86 293h73l86 -294l86 292h77l-125 -391h-78z" />
    <glyph glyph-name="x.sup" horiz-adv-x="414" 
d="M303 310l-98 146l-99 -146h-89l140 197l-137 193h93l96 -141l95 141h90l-136 -191l139 -199h-94z" />
    <glyph glyph-name="y.sup" horiz-adv-x="405" 
d="M391 700l-212 -533h-82l71 174l-155 359h86l109 -268l102 268h81z" />
    <glyph glyph-name="z.sup" horiz-adv-x="394" 
d="M356 376v-66h-320v68l225 256h-220v66h313v-68l-225 -256h227z" />
    <glyph glyph-name="registered.alt" horiz-adv-x="823" 
d="M411 -23q-81 0 -149.5 29t-118 79t-77.5 119t-28 149q0 78 29 146.5t79 119t118.5 80t146.5 29.5q76 0 144 -29t118 -79t79 -119t29 -148q0 -78 -29 -146.5t-79 -119.5t-118 -80.5t-144 -29.5zM411 44q62 0 117 25t95 66.5t63.5 98t23.5 119.5t-23.5 119t-63.5 97.5
t-95 66t-117 24.5q-63 0 -118.5 -24.5t-95.5 -66t-63 -97.5t-23 -119t23 -119.5t63.5 -98.5t95.5 -66.5t118 -24.5zM411 320h-75v-167h-78v405h188q64 0 98 -32.5t34 -77.5q0 -43 -23 -69t-60 -33v-2q22 -8 38.5 -26.5t27.5 -60.5l28 -104l-80 3l-25 98q-10 37 -27 51.5
t-46 14.5zM336 496v-113h84q39 0 58.5 13.5t19.5 42.5q0 30 -19 43.5t-56 13.5h-87z" />
    <glyph glyph-name="at.case" horiz-adv-x="857" 
d="M677 24q-39 -28 -101.5 -48.5t-134.5 -20.5q-76 0 -147.5 26t-126 76t-87 123t-32.5 167q0 88 33 162t88 127t128 82t151 29q82 0 153 -27.5t122.5 -75t81 -113t29.5 -140.5q0 -66 -20 -112.5t-50 -75t-65 -41.5t-66 -13q-38 0 -69 17t-41 47q-22 -30 -53 -46t-69 -16
q-29 0 -58 11t-52 33.5t-37 57t-14 80.5q0 50 16 90t41.5 67.5t59.5 42.5t70 15q40 0 71.5 -15.5t50.5 -45.5l7 51h84l-37 -254q-4 -31 8 -46t36 -15q15 0 33 8t34.5 26.5t27.5 50.5t11 79q0 59 -23 111t-63.5 90t-96.5 60t-122 22q-62 0 -120 -23.5t-102 -66t-70.5 -102
t-26.5 -131.5q0 -77 27 -136t71 -98.5t100.5 -60t113.5 -20.5t107.5 16t83.5 41zM423 230q40 0 67.5 27t36.5 73q2 13 3.5 23t1.5 20q-1 46 -24.5 73t-64.5 27q-49 0 -79 -37.5t-30 -97.5q0 -49 26 -78.5t63 -29.5z" />
    <glyph glyph-name="hyphen.case" horiz-adv-x="443" 
d="M55 319v86h334v-86h-334z" />
    <glyph glyph-name="exclamdown.case" horiz-adv-x="274" 
d="M197 700v-124h-109v124h109zM171 476v-10l22 -267v-199h-100v199l21 267v10h57z" />
    <glyph glyph-name="questiondown.case" horiz-adv-x="569" 
d="M367 700v-113h-100v113h100zM359 487v-21q0 -22 -1.5 -37.5t-5.5 -28.5q-9 -23 -26 -43.5t-54 -42.5q-52 -31 -85.5 -60t-33.5 -75q0 -50 38.5 -83t98.5 -33q65 0 104 39.5t43 102.5h96q-4 -51 -24.5 -91.5t-52.5 -69t-75 -43.5t-92 -15q-47 0 -89.5 12.5t-74.5 37
t-51 60.5t-19 83q0 66 35.5 106.5t105.5 75.5q50 25 64 48.5t14 60.5v17h85z" />
    <glyph glyph-name="slash.case" horiz-adv-x="493" 
d="M7 -37l388 775h92l-388 -775h-92z" />
    <glyph glyph-name="backslash.case" horiz-adv-x="498" 
d="M394 -37l-388 775h96l389 -775h-97z" />
    <glyph glyph-name="bracketleft.case" horiz-adv-x="327" 
d="M88 -63v826h220v-87h-126v-652h126v-87h-220z" />
    <glyph glyph-name="bracketright.case" horiz-adv-x="327" 
d="M246 763v-826h-220v87h126v652h-126v87h220z" />
    <glyph glyph-name="endash.case" horiz-adv-x="566" 
d="M46 321v86h487v-86h-487z" />
    <glyph glyph-name="emdash.case" horiz-adv-x="927" 
d="M46 321v86h849v-86h-849z" />
    <glyph glyph-name="guillemotleft.case" horiz-adv-x="477" 
d="M438 545l-113 -186l113 -184h-87l-128 182v2l128 186h87zM254 545l-113 -186l113 -184h-87l-128 182v2l128 186h87z" />
    <glyph glyph-name="guillemotright.case" horiz-adv-x="477" 
d="M444 360l-128 -186h-87l113 186l-113 184h87l128 -182v-2zM261 360l-128 -186h-87l113 186l-113 184h87l128 -182v-2z" />
    <glyph glyph-name="guilsinglleft.case" horiz-adv-x="294" 
d="M254 545l-113 -186l113 -184h-87l-128 182v2l128 186h87z" />
    <glyph glyph-name="guilsinglright.case" horiz-adv-x="294" 
d="M261 358l-128 -186h-87l113 186l-113 184h87l128 -182v-2z" />
    <glyph glyph-name="parenleft.case" horiz-adv-x="311" 
d="M54 353q0 67 15 126t38 107t51.5 86.5t54.5 65.5h105q-34 -34 -64 -76.5t-52.5 -90.5t-36 -103t-13.5 -115t13 -115.5t35.5 -105t53 -92.5t64.5 -78h-105q-26 27 -54.5 66t-51.5 88t-38 109t-15 128z" />
    <glyph glyph-name="parenright.case" horiz-adv-x="311" 
d="M263 347q0 -67 -15 -126t-38 -107t-51.5 -86.5t-54.5 -65.5h-105q34 34 64 76.5t52.5 90.5t36 103t13.5 115t-13 115.5t-35.5 105t-53 92.5t-64.5 78h105q26 -27 54.5 -66t51.5 -88t38 -109t15 -128z" />
    <glyph glyph-name="J.alt" horiz-adv-x="348" 
d="M101 -2q-20 0 -41.5 1.5t-46.5 7.5v86q19 -4 36.5 -6.5t41.5 -2.5q42 0 65 18t23 72v526h97v-543q0 -84 -43 -121.5t-132 -37.5z" />
    <glyph glyph-name="K.alt" horiz-adv-x="647" 
d="M628 700l-322 -326l329 -374h-126l-322 366l325 334h116zM88 0v700h98v-700h-98z" />
    <glyph glyph-name="R.alt" horiz-adv-x="655" 
d="M335 287h-154v-287h-99v700h296q59 0 103 -15.5t72.5 -43t43 -65t14.5 -81.5q0 -85 -45 -133t-107 -63v-2q7 -12 12.5 -21t13.5 -24l144 -252h-114l-152 271q-6 10 -10.5 13t-17.5 3zM181 614v-241h187q71 0 106 33t35 87t-35.5 87.5t-105.5 33.5h-187z" />
    <glyph glyph-name="a.alt" horiz-adv-x="619" 
d="M451 0v99q-19 -47 -64.5 -78.5t-110.5 -31.5q-49 0 -92.5 18t-75 52.5t-50 86t-18.5 117.5q0 63 19 113t51 83.5t75 51.5t90 18q66 0 111.5 -28.5t64.5 -71.5v89h93v-518h-93zM295 67q64 0 110.5 52t46.5 144q0 91 -46.5 139.5t-110.5 48.5q-68 0 -112.5 -50.5
t-44.5 -137.5q0 -90 45 -143t112 -53z" />
    <glyph glyph-name="g.alt" horiz-adv-x="535" 
d="M497 -46q0 -41 -19 -71t-51 -49t-75 -28t-90 -9q-49 0 -91 7t-73 23t-48.5 41.5t-17.5 62.5t22 62.5t53 40.5q-22 13 -37 33.5t-15 46.5q0 27 19 50t56 40q-35 24 -57.5 61t-22.5 85q0 42 17 75.5t45 56t64.5 34.5t74.5 12q5 0 11 -0.5t11 -0.5q28 -1 53.5 -5.5
t59.5 -4.5h141v-77h-47q-15 0 -31 2t-32 3q17 -21 27.5 -45.5t10.5 -49.5q0 -41 -16.5 -74.5t-44.5 -57t-65 -36.5t-78 -13q-8 0 -17 1t-17 2q-34 -3 -52 -16.5t-18 -29.5q0 -19 14 -27t43 -9l113 -1q88 -1 134 -37.5t46 -97.5zM251 455q-47 0 -79.5 -28t-32.5 -77
q0 -46 32.5 -77.5t79.5 -31.5q51 0 82.5 31t31.5 78q0 49 -32.5 77t-81.5 28zM125 -54q0 -39 39 -57t99 -18q58 0 100.5 18t42.5 59q0 34 -27 49t-73 16l-104 1q-32 -1 -54.5 -19.5t-22.5 -48.5z" />
    <glyph glyph-name="k.alt" horiz-adv-x="536" 
d="M74 0v715h94v-715h-94zM517 518l-235 -239l245 -279h-119l-240 275l235 243h114z" />
    <glyph glyph-name="Jcircumflex.alt" horiz-adv-x="348" 
d="M101 -2q-20 0 -41.5 1.5t-46.5 7.5v86q19 -4 36.5 -6.5t41.5 -2.5q42 0 65 18t23 72v526h97v-543q0 -84 -43 -121.5t-132 -37.5zM300 758l-73 76l-71 -76h-86l114 128h89l114 -128h-87z" />
    <glyph glyph-name="Kcommaaccent.alt" horiz-adv-x="647" 
d="M628 700l-322 -326l329 -374h-126l-322 366l325 334h116zM88 0v700h98v-700h-98zM277 -152l2 92h95l-1 -74q-2 -42 -26.5 -68.5t-75.5 -36.5l-3 34q26 7 38.5 18t14.5 23q0 5 -2.5 7.5t-6.5 3.5l-5.5 0.5t-12 0.5h-12h-5.5z" />
    <glyph glyph-name="aacute.alt" horiz-adv-x="623" 
d="M451 0v99q-19 -47 -64.5 -78.5t-110.5 -31.5q-49 0 -92.5 18t-75 52.5t-50 86t-18.5 117.5q0 63 19 113t51 83.5t75 51.5t90 18q66 0 111.5 -28.5t64.5 -71.5v89h93v-518h-93zM295 67q64 0 110.5 52t46.5 144q0 91 -46.5 139.5t-110.5 48.5q-68 0 -112.5 -50.5
t-44.5 -137.5q0 -90 45 -143t112 -53zM268 588l55 128h101l-70 -128h-86z" />
    <glyph glyph-name="acircumflex.alt" horiz-adv-x="623" 
d="M451 0v99q-19 -47 -64.5 -78.5t-110.5 -31.5q-49 0 -92.5 18t-75 52.5t-50 86t-18.5 117.5q0 63 19 113t51 83.5t75 51.5t90 18q66 0 111.5 -28.5t64.5 -71.5v89h93v-518h-93zM295 67q64 0 110.5 52t46.5 144q0 91 -46.5 139.5t-110.5 48.5q-68 0 -112.5 -50.5
t-44.5 -137.5q0 -90 45 -143t112 -53zM370 588l-73 76l-71 -76h-86l114 128h89l114 -128h-87z" />
    <glyph glyph-name="adieresis.alt" horiz-adv-x="623" 
d="M451 0v99q-19 -47 -64.5 -78.5t-110.5 -31.5q-49 0 -92.5 18t-75 52.5t-50 86t-18.5 117.5q0 63 19 113t51 83.5t75 51.5t90 18q66 0 111.5 -28.5t64.5 -71.5v89h93v-518h-93zM295 67q64 0 110.5 52t46.5 144q0 91 -46.5 139.5t-110.5 48.5q-68 0 -112.5 -50.5
t-44.5 -137.5q0 -90 45 -143t112 -53zM346 612v104h94v-104h-94zM156 612v104h94v-104h-94z" />
    <glyph glyph-name="agrave.alt" horiz-adv-x="623" 
d="M451 0v99q-19 -47 -64.5 -78.5t-110.5 -31.5q-49 0 -92.5 18t-75 52.5t-50 86t-18.5 117.5q0 63 19 113t51 83.5t75 51.5t90 18q66 0 111.5 -28.5t64.5 -71.5v89h93v-518h-93zM295 67q64 0 110.5 52t46.5 144q0 91 -46.5 139.5t-110.5 48.5q-68 0 -112.5 -50.5
t-44.5 -137.5q0 -90 45 -143t112 -53zM251 588l-71 128h101l56 -128h-86z" />
    <glyph glyph-name="atilde.alt" horiz-adv-x="623" 
d="M451 0v99q-19 -47 -64.5 -78.5t-110.5 -31.5q-49 0 -92.5 18t-75 52.5t-50 86t-18.5 117.5q0 63 19 113t51 83.5t75 51.5t90 18q66 0 111.5 -28.5t64.5 -71.5v89h93v-518h-93zM295 67q64 0 110.5 52t46.5 144q0 91 -46.5 139.5t-110.5 48.5q-68 0 -112.5 -50.5
t-44.5 -137.5q0 -90 45 -143t112 -53zM362 590q-23 0 -40 8t-36 21q-14 10 -27 17.5t-26 7.5q-15 0 -28 -10.5t-25 -35.5l-56 32q19 41 48 62t63 21q22 0 39.5 -7.5t36.5 -21.5q13 -10 26 -17.5t26 -7.5q16 0 29 10.5t25 35.5l56 -31q-19 -42 -48 -63t-63 -21z" />
    <glyph glyph-name="aring.alt" horiz-adv-x="623" 
d="M451 0v99q-19 -47 -64.5 -78.5t-110.5 -31.5q-49 0 -92.5 18t-75 52.5t-50 86t-18.5 117.5q0 63 19 113t51 83.5t75 51.5t90 18q66 0 111.5 -28.5t64.5 -71.5v89h93v-518h-93zM295 67q64 0 110.5 52t46.5 144q0 91 -46.5 139.5t-110.5 48.5q-68 0 -112.5 -50.5
t-44.5 -137.5q0 -90 45 -143t112 -53zM298 567q-33 0 -58.5 23.5t-25.5 56.5t25.5 57t58.5 24q34 0 58.5 -24t24.5 -57t-24.5 -56.5t-58.5 -23.5zM298 611q15 0 25 11t10 25q0 15 -10 26t-25 11q-14 0 -25 -11t-11 -26q0 -14 11 -25t25 -11z" />
    <glyph glyph-name="abreve.alt" horiz-adv-x="623" 
d="M451 0v99q-19 -47 -64.5 -78.5t-110.5 -31.5q-49 0 -92.5 18t-75 52.5t-50 86t-18.5 117.5q0 63 19 113t51 83.5t75 51.5t90 18q66 0 111.5 -28.5t64.5 -71.5v89h93v-518h-93zM295 67q64 0 110.5 52t46.5 144q0 91 -46.5 139.5t-110.5 48.5q-68 0 -112.5 -50.5
t-44.5 -137.5q0 -90 45 -143t112 -53zM298 593q-60 0 -95.5 37.5t-37.5 85.5h75q2 -29 19.5 -45t39.5 -16t40 16t20 45h71q-2 -48 -37 -85.5t-95 -37.5z" />
    <glyph glyph-name="amacron.alt" horiz-adv-x="623" 
d="M451 0v99q-19 -47 -64.5 -78.5t-110.5 -31.5q-49 0 -92.5 18t-75 52.5t-50 86t-18.5 117.5q0 63 19 113t51 83.5t75 51.5t90 18q66 0 111.5 -28.5t64.5 -71.5v89h93v-518h-93zM295 67q64 0 110.5 52t46.5 144q0 91 -46.5 139.5t-110.5 48.5q-68 0 -112.5 -50.5
t-44.5 -137.5q0 -90 45 -143t112 -53zM172 623v65h253v-65h-253z" />
    <glyph glyph-name="aogonek.alt" horiz-adv-x="623" 
d="M451 0v99q-19 -47 -64.5 -78.5t-110.5 -31.5q-49 0 -92.5 18t-75 52.5t-50 86t-18.5 117.5q0 63 19 113t51 83.5t75 51.5t90 18q66 0 111.5 -28.5t64.5 -71.5v89h93v-518h-93zM295 67q64 0 110.5 52t46.5 144q0 91 -46.5 139.5t-110.5 48.5q-68 0 -112.5 -50.5
t-44.5 -137.5q0 -90 45 -143t112 -53zM490 -191q-49 0 -83 21t-34 67q0 37 30.5 69.5t69.5 54.5l69 -21q-14 -7 -30.5 -17.5t-30 -22.5t-22.5 -26t-9 -28q0 -22 16 -31.5t42 -9.5q8 0 15.5 1t18.5 3v-56q-14 -2 -27 -3t-25 -1z" />
    <glyph glyph-name="aringacute.alt" horiz-adv-x="623" 
d="M451 0v99q-19 -47 -64.5 -78.5t-110.5 -31.5q-49 0 -92.5 18t-75 52.5t-50 86t-18.5 117.5q0 63 19 113t51 83.5t75 51.5t90 18q66 0 111.5 -28.5t64.5 -71.5v89h93v-518h-93zM295 67q64 0 110.5 52t46.5 144q0 91 -46.5 139.5t-110.5 48.5q-68 0 -112.5 -50.5
t-44.5 -137.5q0 -90 45 -143t112 -53zM298 567q-33 0 -58.5 23.5t-25.5 56.5t25.5 57t58.5 24q34 0 58.5 -24t24.5 -57t-24.5 -56.5t-58.5 -23.5zM298 611q15 0 25 11t10 25q0 15 -10 26t-25 11q-14 0 -25 -11t-11 -26q0 -14 11 -25t25 -11zM268 750l55 128h101l-70 -128
h-86z" />
    <glyph glyph-name="gdotaccent.alt" horiz-adv-x="539" 
d="M497 -46q0 -41 -19 -71t-51 -49t-75 -28t-90 -9q-49 0 -91 7t-73 23t-48.5 41.5t-17.5 62.5t22 62.5t53 40.5q-22 13 -37 33.5t-15 46.5q0 27 19 50t56 40q-35 24 -57.5 61t-22.5 85q0 42 17 75.5t45 56t64.5 34.5t74.5 12q5 0 11 -0.5t11 -0.5q28 -1 53.5 -5.5
t59.5 -4.5h141v-77h-47q-15 0 -31 2t-32 3q17 -21 27.5 -45.5t10.5 -49.5q0 -41 -16.5 -74.5t-44.5 -57t-65 -36.5t-78 -13q-8 0 -17 1t-17 2q-34 -3 -52 -16.5t-18 -29.5q0 -19 14 -27t43 -9l113 -1q88 -1 134 -37.5t46 -97.5zM251 455q-47 0 -79.5 -28t-32.5 -77
q0 -46 32.5 -77.5t79.5 -31.5q51 0 82.5 31t31.5 78q0 49 -32.5 77t-81.5 28zM125 -54q0 -39 39 -57t99 -18q58 0 100.5 18t42.5 59q0 34 -27 49t-73 16l-104 1q-32 -1 -54.5 -19.5t-22.5 -48.5zM220 616v102h92v-102h-92z" />
    <glyph glyph-name="gcommaaccent.alt" horiz-adv-x="539" 
d="M497 -46q0 -41 -19 -71t-51 -49t-75 -28t-90 -9q-49 0 -91 7t-73 23t-48.5 41.5t-17.5 62.5t22 62.5t53 40.5q-22 13 -37 33.5t-15 46.5q0 27 19 50t56 40q-35 24 -57.5 61t-22.5 85q0 42 17 75.5t45 56t64.5 34.5t74.5 12q5 0 11 -0.5t11 -0.5q28 -1 53.5 -5.5
t59.5 -4.5h141v-77h-47q-15 0 -31 2t-32 3q17 -21 27.5 -45.5t10.5 -49.5q0 -41 -16.5 -74.5t-44.5 -57t-65 -36.5t-78 -13q-8 0 -17 1t-17 2q-34 -3 -52 -16.5t-18 -29.5q0 -19 14 -27t43 -9l113 -1q88 -1 134 -37.5t46 -97.5zM251 455q-47 0 -79.5 -28t-32.5 -77
q0 -46 32.5 -77.5t79.5 -31.5q51 0 82.5 31t31.5 78q0 49 -32.5 77t-81.5 28zM125 -54q0 -39 39 -57t99 -18q58 0 100.5 18t42.5 59q0 34 -27 49t-73 16l-104 1q-32 -1 -54.5 -19.5t-22.5 -48.5z" />
    <glyph glyph-name="gbreve.alt" horiz-adv-x="539" 
d="M497 -46q0 -41 -19 -71t-51 -49t-75 -28t-90 -9q-49 0 -91 7t-73 23t-48.5 41.5t-17.5 62.5t22 62.5t53 40.5q-22 13 -37 33.5t-15 46.5q0 27 19 50t56 40q-35 24 -57.5 61t-22.5 85q0 42 17 75.5t45 56t64.5 34.5t74.5 12q5 0 11 -0.5t11 -0.5q28 -1 53.5 -5.5
t59.5 -4.5h141v-77h-47q-15 0 -31 2t-32 3q17 -21 27.5 -45.5t10.5 -49.5q0 -41 -16.5 -74.5t-44.5 -57t-65 -36.5t-78 -13q-8 0 -17 1t-17 2q-34 -3 -52 -16.5t-18 -29.5q0 -19 14 -27t43 -9l113 -1q88 -1 134 -37.5t46 -97.5zM251 455q-47 0 -79.5 -28t-32.5 -77
q0 -46 32.5 -77.5t79.5 -31.5q51 0 82.5 31t31.5 78q0 49 -32.5 77t-81.5 28zM125 -54q0 -39 39 -57t99 -18q58 0 100.5 18t42.5 59q0 34 -27 49t-73 16l-104 1q-32 -1 -54.5 -19.5t-22.5 -48.5zM266 599q-60 0 -95.5 37.5t-37.5 85.5h75q2 -29 19.5 -45t39.5 -16t40 16
t20 45h71q-2 -48 -37 -85.5t-95 -37.5z" />
    <glyph glyph-name="gcircumflex.alt" horiz-adv-x="539" 
d="M497 -46q0 -41 -19 -71t-51 -49t-75 -28t-90 -9q-49 0 -91 7t-73 23t-48.5 41.5t-17.5 62.5t22 62.5t53 40.5q-22 13 -37 33.5t-15 46.5q0 27 19 50t56 40q-35 24 -57.5 61t-22.5 85q0 42 17 75.5t45 56t64.5 34.5t74.5 12q5 0 11 -0.5t11 -0.5q28 -1 53.5 -5.5
t59.5 -4.5h141v-77h-47q-15 0 -31 2t-32 3q17 -21 27.5 -45.5t10.5 -49.5q0 -41 -16.5 -74.5t-44.5 -57t-65 -36.5t-78 -13q-8 0 -17 1t-17 2q-34 -3 -52 -16.5t-18 -29.5q0 -19 14 -27t43 -9l113 -1q88 -1 134 -37.5t46 -97.5zM251 455q-47 0 -79.5 -28t-32.5 -77
q0 -46 32.5 -77.5t79.5 -31.5q51 0 82.5 31t31.5 78q0 49 -32.5 77t-81.5 28zM125 -54q0 -39 39 -57t99 -18q58 0 100.5 18t42.5 59q0 34 -27 49t-73 16l-104 1q-32 -1 -54.5 -19.5t-22.5 -48.5zM339 594l-73 76l-71 -76h-86l114 128h89l114 -128h-87z" />
    <glyph glyph-name="kcommaaccent.alt" horiz-adv-x="539" 
d="M74 0v715h94v-715h-94zM517 518l-235 -239l245 -279h-119l-240 275l235 243h114zM228 -152l2 92h95l-1 -74q-2 -42 -26.5 -68.5t-75.5 -36.5l-3 34q26 7 38.5 18t14.5 23q0 5 -2.5 7.5t-6.5 3.5l-5.5 0.5t-12 0.5h-12h-5.5z" />
    <glyph glyph-name="A.liga" horiz-adv-x="664" 
d="M482 0v203h-256l-124 -203h-115l436 700h159v-700h-100zM278 288h204v333z" />
    <glyph glyph-name="V.liga" horiz-adv-x="664" 
d="M677 700l-436 -700h-159v700h100v-620l379 620h116z" />
    <glyph glyph-name="fraction.small" horiz-adv-x="128" 
d="M-207 0l456 650h86l-456 -650h-86z" />
    <glyph glyph-name="zero.percent" horiz-adv-x="429" 
d="M214 -9q-33 0 -63 12t-52.5 34t-36 55t-13.5 74t13.5 73t36 53.5t52.5 33t63 11.5t63.5 -11t53 -32.5t36 -54t13.5 -73.5t-13.5 -74t-36 -55t-53 -34t-63.5 -12zM214 59q42 0 63 30.5t21 76.5q0 45 -21 74.5t-63 29.5q-40 0 -61.5 -29.5t-21.5 -74.5q0 -46 21.5 -76.5
t61.5 -30.5z" />
    <glyph glyph-name="zero.percent.small" horiz-adv-x="391" 
d="M196 -8q-30 0 -57.5 11t-48 31.5t-33 50.5t-12.5 68q0 37 12.5 67t33 50.5t48 31.5t57.5 11q29 0 56.5 -11t48.5 -31.5t33.5 -50.5t12.5 -67q0 -38 -12.5 -68t-33.5 -50.5t-48.5 -31.5t-56.5 -11zM196 55q37 0 57.5 27t20.5 71q0 43 -21 70t-57 27q-37 0 -57.5 -27
t-20.5 -70q0 -44 21 -71t57 -27z" />
    <glyph glyph-name="A.pointed" horiz-adv-x="658" 
d="M547 0l-73 167h-299l-73 -167h-99l325 718h2l325 -718h-108zM213 253h224l-112 256z" />
    <glyph glyph-name="M.pointed" horiz-adv-x="910" 
d="M729 0v530l-274 -546h-3l-275 551v-535h-95v700h110l264 -530l264 530h108v-700h-99z" />
    <glyph glyph-name="N.pointed" horiz-adv-x="735" 
d="M653 700v-718h-1l-472 502v-484h-98v718h2l471 -504v486h98z" />
    <glyph glyph-name="V.pointed" horiz-adv-x="652" 
d="M646 700l-319 -718h-2l-319 718h107l217 -501l217 501h99z" />
    <glyph glyph-name="W.pointed" horiz-adv-x="960" 
d="M690 -18l-210 497l-209 -497h-2l-255 718h102l167 -478l199 480h2l200 -480l166 478h96l-254 -718h-2z" />
    <glyph glyph-name="Z.pointed" horiz-adv-x="629" 
d="M593 86v-86h-579v2l428 612h-391v86h560v-2l-427 -612h409z" />
    <glyph glyph-name="A.hard" horiz-adv-x="688" 
d="M583 0l-68 197h-348l-68 -197h-100l251 700h92l-148 -426h295l-147 426h95l252 -700h-106z" />
    <glyph glyph-name="K.hard" horiz-adv-x="654" 
d="M182 341v-341h-100v700h100v-244l296 244h152zM494 0l-312 341h135l313 -341h-136z" />
    <glyph glyph-name="M.hard" horiz-adv-x="939" 
d="M762 700l-200 -700h-187l-201 700h95l201 -700l199 700h93zM857 700v-700h-95v700h95zM174 700v-700h-92v700h92z" />
    <glyph glyph-name="N.hard" horiz-adv-x="809" 
d="M727 700v-700h-197l-351 700h98l353 -700v700h97zM179 700v-700h-97v700h97z" />
    <glyph glyph-name="Q.hard" horiz-adv-x="780" 
d="M637 18l108 -114h-121l-103 108q-30 -12 -63 -18t-67 -6q-72 0 -135.5 26t-110 73t-74 115t-27.5 152t28 151t75.5 113.5t110.5 71.5t133 25q71 0 134.5 -24.5t110.5 -71t75 -114t28 -151.5q0 -122 -57 -209t-146 -127h101zM391 78q51 0 96 20t77.5 56t51 87t18.5 113
t-19 112.5t-51.5 85.5t-77 54t-95.5 19t-95.5 -19t-76.5 -54t-51 -85.5t-19 -112.5t18.5 -113t51 -87t77 -56t95.5 -20z" />
    <glyph glyph-name="R.hard" horiz-adv-x="650" 
d="M497 0l-159 291h-157v-291h-99v700h272q115 0 175 -56t60 -147q0 -92 -62 -149t-176 -57h-11l132 -44l140 -247h-115zM181 614v-238h168q75 0 108 34.5t33 84.5t-33.5 84.5t-108.5 34.5h-167z" />
    <glyph glyph-name="V.hard" horiz-adv-x="681" 
d="M682 700l-248 -700h-187l-247 700h106l236 -700l239 700h101z" />
    <glyph glyph-name="W.hard" horiz-adv-x="1004" 
d="M570 0l-68 192l-68 -192h-187l-247 700h106l236 -700l112 328l-132 372h107l76 -224l76 224h101l-130 -366l113 -334l239 700h100l-247 -700h-187z" />
    <glyph glyph-name="Z.hard" horiz-adv-x="637" 
d="M596 78v-78h-551v182l544 440h-535v78h535v-182l-544 -440h551z" />
    <glyph glyph-name="b.ss01" horiz-adv-x="578" 
d="M538 263q0 -64 -19 -113.5t-52 -82.5t-78 -50t-97 -17h-218v715h94v-197h125q50 0 94.5 -16.5t78 -49t53 -80t19.5 -109.5zM273 440h-105v-362h105q72 0 119.5 49t47.5 136q0 84 -47 130.5t-120 46.5z" />
    <glyph glyph-name="c.ss01" horiz-adv-x="454" 
d="M426 0h-140q-51 0 -96.5 17t-78.5 50t-52 82.5t-19 113.5q0 62 19.5 109.5t53 80t78 49t94.5 16.5h141v-78h-120q-74 0 -121 -46.5t-47 -130.5q0 -87 47.5 -136t120.5 -49h120v-78z" />
    <glyph glyph-name="d.ss01" horiz-adv-x="578" 
d="M504 715v-715h-218q-51 0 -96.5 17t-78.5 50t-52 82.5t-19 113.5q0 62 19.5 109.5t53 80t78 49t94.5 16.5h125v197h94zM306 78h104v362h-104q-74 0 -121 -46.5t-47 -130.5q0 -87 47.5 -136t120.5 -49z" />
    <glyph glyph-name="g.ss01" horiz-adv-x="609" 
d="M534 14q0 -53 -19 -93.5t-51 -67.5t-75 -40.5t-91 -13.5q-103 0 -167 47.5t-77 124.5h93q11 -45 50.5 -69.5t100.5 -24.5q62 0 102.5 33.5t40.5 102.5v92q-21 -40 -64.5 -66t-103.5 -26q-48 0 -90.5 17.5t-74 50.5t-50 81.5t-18.5 110.5q0 60 19 108t50.5 80.5t74 50
t89.5 17.5q57 0 101.5 -26t66.5 -66v80h93v-503zM290 93q30 0 58 12.5t48.5 35.5t33 56.5t12.5 75.5q0 43 -12.5 76t-33.5 55t-48.5 33.5t-57.5 11.5q-64 0 -108 -48t-44 -128q0 -83 44.5 -131.5t107.5 -48.5z" />
    <glyph glyph-name="p.ss01" horiz-adv-x="578" 
d="M74 -190v707h219q50 0 94.5 -16.5t78 -49t53 -80t19.5 -109.5q0 -64 -19 -113.5t-52 -82.5t-78 -50t-97 -17h-124v-189h-94zM273 439h-105v-362h105q72 0 119.5 49t47.5 136q0 84 -47 130.5t-120 46.5z" />
    <glyph glyph-name="q.ss01" horiz-adv-x="578" 
d="M40 262q0 62 19.5 109.5t53 80t78 49t94.5 16.5h219v-707h-94v189h-124q-51 0 -96.5 17t-78.5 50t-52 82.5t-19 113.5zM306 77h104v362h-104q-74 0 -121 -46.5t-47 -130.5q0 -87 47.5 -136t120.5 -49z" />
    <glyph glyph-name="b.basic" horiz-adv-x="607" 
d="M567 263q0 -67 -20.5 -118.5t-55 -86t-81 -52t-99.5 -17.5q-49 0 -94.5 17.5t-79 51t-54 85t-20.5 118.5v454h93v-275q21 37 66 63t106 26q49 0 92.5 -17.5t76 -51.5t51.5 -83.5t19 -113.5zM313 69q66 0 111 51.5t45 142.5q0 90 -45.5 138.5t-110.5 48.5
q-66 0 -112 -48.5t-46 -138.5q0 -46 13 -82t34.5 -61t50.5 -38t60 -13z" />
    <glyph glyph-name="d.basic" horiz-adv-x="607" 
d="M544 267q0 -69 -20.5 -121t-54.5 -87t-80 -52.5t-97 -17.5q-52 0 -98.5 17.5t-80 51.5t-53.5 85.5t-20 119.5q0 63 19 113t51 83.5t75 51.5t90 18q66 0 111.5 -28.5t64.5 -71.5v286h93v-448zM295 69q64 0 110.5 51t46.5 143q0 90 -46.5 138.5t-110.5 48.5
q-68 0 -112.5 -50t-44.5 -137q0 -90 45 -142t112 -52z" />
    <glyph glyph-name="f.basic" horiz-adv-x="312" 
d="M300 443h-134v-443h-92v577q0 84 39 112t113 28q20 0 38.5 -0.5t35.5 -1.5v-79q-13 1 -28.5 2t-29.5 1q-37 0 -56.5 -14t-19.5 -57v-50h134v-75z" />
    <glyph glyph-name="n.basic" horiz-adv-x="575" 
d="M160 303v-303h-93v322q0 99 62 153t162 54q105 0 161 -52t56 -153v-324h-93v303q0 75 -33.5 110t-90.5 35t-94 -35t-37 -110z" />
    <glyph glyph-name="t.basic" horiz-adv-x="330" 
d="M301 1q-26 -1 -46 -1.5t-48 -0.5q-62 0 -97.5 24.5t-35.5 105.5v489l92 42v-142h135v-75h-135v-298q0 -43 16.5 -56t49.5 -13q21 0 38.5 0.5t30.5 0.5v-76z" />
    <glyph glyph-name="u.basic" horiz-adv-x="567" 
d="M500 197q0 -99 -61 -153.5t-159 -54.5q-103 0 -158 52.5t-55 153.5v323h93v-302q0 -75 32.5 -110.5t88.5 -35.5q55 0 90 35t35 111v302h94v-321z" />
    </font>
</defs>
</svg>
